<?xml version="1.0" encoding="iso-8859-1"?>
<!-- Generator: Adobe Illustrator 16.0.0, SVG Export Plug-In . SVG Version: 6.00 Build 0)  -->
<!DOCTYPE svg PUBLIC "-//W3C//DTD SVG 1.1//EN" "http://www.w3.org/Graphics/SVG/1.1/DTD/svg11.dtd">
<svg version="1.1" id="Capa_1" xmlns="http://www.w3.org/2000/svg" xmlns:xlink="http://www.w3.org/1999/xlink" x="0px" y="0px"
	 width="47.855px" height="47.855px" viewBox="0 0 47.855 47.855" style="enable-background:new 0 0 47.855 47.855;"
	 xml:space="preserve">
<g>
	<g id="Rewind">
		<path d="M23.938,47.854h-0.014C10.737,47.854,0.004,37.122,0,23.931c0.004-13.196,10.739-23.93,23.93-23.93
			c6.392,0,12.4,2.489,16.919,7.008c4.521,4.52,7.008,10.527,7.006,16.916c0.002,6.391-2.483,12.399-7,16.919
			C36.337,45.365,30.329,47.854,23.938,47.854z M23.93,2.001c-12.088,0-21.926,9.838-21.93,21.93
			c0.004,12.089,9.84,21.923,21.926,21.923h0.013c5.856,0,11.361-2.28,15.5-6.424c4.141-4.143,6.418-9.648,6.416-15.506
			c0.002-5.855-2.278-11.36-6.42-15.502C35.294,4.282,29.787,2.001,23.93,2.001z"/>
		<path d="M23.916,43.285h-0.004c-10.678-0.002-19.362-8.688-19.36-19.36C4.55,13.253,13.233,4.568,23.91,4.565c0,0,0.001,0,0.002,0
			c5.17,0,10.031,2.014,13.688,5.671c3.658,3.657,5.672,8.519,5.672,13.688c0,5.17-2.014,10.031-5.67,13.688
			C33.945,41.269,29.085,43.285,23.916,43.285z M23.912,6.565c-0.001,0-0.001,0-0.002,0c-9.573,0.003-17.36,7.79-17.358,17.359
			c-0.002,9.57,7.786,17.358,17.36,17.36l0.004,1v-1c4.635,0,8.993-1.807,12.271-5.086s5.084-7.639,5.084-12.274
			s-1.806-8.995-5.086-12.274C32.907,8.371,28.548,6.565,23.912,6.565z"/>
		<g>
			<path d="M24.825,32.938c-0.193,0-0.388-0.057-0.556-0.168L12.39,24.858c-0.278-0.187-0.445-0.498-0.445-0.832
				c0-0.335,0.167-0.647,0.446-0.833l11.88-7.908c0.309-0.204,0.701-0.223,1.026-0.05c0.324,0.175,0.527,0.513,0.527,0.882v15.82
				c0,0.369-0.203,0.707-0.528,0.881C25.148,32.899,24.986,32.938,24.825,32.938z M14.749,24.026l9.076,6.045V17.985L14.749,24.026z
				"/>
			<path d="M32.044,32.856c-0.192,0-0.387-0.058-0.556-0.168l-7.211-4.797c-0.46-0.307-0.586-0.927-0.281-1.387
				c0.305-0.461,0.924-0.588,1.386-0.281l5.662,3.766V17.902l-5.653,3.763c-0.461,0.306-1.082,0.182-1.387-0.277
				c-0.307-0.46-0.182-1.081,0.277-1.387l7.209-4.798c0.308-0.203,0.699-0.223,1.025-0.049c0.324,0.175,0.527,0.514,0.527,0.882
				v15.82c0,0.369-0.203,0.707-0.527,0.881C32.368,32.817,32.206,32.856,32.044,32.856z"/>
		</g>
	</g>
	<g>
	</g>
	<g>
	</g>
	<g>
	</g>
	<g>
	</g>
	<g>
	</g>
	<g>
	</g>
	<g>
	</g>
	<g>
	</g>
	<g>
	</g>
	<g>
	</g>
	<g>
	</g>
	<g>
	</g>
	<g>
	</g>
	<g>
	</g>
	<g>
	</g>
</g>
<g>
</g>
<g>
</g>
<g>
</g>
<g>
</g>
<g>
</g>
<g>
</g>
<g>
</g>
<g>
</g>
<g>
</g>
<g>
</g>
<g>
</g>
<g>
</g>
<g>
</g>
<g>
</g>
<g>
</g>
</svg>
