<?xml version="1.0" encoding="iso-8859-1"?>
<!-- Generator: Adobe Illustrator 16.0.0, SVG Export Plug-In . SVG Version: 6.00 Build 0)  -->
<!DOCTYPE svg PUBLIC "-//W3C//DTD SVG 1.1//EN" "http://www.w3.org/Graphics/SVG/1.1/DTD/svg11.dtd">
<svg version="1.1" id="Capa_1" xmlns="http://www.w3.org/2000/svg" xmlns:xlink="http://www.w3.org/1999/xlink" x="0px" y="0px"
	 width="47.954px" height="47.953px" viewBox="0 0 47.954 47.953" style="enable-background:new 0 0 47.954 47.953;"
	 xml:space="preserve">
<g>
	<g id="Bling_Dollar_Sign">
		<path d="M24.079,45.882c-0.359,0-0.712-0.004-1.057-0.014c-0.423-0.013-0.756-0.365-0.743-0.788
			c0.013-0.422,0.316-0.773,0.788-0.744c0.566,0.016,1.173,0.018,1.745,0.008c0.005,0,0.009,0,0.013,0
			c0.418,0,0.76,0.336,0.767,0.754c0.007,0.424-0.33,0.771-0.753,0.778C24.589,45.881,24.335,45.882,24.079,45.882z"/>
		<path d="M23.191,14.515c-0.402,0-0.733-0.321-0.743-0.725c-0.01-0.411,0.315-0.751,0.726-0.761l0.164-0.004
			c0.219-0.005,0.314-0.008,0.617-0.008c0.256,0,0.509,0.002,0.756,0.007c0.409,0.008,0.735,0.348,0.729,0.758
			c-0.009,0.41-0.348,0.725-0.758,0.728c-0.237-0.005-0.48-0.007-0.726-0.007c-0.284,0-0.375,0.002-0.581,0.008l-0.166,0.004
			C23.202,14.515,23.197,14.515,23.191,14.515z"/>
		<g>
			<path d="M24.886,39.697c-0.007,0-0.016,0-0.021,0c-0.164-0.004-0.611-0.008-0.785-0.008l-1.009-0.002
				c-0.415-0.002-0.749-0.34-0.747-0.754c0.002-0.412,0.337-0.746,0.75-0.746c0.001,0,0.002,0,0.003,0l1.003,0.002
				c0.183,0,0.656,0.004,0.828,0.009c0.414,0.012,0.74,0.356,0.729,0.771C25.624,39.375,25.29,39.697,24.886,39.697z"/>
			<path d="M40.067,24.309h-9.49c-0.231,0-0.452-0.108-0.595-0.293c-0.142-0.186-0.188-0.426-0.13-0.65
				c0.143-0.537,0.079-1.071-0.179-1.502c-0.253-0.422-0.668-0.712-1.2-0.838c-0.403-0.096-0.652-0.5-0.558-0.903
				c0.097-0.404,0.507-0.654,0.902-0.556c0.923,0.219,1.685,0.761,2.143,1.528c0.31,0.518,0.467,1.106,0.467,1.715h7.753
				c-0.464-1.917-2.44-6.676-10.703-7.971c-0.409-0.064-0.688-0.448-0.625-0.857c0.064-0.41,0.458-0.687,0.857-0.625
				c5.93,0.929,8.9,3.606,10.351,5.688c1.599,2.295,1.75,4.379,1.755,4.466c0.014,0.207-0.059,0.41-0.201,0.561
				C40.472,24.223,40.274,24.309,40.067,24.309z"/>
			<path d="M24.749,20.437c-0.008,0-0.016,0-0.023,0c-0.584-0.019-1.143-0.018-1.695-0.002c-0.008,0-0.016,0-0.022,0
				c-0.404,0-0.737-0.321-0.75-0.728c-0.012-0.414,0.314-0.759,0.728-0.771c0.584-0.018,1.169-0.019,1.789,0.002
				c0.414,0.013,0.738,0.36,0.727,0.774C25.486,20.117,25.153,20.437,24.749,20.437z"/>
			<path d="M19.369,26c-0.066,0-0.134-0.009-0.201-0.027c-0.751-0.209-3.033-0.846-3.033-3.083c0-1.004,0.501-2.39,2.885-3.288
				c0.393-0.146,0.82,0.05,0.967,0.438c0.146,0.388-0.051,0.82-0.438,0.966c-1.271,0.478-1.914,1.111-1.914,1.883
				c0,0.57,0.234,1.163,1.936,1.638c0.399,0.111,0.633,0.524,0.521,0.924C19.999,25.784,19.698,26,19.369,26z"/>
			<path d="M28.727,38.533c-0.328,0-0.63-0.217-0.723-0.549c-0.111-0.398,0.122-0.812,0.521-0.924
				c1.232-0.344,1.968-1.082,1.968-1.976c0-0.935-1.02-1.737-2.029-2.117c-0.388-0.146-0.583-0.579-0.438-0.966
				c0.146-0.388,0.577-0.583,0.967-0.438c1.385,0.521,3.001,1.756,3.001,3.521c0,1.582-1.174,2.894-3.062,3.42
				C28.861,38.523,28.793,38.533,28.727,38.533z"/>
			<path d="M24.744,26.787c-0.021,0-0.046-0.001-0.067-0.003c-0.617-0.056-1.189-0.111-1.722-0.165
				c-0.412-0.041-0.713-0.408-0.672-0.82c0.041-0.413,0.411-0.718,0.82-0.672c0.528,0.053,1.097,0.107,1.708,0.163
				c0.413,0.038,0.717,0.401,0.68,0.815C25.455,26.494,25.128,26.787,24.744,26.787z"/>
			<path d="M24.747,32.633c-0.013,0-0.025,0-0.039-0.001c-0.617-0.03-1.192-0.063-1.727-0.096c-0.413-0.024-0.729-0.38-0.704-0.793
				c0.025-0.414,0.385-0.728,0.794-0.704c0.53,0.031,1.1,0.064,1.713,0.095c0.414,0.021,0.731,0.374,0.711,0.787
				C25.475,32.322,25.144,32.633,24.747,32.633z"/>
			<path d="M28.635,44.956c-0.37,0-0.692-0.274-0.742-0.651c-0.055-0.41,0.233-0.787,0.645-0.843
				c6.202-0.826,9.346-3.586,9.34-8.203v-0.19c0.007-1.781,0.027-7.202-9.257-7.951c-0.411-0.033-0.721-0.395-0.688-0.809
				c0.034-0.414,0.404-0.717,0.809-0.688c7.079,0.57,10.657,3.75,10.636,9.452v0.125c0.008,6.896-5.782,9.104-10.643,9.751
				C28.701,44.954,28.668,44.956,28.635,44.956z"/>
			<path d="M19.152,44.936c-0.046,0-0.092-0.004-0.139-0.014c-5.665-1.055-8.588-3.761-10.041-5.845
				c-1.599-2.292-1.823-4.339-1.832-4.425c-0.021-0.211,0.047-0.422,0.189-0.579c0.143-0.157,0.345-0.247,0.557-0.247h9.262
				c0.34,0,0.637,0.229,0.725,0.557c0.003,0.012,0.425,1.475,1.771,2.043c0.382,0.162,0.561,0.602,0.398,0.983
				c-0.161,0.382-0.6,0.56-0.982,0.399c-1.408-0.596-2.119-1.779-2.431-2.481H8.804c0.53,1.932,2.617,6.657,10.484,8.122
				c0.407,0.076,0.676,0.467,0.6,0.875C19.821,44.684,19.506,44.936,19.152,44.936z"/>
			<path d="M19.15,32.282c-0.035,0-0.071-0.002-0.107-0.009c-6.032-0.863-9.989-3.278-10.855-6.625
				c-0.414-1.604-0.83-4.707,1.033-7.476c1.745-2.593,5.027-4.229,9.757-4.861c0.414-0.058,0.789,0.233,0.843,0.644
				c0.055,0.411-0.233,0.788-0.644,0.843c-4.285,0.574-7.217,1.991-8.712,4.213c-1.536,2.281-1.176,4.902-0.824,6.261
				c0.696,2.69,4.291,4.754,9.615,5.517c0.41,0.06,0.694,0.438,0.636,0.849C19.837,32.012,19.517,32.282,19.15,32.282z"/>
		</g>
		<g>
			<path d="M22.72,47.953h-3.084c-0.276,0-0.5-0.225-0.5-0.5V10.427c0-0.276,0.224-0.5,0.5-0.5h3.084c0.276,0,0.5,0.224,0.5,0.5
				v37.026C23.22,47.729,22.996,47.953,22.72,47.953z M20.136,46.953h2.084V10.927h-2.084V46.953z"/>
			<path d="M28.325,47.953h-3.086c-0.275,0-0.5-0.225-0.5-0.5V10.427c0-0.276,0.225-0.5,0.5-0.5h3.086c0.276,0,0.5,0.224,0.5,0.5
				v37.026C28.825,47.729,28.602,47.953,28.325,47.953z M25.74,46.953h2.086V10.927H25.74V46.953z"/>
			<path d="M26.138,10.927h-4.452c-0.276,0-0.5-0.224-0.5-0.5c0-0.276,0.224-0.5,0.5-0.5h4.452c0.275,0,0.5,0.224,0.5,0.5
				C26.638,10.703,26.414,10.927,26.138,10.927z"/>
		</g>
		<g>
			<path d="M24.011,10.881c-1.681,0-3.049-1.369-3.049-3.051c0-1.044,0.525-2.004,1.405-2.57c0.232-0.15,0.541-0.083,0.691,0.151
				c0.149,0.232,0.082,0.542-0.15,0.691c-0.593,0.38-0.946,1.026-0.946,1.728c0,1.131,0.919,2.051,2.049,2.051
				c1.132,0,2.053-0.92,2.053-2.051c0-0.729-0.375-1.387-1.002-1.762c-0.237-0.142-0.315-0.448-0.174-0.686
				c0.142-0.238,0.449-0.313,0.686-0.173c0.919,0.548,1.49,1.552,1.49,2.62C27.064,9.512,25.695,10.881,24.011,10.881z"/>
			<path d="M24.022,9.321c-0.81,0-1.468-0.658-1.468-1.467c-0.001-0.487,0.241-0.942,0.647-1.217
				c0.113-0.078,0.27-0.048,0.347,0.067c0.077,0.114,0.048,0.27-0.067,0.347c-0.268,0.182-0.428,0.481-0.427,0.803
				c0,0.534,0.435,0.968,0.968,0.968c0.533,0,0.967-0.434,0.967-0.967c0-0.303-0.139-0.583-0.381-0.768
				c-0.109-0.084-0.13-0.241-0.046-0.351c0.083-0.109,0.239-0.13,0.351-0.047C25.28,6.97,25.49,7.394,25.49,7.855
				C25.49,8.663,24.831,9.321,24.022,9.321z"/>
			<g>
				<path d="M23.963,7.557c-0.055,0-0.109-0.009-0.164-0.027c-1.9-0.659-2.479-6.045-2.337-6.596C21.661,0.171,23.424,0,24.026,0
					c0.276,0,0.5,0.224,0.5,0.5S24.302,1,24.026,1c-0.768,0-1.373,0.181-1.602,0.292c-0.008,0.91,0.701,4.945,1.703,5.292
					c0.261,0.091,0.398,0.376,0.309,0.637C24.364,7.428,24.17,7.557,23.963,7.557z"/>
				<path d="M24.029,7.557c-0.207,0-0.4-0.129-0.473-0.336c-0.09-0.261,0.048-0.545,0.309-0.636
					c0.999-0.346,1.719-4.327,1.719-5.294C25.351,1.178,24.747,1,23.986,1c-0.276,0-0.5-0.224-0.5-0.5s0.223-0.5,0.5-0.5
					c0.602,0,2.365,0.171,2.563,0.933c0.144,0.551-0.446,5.935-2.356,6.597C24.138,7.548,24.083,7.557,24.029,7.557z"/>
			</g>
		</g>
		<g>
			<path d="M21.165,13.457c-0.477,0-0.864-0.388-0.864-0.865c0-0.477,0.388-0.864,0.864-0.864c0.478,0,0.865,0.388,0.865,0.864
				C22.031,13.069,21.643,13.457,21.165,13.457z M21.165,12.228c-0.201,0-0.364,0.164-0.364,0.364c0,0.201,0.163,0.365,0.364,0.365
				c0.201,0,0.365-0.164,0.365-0.365C21.531,12.392,21.366,12.228,21.165,12.228z"/>
			<path d="M21.165,17.077c-0.477,0-0.864-0.388-0.864-0.865s0.388-0.865,0.864-0.865c0.478,0,0.865,0.388,0.865,0.865
				S21.643,17.077,21.165,17.077z M21.165,15.847c-0.201,0-0.364,0.164-0.364,0.365s0.163,0.365,0.364,0.365
				c0.201,0,0.365-0.164,0.365-0.365S21.366,15.847,21.165,15.847z"/>
			<path d="M21.165,20.696c-0.477,0-0.864-0.388-0.864-0.865s0.388-0.864,0.864-0.864c0.478,0,0.865,0.388,0.865,0.864
				C22.031,20.308,21.643,20.696,21.165,20.696z M21.165,19.467c-0.201,0-0.364,0.164-0.364,0.364c0,0.201,0.163,0.365,0.364,0.365
				c0.201,0,0.365-0.164,0.365-0.365C21.531,19.63,21.366,19.467,21.165,19.467z"/>
			<path d="M21.165,24.314c-0.477,0-0.864-0.388-0.864-0.864c0-0.477,0.388-0.864,0.864-0.864c0.478,0,0.865,0.388,0.865,0.864
				C22.031,23.928,21.643,24.314,21.165,24.314z M21.165,23.086c-0.201,0-0.364,0.164-0.364,0.364c0,0.201,0.163,0.365,0.364,0.365
				c0.201,0,0.365-0.164,0.365-0.365C21.531,23.25,21.366,23.086,21.165,23.086z"/>
			<path d="M21.165,27.936c-0.477,0-0.864-0.389-0.864-0.865c0-0.478,0.388-0.865,0.864-0.865c0.478,0,0.865,0.388,0.865,0.865
				C22.03,27.547,21.643,27.936,21.165,27.936z M21.165,26.706c-0.201,0-0.364,0.164-0.364,0.364c0,0.201,0.163,0.365,0.364,0.365
				c0.201,0,0.365-0.164,0.365-0.365C21.53,26.87,21.366,26.706,21.165,26.706z"/>
			<path d="M21.165,31.555c-0.477,0-0.864-0.388-0.864-0.865c0-0.477,0.388-0.864,0.864-0.864c0.478,0,0.865,0.388,0.865,0.864
				C22.03,31.167,21.643,31.555,21.165,31.555z M21.165,30.325c-0.201,0-0.364,0.164-0.364,0.364c0,0.201,0.163,0.365,0.364,0.365
				c0.201,0,0.365-0.164,0.365-0.365C21.53,30.489,21.366,30.325,21.165,30.325z"/>
			<path d="M21.165,35.174c-0.477,0-0.864-0.388-0.864-0.865c0-0.477,0.388-0.865,0.864-0.865c0.478,0,0.865,0.389,0.865,0.865
				C22.03,34.786,21.643,35.174,21.165,35.174z M21.165,33.943c-0.201,0-0.364,0.164-0.364,0.365s0.163,0.365,0.364,0.365
				c0.201,0,0.365-0.164,0.365-0.365S21.366,33.943,21.165,33.943z"/>
			<path d="M21.165,38.793c-0.477,0-0.864-0.388-0.864-0.865c0-0.477,0.388-0.865,0.864-0.865c0.478,0,0.865,0.389,0.865,0.865
				C22.03,38.405,21.643,38.793,21.165,38.793z M21.165,37.564c-0.201,0-0.364,0.164-0.364,0.365c0,0.2,0.163,0.364,0.364,0.364
				c0.201,0,0.365-0.164,0.365-0.364C21.53,37.729,21.366,37.564,21.165,37.564z"/>
			<path d="M21.165,42.413c-0.477,0-0.864-0.388-0.864-0.865s0.388-0.864,0.864-0.864c0.478,0,0.865,0.387,0.865,0.864
				S21.643,42.413,21.165,42.413z M21.165,41.184c-0.201,0-0.364,0.164-0.364,0.365s0.163,0.365,0.364,0.365
				c0.201,0,0.365-0.164,0.365-0.365S21.366,41.184,21.165,41.184z"/>
			<path d="M21.165,46.032c-0.477,0-0.864-0.388-0.864-0.865s0.388-0.865,0.864-0.865c0.478,0,0.865,0.388,0.865,0.865
				S21.643,46.032,21.165,46.032z M21.165,44.803c-0.201,0-0.364,0.164-0.364,0.365s0.163,0.365,0.364,0.365
				c0.201,0,0.365-0.164,0.365-0.365S21.366,44.803,21.165,44.803z"/>
		</g>
		<g>
			<path d="M26.743,13.457c-0.478,0-0.864-0.388-0.864-0.865c0-0.477,0.388-0.864,0.864-0.864c0.478,0,0.864,0.388,0.864,0.864
				C27.608,13.069,27.22,13.457,26.743,13.457z M26.743,12.228c-0.201,0-0.364,0.164-0.364,0.364c0,0.201,0.163,0.365,0.364,0.365
				s0.364-0.164,0.364-0.365C27.108,12.392,26.945,12.228,26.743,12.228z"/>
			<path d="M26.743,17.077c-0.478,0-0.864-0.388-0.864-0.865s0.388-0.865,0.864-0.865c0.478,0,0.864,0.388,0.864,0.865
				S27.22,17.077,26.743,17.077z M26.743,15.847c-0.201,0-0.364,0.164-0.364,0.365s0.163,0.365,0.364,0.365s0.364-0.164,0.364-0.365
				S26.945,15.847,26.743,15.847z"/>
			<path d="M26.743,20.696c-0.478,0-0.864-0.388-0.864-0.865s0.388-0.864,0.864-0.864c0.478,0,0.864,0.388,0.864,0.864
				C27.608,20.308,27.22,20.696,26.743,20.696z M26.743,19.467c-0.201,0-0.364,0.164-0.364,0.364c0,0.201,0.163,0.365,0.364,0.365
				s0.364-0.164,0.364-0.365C27.108,19.63,26.945,19.467,26.743,19.467z"/>
			<path d="M26.743,24.314c-0.478,0-0.864-0.388-0.864-0.864c0-0.477,0.388-0.864,0.864-0.864c0.478,0,0.864,0.388,0.864,0.864
				C27.608,23.928,27.22,24.314,26.743,24.314z M26.743,23.086c-0.201,0-0.364,0.164-0.364,0.364c0,0.201,0.163,0.365,0.364,0.365
				s0.364-0.164,0.364-0.365C27.108,23.25,26.945,23.086,26.743,23.086z"/>
			<path d="M26.743,27.936c-0.478,0-0.864-0.389-0.864-0.865c0-0.478,0.388-0.865,0.864-0.865c0.478,0,0.864,0.388,0.864,0.865
				C27.607,27.547,27.22,27.936,26.743,27.936z M26.743,26.706c-0.201,0-0.364,0.164-0.364,0.364c0,0.201,0.163,0.365,0.364,0.365
				s0.364-0.164,0.364-0.365C27.107,26.87,26.945,26.706,26.743,26.706z"/>
			<path d="M26.743,31.555c-0.478,0-0.864-0.388-0.864-0.865c0-0.477,0.388-0.864,0.864-0.864c0.478,0,0.864,0.388,0.864,0.864
				C27.607,31.167,27.22,31.555,26.743,31.555z M26.743,30.325c-0.201,0-0.364,0.164-0.364,0.364c0,0.201,0.163,0.365,0.364,0.365
				s0.364-0.164,0.364-0.365C27.107,30.489,26.945,30.325,26.743,30.325z"/>
			<path d="M26.743,35.174c-0.478,0-0.864-0.388-0.864-0.865c0-0.477,0.388-0.865,0.864-0.865c0.478,0,0.864,0.389,0.864,0.865
				C27.607,34.786,27.22,35.174,26.743,35.174z M26.743,33.943c-0.201,0-0.364,0.164-0.364,0.365s0.163,0.365,0.364,0.365
				s0.364-0.164,0.364-0.365S26.945,33.943,26.743,33.943z"/>
			<path d="M26.743,38.793c-0.478,0-0.864-0.388-0.864-0.865c0-0.477,0.388-0.865,0.864-0.865c0.478,0,0.864,0.389,0.864,0.865
				C27.607,38.405,27.22,38.793,26.743,38.793z M26.743,37.564c-0.201,0-0.364,0.164-0.364,0.365c0,0.2,0.163,0.364,0.364,0.364
				s0.364-0.164,0.364-0.364C27.107,37.729,26.945,37.564,26.743,37.564z"/>
			<path d="M26.743,42.413c-0.478,0-0.864-0.388-0.864-0.865s0.388-0.864,0.864-0.864c0.478,0,0.864,0.387,0.864,0.864
				S27.22,42.413,26.743,42.413z M26.743,41.184c-0.201,0-0.364,0.164-0.364,0.365s0.163,0.365,0.364,0.365s0.364-0.164,0.364-0.365
				S26.945,41.184,26.743,41.184z"/>
			<path d="M26.743,46.032c-0.478,0-0.864-0.388-0.864-0.865s0.388-0.865,0.864-0.865c0.478,0,0.864,0.388,0.864,0.865
				S27.22,46.032,26.743,46.032z M26.743,44.803c-0.201,0-0.364,0.164-0.364,0.365s0.163,0.365,0.364,0.365s0.364-0.164,0.364-0.365
				S26.945,44.803,26.743,44.803z"/>
		</g>
		<g>
			<g>
				<circle cx="32.487" cy="20.171" r="0.526"/>
				<circle cx="34.427" cy="18.758" r="0.525"/>
				<circle cx="30.182" cy="16.575" r="0.525"/>
				<circle cx="37.094" cy="21.385" r="0.525"/>
			</g>
			<g>
				<circle cx="16.445" cy="37.473" r="0.525"/>
				<circle cx="17.815" cy="41.795" r="0.525"/>
				<circle cx="11.027" cy="36.905" r="0.525"/>
				<circle cx="14.058" cy="39.571" r="0.525"/>
			</g>
			<g>
				<circle cx="34.023" cy="30.519" r="0.524"/>
				<circle cx="33.403" cy="35.136" r="0.525"/>
				<circle cx="32.13" cy="31.826" r="0.525"/>
				<circle cx="36.247" cy="34.965" r="0.525"/>
				<circle cx="34.306" cy="39.612" r="0.525"/>
				<circle cx="32.128" cy="38.049" r="0.524"/>
			</g>
			<g>
				<circle cx="14.786" cy="17.301" r="0.525"/>
				<circle cx="11.231" cy="21.71" r="0.525"/>
				<circle cx="13.029" cy="26.93" r="0.525"/>
				<circle cx="17.597" cy="29.349" r="0.525"/>
				<circle cx="15.178" cy="24.766" r="0.525"/>
				<circle cx="14.812" cy="21.837" r="0.525"/>
				<circle cx="16.578" cy="19.418" r="0.525"/>
			</g>
		</g>
		<g>
			<path d="M16.234,41.227c-0.488,0-0.885-0.396-0.885-0.884c0-0.487,0.396-0.884,0.885-0.884c0.486,0,0.883,0.396,0.883,0.884
				C17.117,40.831,16.72,41.227,16.234,41.227z M16.234,39.959c-0.212,0-0.385,0.172-0.385,0.384s0.173,0.384,0.385,0.384
				c0.211,0,0.383-0.172,0.383-0.384S16.445,39.959,16.234,39.959z"/>
			<path d="M31.484,41.852c-0.488,0-0.885-0.396-0.885-0.884c0-0.487,0.396-0.883,0.885-0.883c0.486,0,0.883,0.396,0.883,0.883
				C32.366,41.455,31.97,41.852,31.484,41.852z M31.484,40.585c-0.212,0-0.385,0.172-0.385,0.383c0,0.212,0.173,0.384,0.385,0.384
				c0.211,0,0.383-0.172,0.383-0.384C31.866,40.757,31.695,40.585,31.484,40.585z"/>
			<path d="M34.904,21.684c-0.478,0-0.865-0.388-0.865-0.865s0.389-0.864,0.865-0.864c0.478,0,0.864,0.388,0.864,0.864
				C35.768,21.296,35.38,21.684,34.904,21.684z M34.904,20.455c-0.201,0-0.365,0.164-0.365,0.364c0,0.201,0.164,0.365,0.365,0.365
				s0.364-0.164,0.364-0.365C35.268,20.619,35.105,20.455,34.904,20.455z"/>
			<path d="M12.48,24.949c-0.476,0-0.863-0.389-0.863-0.865c0-0.477,0.388-0.864,0.863-0.864c0.478,0,0.866,0.388,0.866,0.864
				C13.346,24.562,12.957,24.949,12.48,24.949z M12.48,23.72c-0.2,0-0.363,0.164-0.363,0.364c0,0.201,0.163,0.365,0.363,0.365
				c0.202,0,0.366-0.164,0.366-0.365C12.846,23.884,12.682,23.72,12.48,23.72z"/>
			<path d="M13.449,38.287c-0.476,0-0.863-0.389-0.863-0.865s0.388-0.865,0.863-0.865c0.478,0,0.866,0.389,0.866,0.865
				S13.927,38.287,13.449,38.287z M13.449,37.057c-0.2,0-0.363,0.164-0.363,0.365s0.163,0.365,0.363,0.365
				c0.202,0,0.366-0.164,0.366-0.365S13.652,37.057,13.449,37.057z"/>
			<path d="M15.875,27.98c-0.477,0-0.864-0.389-0.864-0.865s0.388-0.865,0.864-0.865c0.478,0,0.865,0.389,0.865,0.865
				S16.353,27.98,15.875,27.98z M15.875,26.751c-0.201,0-0.364,0.164-0.364,0.365c0,0.2,0.163,0.364,0.364,0.364
				c0.201,0,0.365-0.164,0.365-0.364C16.24,26.915,16.076,26.751,15.875,26.751z"/>
			<path d="M34.661,33.688c-0.478,0-0.865-0.388-0.865-0.864c0-0.478,0.389-0.865,0.865-0.865s0.863,0.388,0.863,0.865
				C35.524,33.3,35.137,33.688,34.661,33.688z M34.661,32.458c-0.201,0-0.365,0.164-0.365,0.365c0,0.2,0.164,0.364,0.365,0.364
				c0.2,0,0.363-0.164,0.363-0.364C35.024,32.622,34.862,32.458,34.661,32.458z"/>
			<path d="M34.79,38.174c-0.477,0-0.863-0.388-0.863-0.865c0-0.477,0.388-0.865,0.863-0.865c0.479,0,0.865,0.389,0.865,0.865
				C35.655,37.786,35.268,38.174,34.79,38.174z M34.79,36.943c-0.2,0-0.363,0.164-0.363,0.365s0.163,0.365,0.363,0.365
				c0.201,0,0.365-0.164,0.365-0.365S34.991,36.943,34.79,36.943z"/>
			<path d="M13.564,20.593c-0.478,0-0.866-0.388-0.866-0.865s0.389-0.864,0.866-0.864c0.476,0,0.863,0.388,0.863,0.864
				C14.427,20.205,14.039,20.593,13.564,20.593z M13.564,19.364c-0.202,0-0.366,0.164-0.366,0.364c0,0.201,0.164,0.365,0.366,0.365
				c0.2,0,0.363-0.164,0.363-0.365S13.764,19.364,13.564,19.364z"/>
			<path d="M32.001,19.138c-0.478,0-0.864-0.388-0.864-0.865s0.388-0.864,0.864-0.864c0.478,0,0.864,0.388,0.864,0.864
				C32.866,18.75,32.479,19.138,32.001,19.138z M32.001,17.909c-0.201,0-0.364,0.164-0.364,0.364c0,0.201,0.163,0.365,0.364,0.365
				c0.2,0,0.364-0.164,0.364-0.365C32.366,18.072,32.202,17.909,32.001,17.909z"/>
			<path d="M31.113,30.3c-0.476,0-0.863-0.388-0.863-0.864s0.389-0.865,0.863-0.865c0.479,0,0.866,0.389,0.866,0.865
				C31.979,29.913,31.59,30.3,31.113,30.3z M31.113,29.072c-0.2,0-0.363,0.162-0.363,0.363s0.163,0.365,0.363,0.365
				c0.202,0,0.366-0.164,0.366-0.365S31.315,29.072,31.113,29.072z"/>
			<path d="M17.714,18.402c-0.477,0-0.864-0.388-0.864-0.865s0.388-0.865,0.864-0.865c0.478,0,0.865,0.388,0.865,0.865
				S18.192,18.402,17.714,18.402z M17.714,17.173c-0.201,0-0.364,0.164-0.364,0.365s0.163,0.365,0.364,0.365
				c0.201,0,0.365-0.164,0.365-0.365S17.915,17.173,17.714,17.173z"/>
		</g>
	</g>
	<g>
	</g>
	<g>
	</g>
	<g>
	</g>
	<g>
	</g>
	<g>
	</g>
	<g>
	</g>
	<g>
	</g>
	<g>
	</g>
	<g>
	</g>
	<g>
	</g>
	<g>
	</g>
	<g>
	</g>
	<g>
	</g>
	<g>
	</g>
	<g>
	</g>
</g>
<g>
</g>
<g>
</g>
<g>
</g>
<g>
</g>
<g>
</g>
<g>
</g>
<g>
</g>
<g>
</g>
<g>
</g>
<g>
</g>
<g>
</g>
<g>
</g>
<g>
</g>
<g>
</g>
<g>
</g>
</svg>
