<?xml version="1.0" encoding="iso-8859-1"?>
<!-- Generator: Adobe Illustrator 16.0.0, SVG Export Plug-In . SVG Version: 6.00 Build 0)  -->
<!DOCTYPE svg PUBLIC "-//W3C//DTD SVG 1.1//EN" "http://www.w3.org/Graphics/SVG/1.1/DTD/svg11.dtd">
<svg version="1.1" id="Capa_1" xmlns="http://www.w3.org/2000/svg" xmlns:xlink="http://www.w3.org/1999/xlink" x="0px" y="0px"
	 width="47.98px" height="47.98px" viewBox="0 0 47.98 47.98" style="enable-background:new 0 0 47.98 47.98;" xml:space="preserve"
	>
<g>
	<g id="iPhone_w_x2F__Reciever">
		<path d="M8.065,39.803c-0.553,0-1-0.447-1-1v-1.5c0-0.552,0.447-1,1-1s1,0.448,1,1v1.5C9.065,39.355,8.619,39.803,8.065,39.803z"
			/>
		<path d="M44.565,42.511c-0.553,0-1-0.448-1-1v-1.5c0-0.552,0.447-1,1-1s1,0.448,1,1v1.5
			C45.565,42.062,45.118,42.511,44.565,42.511z"/>
		<path d="M14.587,47.98c-1.818,0-3.329-0.603-4.489-1.787c-2.563-2.619-2.495-7.147-2.491-7.338c0.006-0.272,0.229-0.489,0.5-0.489
			c0.003,0,0.007,0,0.011,0c0.275,0.005,0.495,0.233,0.489,0.51c-0.001,0.043-0.061,4.306,2.208,6.621
			c0.966,0.983,2.234,1.483,3.772,1.483c1.716,0,3.064-0.498,4.008-1.482c1.338-1.395,1.944-3.822,1.803-7.214
			c-0.049-1.197-0.345-2.901-0.658-4.706c-0.857-4.943-1.925-11.095,0.542-14.026c0.93-1.104,2.286-1.665,4.033-1.665
			c2.781,0,4.82,1.684,5.456,4.505c0.651,2.894-0.42,5.817-2.491,6.801c-0.249,0.115-0.548,0.012-0.667-0.237
			c-0.118-0.25-0.012-0.548,0.237-0.666c1.634-0.774,2.486-3.269,1.945-5.678c-0.252-1.12-1.194-3.725-4.48-3.725
			c-1.458,0-2.527,0.428-3.268,1.309c-2.167,2.575-1.145,8.473-0.322,13.211c0.333,1.917,0.62,3.573,0.673,4.835
			c0.153,3.675-0.547,6.349-2.081,7.947C18.178,47.378,16.586,47.98,14.587,47.98z"/>
		<path d="M39.388,42.793L39.388,42.793c-2.61,0-4.682-2.07-5.541-5.536c-0.928-3.751,1.021-5.812,3.876-8.312
			c0.01-0.008,0.918-0.904-1.748-7.237c-1.493-3.547-3.356-6.97-3.833-7.578l-0.234-0.303c-0.537-0.702-0.712-0.88-1.049-0.88
			c-0.382,0-0.979,0.215-1.827,0.658c-0.729,0.381-1.483,0.575-2.237,0.575c-2.037,0-4.021-1.284-6.63-4.293
			c-1.117-1.287-1.629-2.563-1.522-3.795c0.102-1.169,0.729-1.921,1.03-2.218C20.788,1.409,23.221,0,26.378,0
			c0.865,0,1.761,0.106,2.66,0.314c5.211,1.21,11.032,11.625,13.65,17.588c1.904,4.338,5.1,12.314,5.102,16.995
			c0,4.107-4.427,7.674-8.093,7.888C39.593,42.791,39.49,42.793,39.388,42.793z M30.858,11.448c1.114,0,1.66,0.712,2.239,1.467
			l0.224,0.29c0.479,0.611,8.283,14.337,5.391,16.871c-3.092,2.707-4.07,4.145-3.408,6.822c0.326,1.321,1.382,4.396,4.084,4.396
			c0,0,0,0,0.002,0c0.072,0,0.146-0.002,0.22-0.006c2.946-0.172,6.683-3.214,6.681-6.391c-0.002-3.217-1.813-9.192-4.974-16.392
			c-2.713-6.177-8.312-15.729-12.618-16.73C27.911,1.593,27.13,1.5,26.378,1.5c-1.521,0-4.245,0.404-5.393,3.111
			c-0.048,0.113-0.122,0.212-0.217,0.29c-0.018,0.015-0.571,0.496-0.635,1.346c-0.061,0.805,0.33,1.699,1.162,2.657
			c3.03,3.494,4.979,4.45,7.042,3.372C29.434,11.703,30.212,11.448,30.858,11.448z"/>
		<path d="M30.768,9.582c-0.218,0-0.416-0.141-0.479-0.359c-1.562-5.318-5.271-6.399-6.371-6.604
			c-1.124-0.209-1.885,0.001-2.044,0.21c-0.169,0.219-0.481,0.26-0.701,0.093c-0.22-0.168-0.261-0.482-0.094-0.701
			c0.476-0.618,1.631-0.843,3.022-0.585c1.24,0.231,5.425,1.44,7.146,7.305c0.077,0.265-0.074,0.542-0.34,0.621
			C30.861,9.575,30.814,9.582,30.768,9.582z"/>
		<path d="M41.292,42.217c-0.211,0-0.408-0.136-0.477-0.349c-0.084-0.263,0.062-0.544,0.325-0.628
			c2.305-0.733,2.43-3.198,2.377-4.225c-0.132-2.527-1.556-4.937-3.11-5.259c-0.271-0.056-0.443-0.321-0.388-0.591
			c0.056-0.271,0.323-0.441,0.591-0.389c2.238,0.465,3.771,3.574,3.906,6.188c0.136,2.619-1.014,4.574-3.073,5.229
			C41.394,42.21,41.341,42.217,41.292,42.217z"/>
		<path d="M42.057,28.564c-0.224,0-0.427-0.148-0.484-0.373c-3.401-13.087-7.815-17.41-7.86-17.452
			c-0.199-0.19-0.207-0.507-0.018-0.707c0.191-0.199,0.508-0.207,0.707-0.017c0.189,0.18,4.667,4.564,8.141,17.924
			c0.068,0.268-0.093,0.541-0.358,0.609C42.141,28.561,42.098,28.564,42.057,28.564z"/>
		<path d="M27.372,11.955c-1.101,0-2.604-0.789-3.92-2.059c-1.916-1.847-2.725-4.013-1.84-4.933c0.252-0.262,0.624-0.4,1.075-0.4
			c1.101,0,2.604,0.789,3.919,2.059c1.339,1.288,2.185,2.776,2.204,3.883c0.009,0.433-0.117,0.795-0.362,1.049
			C28.195,11.816,27.823,11.955,27.372,11.955z M22.687,5.063c-0.316,0-0.558,0.083-0.716,0.247
			c-0.594,0.618-0.002,2.463,1.828,4.226c1.208,1.166,2.611,1.919,3.574,1.919c0.315,0,0.557-0.083,0.715-0.248
			c0.153-0.159,0.229-0.392,0.224-0.693c-0.019-0.964-0.823-2.351-2.052-3.532C25.05,5.816,23.647,5.063,22.687,5.063z"/>
		<path d="M39.359,40.708c-1.136,0-2.418-1.392-3.049-3.308c-0.729-2.217-0.347-4.271,0.872-4.672
			c0.135-0.045,0.277-0.067,0.423-0.067c1.136,0,2.419,1.392,3.05,3.31c0.729,2.219,0.348,4.27-0.871,4.67
			C39.648,40.686,39.505,40.708,39.359,40.708z M37.605,33.161c-0.093,0-0.183,0.014-0.267,0.042
			c-0.922,0.304-1.174,2.154-0.555,4.042c0.613,1.86,1.926,3.224,2.844,2.921c0.92-0.303,1.172-2.152,0.553-4.038
			C39.624,34.438,38.517,33.161,37.605,33.161z"/>
		<g>
			<circle cx="23.219" cy="6.558" r="0.45"/>
			<circle cx="27.016" cy="10.259" r="0.449"/>
			<circle cx="25.607" cy="7.85" r="0.449"/>
			<circle cx="26.524" cy="8.94" r="0.449"/>
			<circle cx="24.563" cy="6.998" r="0.45"/>
			<circle cx="25.679" cy="9.766" r="0.449"/>
			<circle cx="23.621" cy="7.93" r="0.449"/>
			<circle cx="24.533" cy="9.001" r="0.449"/>
		</g>
		<g>
			<circle cx="37.677" cy="34.114" r="0.45"/>
			<path d="M39.579,39.329c-0.068,0.239-0.315,0.379-0.554,0.312c-0.239-0.068-0.378-0.316-0.312-0.554
				c0.064-0.239,0.315-0.381,0.555-0.313C39.507,38.842,39.646,39.09,39.579,39.329z"/>
			<path d="M39.544,36.54c-0.064,0.24-0.312,0.379-0.554,0.312c-0.237-0.069-0.378-0.317-0.31-0.557
				c0.066-0.238,0.314-0.379,0.555-0.311C39.475,36.051,39.613,36.299,39.544,36.54z"/>
			<circle cx="39.372" cy="37.818" r="0.449"/>
			<circle cx="38.628" cy="35.16" r="0.449"/>
			<circle cx="38.229" cy="38.119" r="0.45"/>
			<circle cx="37.348" cy="35.504" r="0.449"/>
			<path d="M38.044,37.008c-0.066,0.238-0.314,0.377-0.556,0.311c-0.237-0.065-0.377-0.313-0.31-0.557
				c0.066-0.236,0.314-0.375,0.554-0.309C37.974,36.52,38.11,36.771,38.044,37.008z"/>
		</g>
		<path d="M12.829,37.2H3.386c-1.762,0-3.196-1.47-3.196-3.276V13.6c0-1.806,1.434-3.276,3.196-3.276h9.441
			c1.762,0,3.195,1.47,3.195,3.276v20.325C16.023,35.73,14.589,37.2,12.829,37.2z M3.386,11.824c-0.936,0-1.696,0.797-1.696,1.776
			v20.325c0,0.979,0.761,1.775,1.696,1.775h9.441c0.935,0,1.695-0.796,1.695-1.775V13.6c0-0.979-0.761-1.776-1.695-1.776H3.386z"/>
		<path d="M12.523,32.59H3.607c-0.701,0-1.271-0.625-1.271-1.392v-15.04c0-0.768,0.57-1.393,1.271-1.393h8.916
			c0.701,0,1.271,0.625,1.271,1.393v15.04C13.794,31.966,13.225,32.59,12.523,32.59z M3.607,15.266c-0.426,0-0.771,0.4-0.771,0.893
			v15.04c0,0.492,0.346,0.892,0.771,0.892h8.916c0.426,0,0.771-0.399,0.771-0.892v-15.04c0-0.493-0.346-0.893-0.771-0.893H3.607z"/>
		<circle cx="8.056" cy="34.292" r="0.875"/>
		<circle cx="6.378" cy="13.365" r="0.437"/>
		<path d="M10.189,13.595h-2.5c-0.138,0-0.25-0.112-0.25-0.25c0-0.138,0.112-0.25,0.25-0.25h2.5c0.138,0,0.25,0.112,0.25,0.25
			C10.439,13.483,10.328,13.595,10.189,13.595z"/>
		<path d="M5.708,24.216c-0.064,0-0.128-0.024-0.177-0.073c-0.098-0.098-0.098-0.255,0-0.354l5.067-5.066
			c0.098-0.098,0.256-0.098,0.354,0c0.098,0.098,0.098,0.256,0,0.354l-5.067,5.065C5.836,24.191,5.772,24.216,5.708,24.216z"/>
		<path d="M5.708,27.215c-0.064,0-0.128-0.023-0.177-0.072c-0.098-0.099-0.098-0.257,0-0.354l5.067-5.066
			c0.099-0.099,0.257-0.097,0.354,0c0.098,0.098,0.098,0.256,0,0.354l-5.067,5.066C5.836,27.191,5.772,27.215,5.708,27.215z"/>
		<path d="M24.982,29.762c-1.345,0-2.791-0.457-2.791-1.459s1.446-1.458,2.791-1.458c1.345,0,2.792,0.456,2.792,1.458
			C27.774,29.307,26.327,29.762,24.982,29.762z M24.982,27.845c-1.107,0-1.733,0.347-1.796,0.485
			c0.062,0.085,0.688,0.432,1.796,0.432c1.108,0,1.733-0.347,1.796-0.484C26.716,28.191,26.089,27.845,24.982,27.845z"/>
		<path d="M24.982,32.011c-1.345,0-2.791-0.456-2.791-1.459c0-1.002,1.446-1.458,2.791-1.458c1.345,0,2.792,0.456,2.792,1.458
			C27.774,31.555,26.327,32.011,24.982,32.011z M24.982,30.094c-1.107,0-1.733,0.348-1.796,0.485
			c0.062,0.085,0.688,0.432,1.796,0.432c1.108,0,1.733-0.347,1.796-0.485C26.716,30.441,26.089,30.094,24.982,30.094z"/>
		<path d="M24.821,34.384c-1.257,0-2.095-0.431-2.188-1.125C22.596,32.99,22.654,32.467,23.45,32c0.46-0.27,1.083-0.469,1.754-0.561
			c1.633-0.217,2.85,0.242,2.963,1.07c0.037,0.271-0.021,0.795-0.816,1.262c-0.461,0.27-1.084,0.469-1.754,0.56
			C25.329,34.367,25.067,34.384,24.821,34.384z M25.978,32.387c-0.203,0-0.419,0.014-0.641,0.045
			c-1.098,0.147-1.67,0.575-1.713,0.721c0.04,0.022,0.413,0.23,1.197,0.23c0.203,0,0.419-0.014,0.64-0.044
			c1.1-0.149,1.672-0.577,1.715-0.722C27.136,32.595,26.761,32.387,25.978,32.387z"/>
		<path d="M25.358,36.645c-1.257,0-2.095-0.432-2.188-1.125c-0.037-0.27,0.021-0.793,0.816-1.26c0.46-0.27,1.083-0.469,1.753-0.56
			c1.633-0.22,2.852,0.241,2.963,1.069c0.037,0.271-0.021,0.795-0.816,1.262c-0.461,0.27-1.084,0.469-1.754,0.56
			C25.865,36.627,25.604,36.645,25.358,36.645z M26.515,34.646c-0.203,0-0.42,0.015-0.641,0.045
			c-1.098,0.147-1.67,0.576-1.713,0.721c0.04,0.023,0.413,0.23,1.197,0.23c0.203,0,0.419-0.014,0.64-0.043
			c1.1-0.149,1.672-0.578,1.715-0.723C27.673,34.855,27.298,34.646,26.515,34.646z"/>
		<path d="M25.775,38.727c-1.255,0-2.094-0.43-2.188-1.123c-0.134-0.994,1.24-1.64,2.57-1.82c1.633-0.219,2.852,0.24,2.963,1.07
			c0.037,0.271-0.021,0.793-0.816,1.261c-0.461,0.27-1.084,0.469-1.754,0.56C26.282,38.71,26.021,38.727,25.775,38.727z
			 M26.932,36.73c-0.203,0-0.419,0.014-0.64,0.043c-1.1,0.148-1.672,0.578-1.715,0.723c0.039,0.021,0.412,0.23,1.197,0.23
			c0.203,0,0.419-0.014,0.641-0.043c1.099-0.149,1.672-0.578,1.715-0.723C28.089,36.938,27.716,36.73,26.932,36.73z"/>
		<path d="M26.275,40.977c-1.255,0-2.094-0.43-2.188-1.123c-0.134-0.994,1.24-1.64,2.57-1.82c1.635-0.219,2.852,0.242,2.963,1.07
			c0.037,0.271-0.021,0.793-0.816,1.261c-0.461,0.27-1.084,0.469-1.754,0.56C26.782,40.96,26.521,40.977,26.275,40.977z
			 M27.432,38.98c-0.203,0-0.419,0.014-0.64,0.043c-1.099,0.149-1.672,0.578-1.715,0.723c0.039,0.021,0.412,0.23,1.197,0.23
			c0.203,0,0.419-0.015,0.641-0.045c1.099-0.148,1.672-0.576,1.715-0.722C28.589,39.188,28.216,38.98,27.432,38.98z"/>
		<path d="M35.44,47.865c-11.117,0-11.312-7.792-11.312-7.87c-0.002-0.276,0.219-0.5,0.494-0.503
			c0.239-0.029,0.502,0.217,0.506,0.492c0.004,0.281,0.217,6.881,10.312,6.881c4.904,0,8.709-2.43,8.709-4.52
			c0-0.277,0.225-0.5,0.5-0.5s0.5,0.223,0.5,0.5C45.149,45.286,40.612,47.865,35.44,47.865z"/>
	</g>
	<g>
	</g>
	<g>
	</g>
	<g>
	</g>
	<g>
	</g>
	<g>
	</g>
	<g>
	</g>
	<g>
	</g>
	<g>
	</g>
	<g>
	</g>
	<g>
	</g>
	<g>
	</g>
	<g>
	</g>
	<g>
	</g>
	<g>
	</g>
	<g>
	</g>
</g>
<g>
</g>
<g>
</g>
<g>
</g>
<g>
</g>
<g>
</g>
<g>
</g>
<g>
</g>
<g>
</g>
<g>
</g>
<g>
</g>
<g>
</g>
<g>
</g>
<g>
</g>
<g>
</g>
<g>
</g>
</svg>
