<?xml version="1.0" encoding="iso-8859-1"?>
<!-- Generator: Adobe Illustrator 16.0.0, SVG Export Plug-In . SVG Version: 6.00 Build 0)  -->
<!DOCTYPE svg PUBLIC "-//W3C//DTD SVG 1.1//EN" "http://www.w3.org/Graphics/SVG/1.1/DTD/svg11.dtd">
<svg version="1.1" id="Capa_1" xmlns="http://www.w3.org/2000/svg" xmlns:xlink="http://www.w3.org/1999/xlink" x="0px" y="0px"
	 width="48.083px" height="48.083px" viewBox="0 0 48.083 48.083" style="enable-background:new 0 0 48.083 48.083;"
	 xml:space="preserve">
<g>
	<g id="Coffee">
		<g>
			<path d="M24.042,48.083c-7.053,0-11.808-1.981-11.874-4.937L8.798,13.508c-0.062-0.548,0.331-1.044,0.88-1.106
				c0.568-0.069,1.044,0.332,1.106,0.881L14.16,42.97c0.005,0.037,0.007,0.075,0.007,0.113c0,1.258,3.432,3,9.875,3
				c6.443,0,9.875-1.742,9.875-3c0-0.552,0.447-1,1-1s1,0.448,1,1C35.917,46.074,31.145,48.083,24.042,48.083z"/>
			<path d="M34.96,44.082c-0.038,0-0.076-0.002-0.114-0.006c-0.55-0.062-0.943-0.561-0.88-1.108l3.396-29.437
				c0.062-0.548,0.558-0.938,1.106-0.879c0.55,0.063,0.942,0.56,0.88,1.108l-3.396,29.438C35.895,43.707,35.461,44.082,34.96,44.082
				z"/>
		</g>
		<g>
			<path d="M24.042,43.125c-6.801,0-11.351-2.24-12.33-4.453c-0.224-0.505,0.004-1.096,0.51-1.318
				c0.503-0.226,1.095,0.004,1.318,0.51c0.504,1.137,4.102,3.262,10.502,3.262c7.16,0,10.316-1.752,10.43-2.482
				c0.082-0.545,0.59-0.923,1.137-0.838c0.547,0.082,0.922,0.592,0.84,1.137C36.069,41.443,31.083,43.125,24.042,43.125z"/>
			<path d="M24.12,22.031c-2.471,0-14.795-0.2-14.795-4.143c0-0.546,0.442-0.99,0.989-0.99c0.532,0,0.966,0.42,0.988,0.946
				c0.404,0.758,4.64,2.208,12.817,2.208c7.739,0,12.354-1.425,12.762-2.223c0-0.546,0.437-0.946,0.981-0.946
				c0.547,0,0.98,0.487,0.98,1.033C38.844,21.916,25.626,22.031,24.12,22.031z"/>
		</g>
		<g>
			<path d="M24.011,7.833c-5.954,0-16.031-0.825-16.031-3.917S18.057,0,24.011,0c5.954,0,16.031,0.825,16.031,3.917
				S29.964,7.833,24.011,7.833z M24.011,1.5c-9.062,0-14.278,1.583-14.533,2.433c0.256,0.817,5.472,2.4,14.533,2.4
				c9.06,0,14.277-1.583,14.533-2.433C38.288,3.083,33.071,1.5,24.011,1.5z"/>
			<path d="M12.883,6.816c-0.414,0-0.748-0.351-0.748-0.765c0-3.063,9.909-3.219,11.896-3.219c2.798,0,11.927,0.23,11.927,3.188
				c0,0.414-0.336,0.75-0.75,0.75c-0.407,0-0.737-0.324-0.75-0.729c-0.276-0.584-3.685-1.709-10.427-1.709
				c-6.771,0-10.163,1.158-10.4,1.749C13.63,6.496,13.297,6.816,12.883,6.816z"/>
			<path d="M23.947,15.583c-7.884,0-17.406-1.706-17.406-3.823V8.979c0-0.414,0.336-0.75,0.75-0.75s0.75,0.336,0.75,0.75v2.573
				c0.986,0.729,7.293,2.531,15.906,2.531c8.698,0,15.084-1.804,16.094-2.536V8.979c0-0.414,0.336-0.75,0.75-0.75
				s0.75,0.336,0.75,0.75v2.781C41.542,13.978,31.033,15.583,23.947,15.583z"/>
			<path d="M24.042,12.833c-6.733,0-16.75-1.083-16.75-4.069c0-0.035,0.003-0.07,0.008-0.105l0.688-4.847
				c0.058-0.41,0.432-0.695,0.848-0.637c0.41,0.058,0.695,0.438,0.637,0.848L8.797,8.777c0.386,0.853,6.065,2.556,15.244,2.556
				c9.124,0,14.79-1.683,15.241-2.575l-0.671-4.736c-0.059-0.41,0.227-0.79,0.637-0.848c0.413-0.059,0.79,0.227,0.848,0.637
				l0.688,4.847c0.005,0.035,0.008,0.07,0.008,0.105C40.792,11.75,30.774,12.833,24.042,12.833z"/>
		</g>
		<path d="M20.606,40.312c-0.132,0-0.265-0.035-0.385-0.106c-0.308-0.185-0.442-0.56-0.321-0.896l2.307-6.453h-3.501
			c-0.305,0-0.579-0.186-0.694-0.467c-0.115-0.283-0.048-0.606,0.17-0.82l8.821-8.616c0.253-0.247,0.644-0.284,0.938-0.088
			c0.295,0.195,0.412,0.57,0.283,0.899l-2.127,5.413h3.193c0.296,0,0.564,0.174,0.686,0.445s0.07,0.587-0.129,0.807l-8.686,9.635
			C21.018,40.227,20.812,40.312,20.606,40.312z M20.547,31.357h2.725c0.244,0,0.473,0.119,0.613,0.317
			c0.141,0.2,0.175,0.455,0.093,0.685l-1.388,3.883l5.018-5.564h-2.609c-0.248,0-0.48-0.123-0.62-0.328s-0.169-0.466-0.078-0.697
			l1.251-3.183L20.547,31.357z"/>
	</g>
	<g>
	</g>
	<g>
	</g>
	<g>
	</g>
	<g>
	</g>
	<g>
	</g>
	<g>
	</g>
	<g>
	</g>
	<g>
	</g>
	<g>
	</g>
	<g>
	</g>
	<g>
	</g>
	<g>
	</g>
	<g>
	</g>
	<g>
	</g>
	<g>
	</g>
</g>
<g>
</g>
<g>
</g>
<g>
</g>
<g>
</g>
<g>
</g>
<g>
</g>
<g>
</g>
<g>
</g>
<g>
</g>
<g>
</g>
<g>
</g>
<g>
</g>
<g>
</g>
<g>
</g>
<g>
</g>
</svg>
