<?xml version="1.0" encoding="iso-8859-1"?>
<!-- Generator: Adobe Illustrator 16.0.0, SVG Export Plug-In . SVG Version: 6.00 Build 0)  -->
<!DOCTYPE svg PUBLIC "-//W3C//DTD SVG 1.1//EN" "http://www.w3.org/Graphics/SVG/1.1/DTD/svg11.dtd">
<svg version="1.1" id="Capa_1" xmlns="http://www.w3.org/2000/svg" xmlns:xlink="http://www.w3.org/1999/xlink" x="0px" y="0px"
	 width="43.027px" height="43.027px" viewBox="0 0 43.027 43.027" style="enable-background:new 0 0 43.027 43.027;"
	 xml:space="preserve">
<g>
	<g id="Decrease_Volume">
		<path d="M39.861,25.232c-0.262,0-0.52-0.14-0.654-0.386c-0.201-0.362-0.07-0.817,0.292-1.021c1.251-0.695,2.028-2.017,2.03-3.446
			c-0.002-1.424-0.773-2.74-2.018-3.437c-0.361-0.202-0.492-0.659-0.289-1.021c0.202-0.359,0.659-0.489,1.021-0.288
			c1.716,0.959,2.782,2.778,2.784,4.745c-0.002,1.977-1.075,3.799-2.803,4.758C40.109,25.203,39.984,25.232,39.861,25.232z"/>
		<path d="M31.007,33.433c-3.896,0-5.995-6.967-5.995-13.521s2.102-13.517,5.995-13.517c3.896,0,5.997,6.965,5.997,13.519
			C37.004,26.468,34.902,33.433,31.007,33.433z M31.007,8.395c-1.668,0-3.995,4.382-3.995,11.519c0,7.137,2.327,11.521,3.995,11.521
			c1.669,0,3.997-4.384,3.997-11.521C35.004,12.777,32.676,8.395,31.007,8.395z"/>
		<path d="M31.014,33.433c-1.675,0.001-28.385-7.956-28.634-8.037C1.044,24.957,0,22.531,0,19.872c0-2.464,0.845-5.159,2.456-5.544
			c0.187-0.046,1.736-0.505,3.699-1.085C26.32,7.278,30.407,6.249,31.195,6.414c0.543,0.104,0.896,0.629,0.793,1.171
			c-0.098,0.509-0.561,0.855-1.069,0.808c-1.666,0.104-18.019,4.941-24.195,6.77c-2.561,0.756-3.606,1.064-3.806,1.112
			C2.692,16.425,2,17.713,2,19.872c0,2.059,0.767,3.447,1.07,3.654c1.42,0.451,26.325,7.771,27.963,7.908
			c0.529,0.044,0.963,0.499,0.943,1.031c-0.019,0.533-0.422,0.959-0.955,0.968C31.02,33.433,31.018,33.433,31.014,33.433z"/>
		<path d="M12.682,36.633c-0.788,0-1.583-0.123-2.362-0.373c-4.188-1.342-6.659-5.965-5.512-10.305
			c0.142-0.532,0.688-0.853,1.222-0.711c0.534,0.144,0.854,0.688,0.712,1.224c-0.881,3.328,1,6.864,4.188,7.889
			c1.489,0.478,3.054,0.333,4.4-0.405c1.403-0.771,2.413-2.088,2.839-3.709c0.141-0.535,0.686-0.854,1.223-0.713
			c0.533,0.142,0.854,0.688,0.713,1.221c-0.567,2.158-1.921,3.918-3.812,4.955C15.168,36.32,13.934,36.633,12.682,36.633z"/>
		<path d="M12.708,33.285c-0.488,0-0.981-0.076-1.467-0.229c-2.604-0.833-4.143-3.709-3.428-6.41c0.07-0.268,0.346-0.428,0.61-0.354
			c0.268,0.07,0.427,0.345,0.354,0.611c-0.58,2.194,0.66,4.527,2.767,5.2c0.989,0.317,2.024,0.224,2.918-0.271
			c0.931-0.51,1.599-1.381,1.88-2.453c0.071-0.27,0.347-0.43,0.611-0.355c0.268,0.068,0.426,0.344,0.355,0.609
			c-0.354,1.343-1.192,2.436-2.366,3.076C14.248,33.092,13.483,33.285,12.708,33.285z"/>
		<path d="M8.62,27.195c-0.104,0-0.208-0.018-0.312-0.051c-1.675-0.543-3.038-3.806-3.038-7.271c0-3.739,1.34-6.874,3.118-7.292
			c0.536-0.125,1.074,0.208,1.201,0.746c0.126,0.536-0.206,1.073-0.741,1.201c-0.436,0.147-1.578,2.012-1.578,5.345
			c0,3.146,1.213,5.146,1.675,5.376c0.525,0.17,0.804,0.729,0.634,1.256C9.44,26.928,9.043,27.195,8.62,27.195z"/>
		<g>
			<path d="M31.382,23.438c-1.043,0-1.589-1.521-1.589-3.027c0-1.504,0.546-3.026,1.589-3.026c1.044,0,1.593,1.522,1.593,3.026
				C32.973,21.916,32.426,23.438,31.382,23.438z M31.379,18.384c-0.171,0.04-0.586,0.777-0.586,2.026
				c0,1.239,0.41,1.978,0.589,2.026c0.181-0.047,0.591-0.781,0.591-2.026C31.973,19.083,31.521,18.415,31.379,18.384z"/>
			<path d="M31.412,18.349c-0.066,0-0.139-0.015-0.204-0.044l-5.063-2.268c-0.252-0.112-0.365-0.408-0.252-0.66
				c0.112-0.251,0.406-0.368,0.662-0.252l5.062,2.268c0.252,0.111,0.363,0.407,0.252,0.66
				C31.785,18.239,31.604,18.349,31.412,18.349z"/>
			<path d="M26.348,25.74c-0.189,0-0.373-0.109-0.457-0.295c-0.113-0.252,0-0.549,0.252-0.66l5.063-2.268
				c0.253-0.115,0.548,0.001,0.661,0.252c0.111,0.252,0,0.549-0.252,0.66l-5.064,2.268C26.484,25.727,26.416,25.74,26.348,25.74z"/>
		</g>
	</g>
</g>
<g>
</g>
<g>
</g>
<g>
</g>
<g>
</g>
<g>
</g>
<g>
</g>
<g>
</g>
<g>
</g>
<g>
</g>
<g>
</g>
<g>
</g>
<g>
</g>
<g>
</g>
<g>
</g>
<g>
</g>
</svg>
