<?xml version="1.0" encoding="iso-8859-1"?>
<!-- Generator: Adobe Illustrator 16.0.0, SVG Export Plug-In . SVG Version: 6.00 Build 0)  -->
<!DOCTYPE svg PUBLIC "-//W3C//DTD SVG 1.1//EN" "http://www.w3.org/Graphics/SVG/1.1/DTD/svg11.dtd">
<svg version="1.1" id="Capa_1" xmlns="http://www.w3.org/2000/svg" xmlns:xlink="http://www.w3.org/1999/xlink" x="0px" y="0px"
	 width="47.443px" height="47.444px" viewBox="0 0 47.443 47.444" style="enable-background:new 0 0 47.443 47.444;"
	 xml:space="preserve">
<g>
	<g id="Diamond_Ring">
		<path d="M23.48,22.156c-0.201,0-0.393-0.081-0.534-0.224l-9.877-10.017c-0.149-0.152-0.228-0.36-0.214-0.573
			c0.014-0.213,0.117-0.41,0.284-0.542l3.942-3.11c0.132-0.104,0.295-0.161,0.463-0.161l11.728-0.014l0,0
			c0.166,0,0.324,0.054,0.455,0.154l4.051,3.089c0.172,0.13,0.279,0.328,0.293,0.542c0.016,0.214-0.062,0.425-0.211,0.579
			l-9.844,10.052C23.875,22.075,23.655,22.158,23.48,22.156z M14.725,11.458l8.753,8.877l8.715-8.9l-3.174-2.42L17.806,9.028
			L14.725,11.458z"/>
		<path d="M33.2,12.155H13.725c-0.414,0-0.75-0.336-0.75-0.75s0.336-0.75,0.75-0.75H33.2c0.413,0,0.75,0.336,0.75,0.75
			S33.613,12.155,33.2,12.155z"/>
		<path d="M20.125,12.146c-0.119,0-0.24-0.028-0.353-0.088c-0.365-0.195-0.504-0.649-0.309-1.015l1.662-3.115
			c0.194-0.366,0.649-0.504,1.015-0.309c0.365,0.195,0.504,0.649,0.309,1.015l-1.662,3.115
			C20.652,12.002,20.393,12.146,20.125,12.146z"/>
		<path d="M26.812,12.146c-0.266,0-0.523-0.142-0.66-0.393l-1.676-3.089c-0.197-0.364-0.062-0.819,0.303-1.017
			c0.361-0.196,0.818-0.063,1.017,0.302l1.677,3.089c0.197,0.364,0.062,0.819-0.303,1.017
			C27.057,12.118,26.936,12.146,26.812,12.146z"/>
		<path d="M23.48,22.156c-0.322,0-0.609-0.206-0.711-0.512l-3.354-10.008c-0.132-0.393,0.08-0.818,0.473-0.949
			c0.393-0.133,0.818,0.08,0.949,0.473l2.641,7.88l2.624-7.878c0.131-0.393,0.556-0.608,0.948-0.475
			c0.394,0.131,0.604,0.555,0.476,0.948l-3.334,10.008C24.09,21.949,23.803,22.155,23.48,22.156L23.48,22.156z"/>
		<path d="M43.104,24.287c-0.275,0-0.5-0.224-0.5-0.5v-7.76c0-0.276,0.225-0.5,0.5-0.5c0.276,0,0.5,0.224,0.5,0.5v7.76
			C43.604,24.062,43.38,24.287,43.104,24.287z"/>
		<path d="M45.312,22.606c-0.129,0-0.256-0.049-0.354-0.146l-4.39-4.39c-0.195-0.195-0.195-0.512,0-0.707
			c0.195-0.195,0.512-0.195,0.707,0l4.39,4.39c0.194,0.195,0.194,0.512,0,0.707C45.568,22.558,45.439,22.606,45.312,22.606z"/>
		<path d="M40.922,22.606c-0.128,0-0.256-0.049-0.354-0.146c-0.195-0.195-0.195-0.512,0-0.707l4.39-4.39
			c0.194-0.195,0.513-0.195,0.707,0c0.194,0.195,0.194,0.512,0,0.707l-4.39,4.39C41.178,22.558,41.05,22.606,40.922,22.606z"/>
		<path d="M46.943,20.488h-7.76c-0.275,0-0.5-0.224-0.5-0.5c0-0.276,0.225-0.5,0.5-0.5h7.76c0.277,0,0.5,0.224,0.5,0.5
			C47.443,20.264,47.221,20.488,46.943,20.488z"/>
		<path d="M4.405,8.974c-0.268,0-0.485-0.217-0.485-0.485v-7.76c0-0.267,0.217-0.484,0.485-0.484c0.268,0,0.485,0.217,0.485,0.485
			v7.76C4.89,8.758,4.673,8.974,4.405,8.974z"/>
		<path d="M6.601,7.307c-0.124,0-0.248-0.047-0.343-0.142l-4.39-4.39c-0.189-0.189-0.189-0.496,0-0.687
			c0.189-0.19,0.496-0.188,0.686,0l4.39,4.39c0.189,0.189,0.189,0.496,0,0.686C6.849,7.26,6.725,7.307,6.601,7.307z"/>
		<path d="M2.211,7.307c-0.124,0-0.248-0.047-0.343-0.142c-0.189-0.189-0.189-0.496,0-0.686l4.39-4.39
			c0.189-0.188,0.496-0.188,0.686,0c0.19,0.189,0.189,0.496,0,0.687l-4.39,4.39C2.459,7.26,2.335,7.307,2.211,7.307z"/>
		<path d="M8.245,5.175h-7.76C0.217,5.175,0,4.958,0,4.689s0.217-0.485,0.485-0.485h7.76c0.268,0,0.485,0.217,0.485,0.485
			S8.513,5.175,8.245,5.175z"/>
		<path d="M23.401,47.199c-7.928,0-14.378-6.45-14.378-14.377c0-7.929,6.45-14.379,14.378-14.379c7.929,0,14.378,6.45,14.378,14.379
			C37.779,40.749,31.33,47.199,23.401,47.199z M23.401,20.442c-6.825,0-12.378,5.553-12.378,12.379
			c0,6.824,5.553,12.377,12.378,12.377c6.826,0,12.378-5.553,12.378-12.377C35.779,25.995,30.227,20.442,23.401,20.442z"/>
		<path d="M23.361,43.561c-5.909,0-10.717-4.808-10.717-10.717c0-5.908,4.808-10.717,10.717-10.717s10.717,4.807,10.717,10.717
			S29.27,43.561,23.361,43.561z M23.361,23.627c-5.082,0-9.217,4.135-9.217,9.217s4.135,9.217,9.217,9.217
			c5.083,0,9.217-4.135,9.217-9.217S28.443,23.627,23.361,23.627z"/>
	</g>
	<g>
	</g>
	<g>
	</g>
	<g>
	</g>
	<g>
	</g>
	<g>
	</g>
	<g>
	</g>
	<g>
	</g>
	<g>
	</g>
	<g>
	</g>
	<g>
	</g>
	<g>
	</g>
	<g>
	</g>
	<g>
	</g>
	<g>
	</g>
	<g>
	</g>
</g>
<g>
</g>
<g>
</g>
<g>
</g>
<g>
</g>
<g>
</g>
<g>
</g>
<g>
</g>
<g>
</g>
<g>
</g>
<g>
</g>
<g>
</g>
<g>
</g>
<g>
</g>
<g>
</g>
<g>
</g>
</svg>
