<?xml version="1.0" encoding="iso-8859-1"?>
<!-- Generator: Adobe Illustrator 16.0.0, SVG Export Plug-In . SVG Version: 6.00 Build 0)  -->
<!DOCTYPE svg PUBLIC "-//W3C//DTD SVG 1.1//EN" "http://www.w3.org/Graphics/SVG/1.1/DTD/svg11.dtd">
<svg version="1.1" id="Capa_1" xmlns="http://www.w3.org/2000/svg" xmlns:xlink="http://www.w3.org/1999/xlink" x="0px" y="0px"
	 width="47.621px" height="47.621px" viewBox="0 0 47.621 47.621" style="enable-background:new 0 0 47.621 47.621;"
	 xml:space="preserve">
<g>
	<g id="Donut">
		<path d="M23.823,47.621h-0.016C10.685,47.621,0.004,36.941,0,23.814C0.004,10.683,10.687,0,23.812,0
			c6.361,0,12.34,2.477,16.838,6.974c4.496,4.497,6.973,10.476,6.971,16.834c0.003,6.358-2.471,12.338-6.967,16.836
			C36.16,45.143,30.184,47.621,23.823,47.621z M23.812,2C11.789,2,2.004,11.786,2,23.814C2.004,35.837,11.787,45.62,23.809,45.62
			h0.015c5.824,0,11.3-2.269,15.418-6.39c4.115-4.121,6.383-9.598,6.38-15.422c0.002-5.825-2.267-11.301-6.386-15.42
			C35.117,4.269,29.641,2,23.812,2z"/>
		<path d="M23.842,32.941c-4.964,0-9.003-4.039-9.003-9.002c0-4.964,4.039-9.003,9.003-9.003c4.965,0,9.004,4.039,9.004,9.003
			C32.846,28.902,28.807,32.941,23.842,32.941z M23.842,16.936c-3.861,0-7.003,3.142-7.003,7.003s3.142,7.002,7.003,7.002
			c3.861,0,7.004-3.142,7.004-7.002C30.846,20.077,27.703,16.936,23.842,16.936z"/>
		<path d="M18.49,42.348L18.49,42.348c-0.75,0-1.524-0.143-2.366-0.435c-3.068-1.062-4.457-4.382-4.896-5.688
			c-2.856-1.057-4.709-2.697-5.51-4.883c-1.112-3.039,0.205-6.152,0.787-7.293l-0.051-0.131c-1.176-3.034-1.953-5.039-0.515-8.121
			c1.644-3.521,5.984-4.91,7.327-5.263c2.786-3.901,4.426-5.801,8.893-6.146c5.692-0.438,8.518,3.401,9.341,4.774
			c4.355,0.809,6.908,2.321,8.244,4.87c1.229,2.347,0.688,5.777,0.41,7.097c1.822,2.098,2.604,4.248,2.32,6.398
			c-0.396,3.015-2.787,5.043-3.732,5.738c-0.704,3.756-1.855,6.533-4.95,7.898c-0.647,0.286-1.427,0.431-2.313,0.431
			c-2.644,0-5.754-1.282-6.961-1.831c-0.26,0.161-0.506,0.318-0.747,0.469C21.905,41.414,20.43,42.348,18.49,42.348z M23.033,6.354
			c-0.233,0-0.473,0.009-0.719,0.028c-3.677,0.284-4.761,1.576-7.635,5.616c-0.145,0.204-0.363,0.347-0.608,0.399
			c-0.048,0.01-4.831,1.059-6.318,4.246c-1.078,2.309-0.562,3.639,0.566,6.552l0.22,0.566c0.111,0.29,0.082,0.615-0.079,0.88
			c-0.019,0.029-1.899,3.203-0.859,6.022c0.628,1.703,2.228,2.994,4.754,3.835c0.323,0.107,0.569,0.373,0.653,0.703
			c0.009,0.037,1.026,3.869,3.771,4.82c2.259,0.779,3.546,0.022,5.925-1.48c0.386-0.244,0.794-0.502,1.231-0.768
			c0.292-0.18,0.657-0.194,0.967-0.041c0.037,0.019,3.763,1.86,6.576,1.86c0.607,0,1.114-0.088,1.508-0.261
			c2.131-0.939,3.142-2.727,3.861-6.829c0.051-0.278,0.215-0.524,0.457-0.675c0.024-0.018,2.838-1.822,3.19-4.575
			c0.214-1.662-0.515-3.398-2.161-5.161c-0.234-0.251-0.324-0.606-0.236-0.939c0.291-1.103,0.836-4.366-0.123-6.196
			c-1.08-2.061-3.259-3.23-7.285-3.911c-0.32-0.054-0.596-0.262-0.735-0.556C29.873,10.328,27.889,6.354,23.033,6.354z"/>
		<g>
			<path d="M27.381,13.542c-0.182,0-0.363-0.066-0.506-0.2l-2.154-2.021c-0.298-0.279-0.312-0.747-0.033-1.044
				c0.278-0.299,0.746-0.312,1.045-0.034l2.154,2.021c0.297,0.279,0.312,0.747,0.033,1.044
				C27.773,13.464,27.578,13.542,27.381,13.542z"/>
			<path d="M17.415,14.598c-0.181,0-0.361-0.066-0.504-0.198c-0.298-0.278-0.314-0.746-0.036-1.044l2.016-2.162
				c0.279-0.299,0.745-0.313,1.044-0.037c0.298,0.278,0.314,0.746,0.036,1.044l-2.016,2.162
				C17.81,14.519,17.612,14.598,17.415,14.598z"/>
			<path d="M11.155,21.842c-0.062,0-0.125-0.008-0.188-0.024c-0.395-0.103-0.632-0.507-0.528-0.902l0.747-2.859
				c0.104-0.395,0.513-0.629,0.901-0.528c0.395,0.103,0.632,0.507,0.528,0.902l-0.747,2.859
				C11.782,21.622,11.482,21.842,11.155,21.842z"/>
			<path d="M12.35,31.49c-0.238,0-0.473-0.115-0.615-0.328l-1.643-2.456c-0.227-0.339-0.136-0.798,0.203-1.024
				c0.343-0.227,0.799-0.135,1.025,0.203l1.643,2.456c0.227,0.339,0.136,0.798-0.203,1.025C12.633,31.449,12.49,31.49,12.35,31.49z"
				/>
			<path d="M32.354,37.127c-0.17,0-0.34-0.059-0.479-0.176l-2.251-1.914c-0.312-0.264-0.349-0.73-0.084-1.042
				s0.731-0.349,1.041-0.084l2.251,1.914c0.311,0.264,0.35,0.729,0.084,1.042C32.771,37.039,32.562,37.127,32.354,37.127z"/>
			<path d="M18.092,37.823c-0.271,0-0.53-0.148-0.66-0.405c-0.185-0.363-0.038-0.809,0.325-0.993l2.637-1.334
				c0.368-0.185,0.81-0.038,0.993,0.326c0.185,0.364,0.038,0.81-0.325,0.993l-2.637,1.334
				C18.317,37.797,18.203,37.823,18.092,37.823z"/>
			<path d="M36.947,29.538c-0.245,0-0.483-0.121-0.625-0.343l-1.584-2.494c-0.219-0.344-0.116-0.801,0.228-1.02
				c0.347-0.223,0.8-0.117,1.021,0.228l1.584,2.493c0.22,0.345,0.117,0.802-0.228,1.021C37.221,29.5,37.082,29.538,36.947,29.538z"
				/>
			<path d="M34.738,19.854c-0.071,0-0.145-0.01-0.217-0.032c-0.39-0.119-0.608-0.532-0.49-0.922l0.861-2.826
				c0.119-0.39,0.528-0.611,0.922-0.491c0.391,0.119,0.609,0.532,0.492,0.922l-0.861,2.826
				C35.348,19.648,35.055,19.854,34.738,19.854z"/>
		</g>
	</g>
	<g>
	</g>
	<g>
	</g>
	<g>
	</g>
	<g>
	</g>
	<g>
	</g>
	<g>
	</g>
	<g>
	</g>
	<g>
	</g>
	<g>
	</g>
	<g>
	</g>
	<g>
	</g>
	<g>
	</g>
	<g>
	</g>
	<g>
	</g>
	<g>
	</g>
</g>
<g>
</g>
<g>
</g>
<g>
</g>
<g>
</g>
<g>
</g>
<g>
</g>
<g>
</g>
<g>
</g>
<g>
</g>
<g>
</g>
<g>
</g>
<g>
</g>
<g>
</g>
<g>
</g>
<g>
</g>
</svg>
