<?xml version="1.0" encoding="iso-8859-1"?>
<!-- Generator: Adobe Illustrator 16.0.0, SVG Export Plug-In . SVG Version: 6.00 Build 0)  -->
<!DOCTYPE svg PUBLIC "-//W3C//DTD SVG 1.1//EN" "http://www.w3.org/Graphics/SVG/1.1/DTD/svg11.dtd">
<svg version="1.1" id="Capa_1" xmlns="http://www.w3.org/2000/svg" xmlns:xlink="http://www.w3.org/1999/xlink" x="0px" y="0px"
	 width="47.854px" height="47.854px" viewBox="0 0 47.854 47.854" style="enable-background:new 0 0 47.854 47.854;"
	 xml:space="preserve">
<g>
	<g id="Dribble">
		<path d="M23.939,47.853c0,0-0.015,0-0.016,0C10.736,47.853,0.004,37.121,0,23.931c0.004-13.196,10.738-23.93,23.929-23.93
			c6.393,0,12.401,2.489,16.92,7.008c4.52,4.52,7.006,10.526,7.004,16.916c0.004,6.391-2.481,12.396-7,16.918
			C36.337,45.362,30.33,47.853,23.939,47.853z M23.929,2.001C11.841,2.001,2.004,11.839,2,23.931
			c0.004,12.087,9.839,21.921,21.925,21.921h0.015c5.855,0,11.36-2.281,15.5-6.424c4.14-4.142,6.418-9.646,6.414-15.504
			c0.002-5.855-2.276-11.36-6.418-15.502C35.294,4.282,29.787,2.001,23.929,2.001z"/>
		<path d="M37.158,43.618c-0.008,0-0.016,0-0.021,0c-0.553-0.014-0.99-0.471-0.979-1.021c0.111-5.093-0.807-10.428-2.727-15.854
			c-0.186-0.521,0.088-1.093,0.607-1.276c0.523-0.185,1.094,0.09,1.275,0.608c2.004,5.657,2.959,11.231,2.843,16.565
			C38.146,43.185,37.701,43.618,37.158,43.618z"/>
		<path d="M32.982,23.88c-0.387,0-0.754-0.224-0.918-0.601c-0.682-1.561-1.469-3.203-2.162-4.508
			c-0.26-0.488-0.074-1.094,0.412-1.353c0.486-0.263,1.095-0.074,1.354,0.413c0.717,1.349,1.529,3.042,2.23,4.648
			c0.221,0.506-0.012,1.095-0.519,1.316C33.251,23.854,33.115,23.88,32.982,23.88z"/>
		<path d="M28.713,15.774c-0.338,0-0.667-0.171-0.855-0.479C23.044,7.391,17.961,2.556,17.91,2.508
			c-0.402-0.379-0.421-1.012-0.042-1.413c0.381-0.402,1.011-0.422,1.413-0.042c0.215,0.202,5.321,5.053,10.286,13.201
			c0.287,0.472,0.138,1.087-0.334,1.375C29.068,15.728,28.891,15.774,28.713,15.774z"/>
		<path d="M33.279,45.763c-0.006,0-0.014,0-0.021,0c-0.553-0.013-0.989-0.47-0.979-1.021c0.121-5.499-0.936-11.22-3.139-17
			c-0.197-0.517,0.062-1.095,0.577-1.291c0.515-0.199,1.095,0.062,1.291,0.577c2.298,6.024,3.396,11.998,3.271,17.757
			C34.27,45.329,33.823,45.763,33.279,45.763z"/>
		<path d="M28.62,24.839c-0.378,0-0.74-0.215-0.909-0.581c-0.49-1.063-1.122-2.304-1.932-3.793
			c-0.264-0.485-0.084-1.093,0.402-1.356c0.487-0.263,1.092-0.083,1.355,0.401c0.829,1.528,1.48,2.808,1.988,3.91
			c0.231,0.501,0.014,1.097-0.488,1.327C28.902,24.81,28.76,24.839,28.62,24.839z"/>
		<path d="M24.536,17.353c-0.333,0-0.658-0.166-0.849-0.469C18.992,9.387,13.991,4.53,13.941,4.481
			c-0.397-0.383-0.409-1.017-0.025-1.414c0.385-0.396,1.017-0.408,1.414-0.025c0.21,0.203,5.219,5.064,10.053,12.78
			c0.293,0.469,0.151,1.086-0.316,1.379C24.9,17.304,24.718,17.353,24.536,17.353z"/>
		<path d="M28.775,15.806c-0.383,0-0.746-0.219-0.914-0.589c-0.227-0.504-0.002-1.096,0.502-1.323
			c4.373-1.97,7.725-4.53,9.438-7.207c0.297-0.465,0.915-0.603,1.381-0.303c0.465,0.297,0.602,0.916,0.303,1.381
			c-1.92,3-5.577,5.824-10.299,7.953C29.052,15.777,28.912,15.806,28.775,15.806z"/>
		<path d="M1.271,21.097c-0.543,0-0.988-0.435-1-0.979c-0.011-0.552,0.427-1.009,0.979-1.021c0.123-0.002,12.404-0.295,22.95-3.665
			c0.528-0.175,1.089,0.122,1.257,0.647c0.169,0.526-0.122,1.089-0.646,1.257c-10.832,3.462-23.006,3.75-23.52,3.761
			C1.284,21.097,1.277,21.097,1.271,21.097z"/>
		<path d="M30.786,19.239c-0.386,0-0.75-0.222-0.916-0.596c-0.224-0.505,0.006-1.096,0.511-1.319
			c4.852-2.144,8.264-4.724,10.143-7.666c0.297-0.465,0.914-0.603,1.381-0.305c0.466,0.297,0.602,0.915,0.305,1.381
			c-2.093,3.28-5.8,6.113-11.02,8.42C31.059,19.212,30.921,19.239,30.786,19.239z"/>
		<path d="M1.146,25.304c-0.536,0-0.979-0.425-0.998-0.965c-0.02-0.552,0.412-1.015,0.964-1.034
			c0.135-0.005,13.63-0.52,25.113-4.381c0.524-0.174,1.092,0.106,1.268,0.63c0.176,0.524-0.105,1.09-0.631,1.267
			C15.096,24.776,1.32,25.299,1.182,25.303C1.17,25.304,1.157,25.304,1.146,25.304z"/>
		<path d="M46.068,25.056c-0.104,0-0.209-0.016-0.312-0.05c-4.041-1.323-8.398-1.714-12.607-1.136
			c-0.562,0.079-1.053-0.307-1.127-0.854c-0.076-0.547,0.308-1.052,0.854-1.127c4.503-0.621,9.175-0.203,13.504,1.216
			c0.524,0.172,0.812,0.736,0.64,1.262C46.881,24.788,46.488,25.056,46.068,25.056z"/>
		<path d="M7.952,39.905c-0.203,0-0.408-0.062-0.585-0.189c-0.447-0.324-0.548-0.949-0.225-1.396
			c0.339-0.467,8.428-11.492,21.215-15.404c0.529-0.166,1.086,0.135,1.248,0.663s-0.135,1.088-0.662,1.249
			C16.791,28.545,8.842,39.383,8.764,39.491C8.567,39.762,8.263,39.905,7.952,39.905z"/>
		<path d="M46.191,28.397c-0.105,0-0.213-0.018-0.318-0.053c-3.611-1.212-7.422-1.531-11.321-0.949
			c-0.543,0.076-1.055-0.295-1.137-0.842c-0.081-0.546,0.296-1.055,0.842-1.137c4.214-0.629,8.337-0.283,12.253,1.031
			c0.523,0.176,0.807,0.742,0.631,1.267C46.999,28.134,46.609,28.397,46.191,28.397z"/>
		<path d="M10.304,43.371c-0.2,0-0.402-0.062-0.578-0.187c-0.45-0.318-0.556-0.942-0.236-1.394
			c0.33-0.464,8.217-11.416,20.271-15.376c0.53-0.172,1.09,0.113,1.262,0.638c0.172,0.525-0.112,1.091-0.637,1.263
			C18.969,32.065,11.198,42.841,11.12,42.95C10.925,43.226,10.616,43.371,10.304,43.371z"/>
	</g>
	<g>
	</g>
	<g>
	</g>
	<g>
	</g>
	<g>
	</g>
	<g>
	</g>
	<g>
	</g>
	<g>
	</g>
	<g>
	</g>
	<g>
	</g>
	<g>
	</g>
	<g>
	</g>
	<g>
	</g>
	<g>
	</g>
	<g>
	</g>
	<g>
	</g>
</g>
<g>
</g>
<g>
</g>
<g>
</g>
<g>
</g>
<g>
</g>
<g>
</g>
<g>
</g>
<g>
</g>
<g>
</g>
<g>
</g>
<g>
</g>
<g>
</g>
<g>
</g>
<g>
</g>
<g>
</g>
</svg>
