<?xml version="1.0" encoding="iso-8859-1"?>
<!-- Generator: Adobe Illustrator 16.0.0, SVG Export Plug-In . SVG Version: 6.00 Build 0)  -->
<!DOCTYPE svg PUBLIC "-//W3C//DTD SVG 1.1//EN" "http://www.w3.org/Graphics/SVG/1.1/DTD/svg11.dtd">
<svg version="1.1" id="Capa_1" xmlns="http://www.w3.org/2000/svg" xmlns:xlink="http://www.w3.org/1999/xlink" x="0px" y="0px"
	 width="48.085px" height="48.084px" viewBox="0 0 48.085 48.084" style="enable-background:new 0 0 48.085 48.084;"
	 xml:space="preserve">
<g>
	<g id="Eject">
		<path d="M24.055,48.084h-0.016C10.788,48.084,0.004,37.301,0,24.046C0.004,10.788,10.79,0,24.044,0
			c6.424,0,12.462,2.501,17.003,7.042c4.54,4.541,7.04,10.577,7.038,16.998c0.003,6.421-2.495,12.458-7.033,17
			S30.477,48.084,24.055,48.084z M24.044,2C11.893,2,2.004,11.891,2,24.046c0.004,12.151,9.891,22.038,22.04,22.038h0.015
			c5.886,0,11.421-2.293,15.582-6.458c4.161-4.163,6.451-9.698,6.448-15.586c0.002-5.887-2.29-11.421-6.452-15.584
			C35.469,4.293,29.934,2,24.044,2z"/>
		<path d="M24.03,43.492h-0.004c-5.197-0.001-10.083-2.024-13.757-5.698c-3.673-3.673-5.696-8.559-5.695-13.753
			c-0.001-5.193,2.021-10.077,5.695-13.752c3.674-3.674,8.559-5.698,13.755-5.699c5.199,0,10.083,2.023,13.758,5.698
			c3.675,3.675,5.696,8.559,5.696,13.753c0,5.194-2.021,10.078-5.696,13.753S29.225,43.492,24.03,43.492z M24.028,6.589
			c-4.666,0.001-9.049,1.817-12.345,5.114C8.387,15,6.573,19.381,6.574,24.041c-0.001,4.661,1.813,9.044,5.109,12.339
			c3.296,3.296,7.68,5.111,12.343,5.112l0.004,1v-1c4.66,0,9.042-1.815,12.338-5.112s5.11-7.679,5.11-12.339
			s-1.813-9.042-5.11-12.339C33.072,8.404,28.689,6.589,24.028,6.589z"/>
		<path d="M32.113,29.233c-0.006,0-0.012,0-0.021,0H16.192c-0.369,0-0.707-0.202-0.882-0.527c-0.174-0.324-0.155-0.719,0.05-1.025
			l7.953-11.939c0.186-0.278,0.498-0.445,0.832-0.445l0,0c0.335,0,0.647,0.167,0.832,0.446l7.854,11.797
			c0.174,0.18,0.28,0.426,0.28,0.696C33.113,28.787,32.666,29.233,32.113,29.233z M18.06,27.233h12.167l-6.081-9.135L18.06,27.233z"
			/>
		<path d="M32.02,33.173H16.12c-0.553,0-1-0.446-1-1c0-0.553,0.447-1,1-1H32.02c0.554,0,1,0.447,1,1
			C33.02,32.727,32.572,33.173,32.02,33.173z"/>
	</g>
	<g>
	</g>
	<g>
	</g>
	<g>
	</g>
	<g>
	</g>
	<g>
	</g>
	<g>
	</g>
	<g>
	</g>
	<g>
	</g>
	<g>
	</g>
	<g>
	</g>
	<g>
	</g>
	<g>
	</g>
	<g>
	</g>
	<g>
	</g>
	<g>
	</g>
</g>
<g>
</g>
<g>
</g>
<g>
</g>
<g>
</g>
<g>
</g>
<g>
</g>
<g>
</g>
<g>
</g>
<g>
</g>
<g>
</g>
<g>
</g>
<g>
</g>
<g>
</g>
<g>
</g>
<g>
</g>
</svg>
