<?xml version="1.0" encoding="iso-8859-1"?>
<!-- Generator: Adobe Illustrator 16.0.0, SVG Export Plug-In . SVG Version: 6.00 Build 0)  -->
<!DOCTYPE svg PUBLIC "-//W3C//DTD SVG 1.1//EN" "http://www.w3.org/Graphics/SVG/1.1/DTD/svg11.dtd">
<svg version="1.1" id="Capa_1" xmlns="http://www.w3.org/2000/svg" xmlns:xlink="http://www.w3.org/1999/xlink" x="0px" y="0px"
	 width="47.764px" height="47.763px" viewBox="0 0 47.764 47.763" style="enable-background:new 0 0 47.764 47.763;"
	 xml:space="preserve">
<g>
	<g id="Fork__x2B__Knife">
		<g>
			<path d="M24.062,21.121c-0.256,0-0.512-0.098-0.707-0.293c-0.391-0.391-0.391-1.024,0-1.414l3.274-3.275
				c0.392-0.391,1.023-0.391,1.414,0c0.392,0.391,0.392,1.024,0,1.414l-3.274,3.275C24.574,21.022,24.318,21.121,24.062,21.121z"/>
			<path d="M2.735,42.447c-0.256,0-0.512-0.098-0.707-0.293c-0.391-0.392-0.391-1.023,0-1.414l16.14-16.14
				c0.391-0.392,1.023-0.392,1.414,0c0.391,0.391,0.391,1.022,0,1.413L3.442,42.154C3.248,42.35,2.992,42.447,2.735,42.447z"/>
			<path d="M27.722,25.523c-0.257,0-0.513-0.099-0.707-0.293c-0.392-0.391-0.392-1.023,0-1.415l3.646-3.647
				c0.391-0.391,1.023-0.391,1.414,0c0.391,0.39,0.391,1.023,0,1.414l-3.646,3.647C28.232,25.424,27.978,25.523,27.722,25.523z"/>
			<path d="M6.766,46.477c-0.256,0-0.512-0.099-0.707-0.293c-0.391-0.392-0.391-1.023,0-1.414l15.889-15.889
				c0.391-0.391,1.023-0.391,1.414,0c0.391,0.392,0.391,1.023,0,1.414L7.473,46.184C7.276,46.378,7.021,46.477,6.766,46.477z"/>
			<path d="M4.762,47.303c-0.983,0-1.967-0.374-2.717-1.121c-1.497-1.498-1.497-3.934-0.002-5.429c0.391-0.391,1.023-0.391,1.414,0
				c0.391,0.392,0.391,1.023,0,1.414c-0.716,0.716-0.715,1.882,0.001,2.6c0.719,0.718,1.886,0.717,2.601,0.002
				c0.391-0.392,1.023-0.391,1.414,0c0.391,0.391,0.391,1.022,0,1.415C6.727,46.93,5.744,47.303,4.762,47.303z"/>
		</g>
		<path d="M34.315,22.386c-1.128,0-2.229-0.192-3.256-0.589c-0.516-0.2-0.771-0.779-0.571-1.294s0.777-0.771,1.294-0.571
			c2.984,1.158,6.845,0.084,9.601-2.67c1.437-1.437,2.811-4.148,3.642-5.987l-3.768,1.092c-0.36,0.104-0.75-0.002-1.007-0.276
			c-0.258-0.274-0.34-0.668-0.213-1.022l1.616-4.504l-4.439,1.576c-0.36,0.126-0.763,0.04-1.035-0.229
			c-0.272-0.268-0.368-0.668-0.247-1.031l1.229-3.663c-1.883,0.832-4.636,2.208-6.125,3.696c-2.7,2.7-3.793,6.506-2.719,9.471
			c0.188,0.52-0.081,1.093-0.601,1.281c-0.518,0.188-1.093-0.08-1.28-0.6c-1.354-3.739-0.104-8.279,3.186-11.567
			c2.706-2.706,8.59-4.887,8.839-4.978c0.359-0.132,0.766-0.047,1.042,0.221c0.275,0.268,0.373,0.671,0.251,1.035l-1.271,3.791
			l4.492-1.595c0.363-0.128,0.771-0.038,1.043,0.236s0.362,0.68,0.232,1.044L42.581,9.9l3.904-1.132
			c0.363-0.108,0.758,0.004,1.014,0.284c0.257,0.279,0.334,0.68,0.199,1.034c-0.094,0.244-2.308,5.995-4.901,8.591
			C40.403,21.068,37.271,22.386,34.315,22.386z"/>
		<g>
			<path d="M39.262,45.948c-0.257,0-0.513-0.098-0.707-0.293L17.538,24.637c-0.391-0.391-0.391-1.023,0-1.414
				c0.391-0.391,1.023-0.391,1.414,0l21.017,21.017c0.391,0.391,0.391,1.022,0,1.414C39.772,45.851,39.518,45.948,39.262,45.948z"/>
			<path d="M43.29,41.919c-0.256,0-0.512-0.098-0.707-0.293L5.47,4.512c-0.391-0.391-0.391-1.023,0-1.414
				c0.391-0.391,1.023-0.391,1.414,0l37.114,37.114c0.392,0.392,0.392,1.023,0,1.414C43.803,41.822,43.546,41.919,43.29,41.919z"/>
			<path d="M41.278,46.766c-1.024,0-1.987-0.399-2.712-1.124c-0.392-0.392-0.392-1.024,0-1.415c0.391-0.391,1.022-0.391,1.414,0
				c0.347,0.347,0.808,0.538,1.298,0.538h0.001c0.491,0,0.952-0.192,1.3-0.539c0.718-0.719,0.72-1.885,0.004-2.601
				c-0.391-0.391-0.391-1.022,0-1.414c0.392-0.391,1.023-0.391,1.414,0c1.495,1.495,1.494,3.931-0.004,5.429
				c-0.725,0.725-1.688,1.123-2.712,1.125C41.28,46.766,41.279,46.766,41.278,46.766z"/>
			<path d="M2.084,4.73c-0.256,0-0.512-0.098-0.707-0.293c-0.391-0.391-0.391-1.023,0-1.414c1.498-1.498,3.934-1.498,5.43-0.001
				c0.391,0.391,0.391,1.023,0,1.414s-1.023,0.391-1.414,0C4.676,3.719,3.511,3.719,2.792,4.438C2.597,4.632,2.34,4.73,2.084,4.73z"
				/>
		</g>
		<path d="M15.497,25.25c-3.117,0-6.57-1.574-9.422-4.425C1.632,16.381-2.199,6.599,1.467,2.933c0.391-0.391,1.023-0.391,1.414,0
			c0.391,0.391,0.391,1.024,0,1.414C0.537,6.691,3.077,14.998,7.488,19.411c3.177,3.177,7.279,4.563,10.209,3.457
			c0.513-0.196,1.094,0.064,1.289,0.581c0.195,0.517-0.065,1.094-0.582,1.29C17.494,25.083,16.513,25.25,15.497,25.25z"/>
	</g>
</g>
<g>
</g>
<g>
</g>
<g>
</g>
<g>
</g>
<g>
</g>
<g>
</g>
<g>
</g>
<g>
</g>
<g>
</g>
<g>
</g>
<g>
</g>
<g>
</g>
<g>
</g>
<g>
</g>
<g>
</g>
</svg>
