<?xml version="1.0" encoding="iso-8859-1"?>
<!-- Generator: Adobe Illustrator 16.0.0, SVG Export Plug-In . SVG Version: 6.00 Build 0)  -->
<!DOCTYPE svg PUBLIC "-//W3C//DTD SVG 1.1//EN" "http://www.w3.org/Graphics/SVG/1.1/DTD/svg11.dtd">
<svg version="1.1" id="Capa_1" xmlns="http://www.w3.org/2000/svg" xmlns:xlink="http://www.w3.org/1999/xlink" x="0px" y="0px"
	 width="47.833px" height="47.833px" viewBox="0 0 47.833 47.833" style="enable-background:new 0 0 47.833 47.833;"
	 xml:space="preserve">
<g>
	<g id="Hammer">
		<path d="M43.793,40.545c-0.22,0-0.422-0.147-0.481-0.37c-0.353-1.311-1.474-1.943-2.894-2.746c-1.618-0.914-3.451-1.951-4.694-4.3
			c-2.043-3.858-4.484-4.993-4.509-5.004c-0.251-0.113-0.363-0.409-0.251-0.66c0.113-0.251,0.407-0.364,0.658-0.254
			c0.112,0.05,2.767,1.26,4.986,5.45c1.106,2.09,2.806,3.05,4.304,3.896c1.494,0.845,2.905,1.642,3.366,3.356
			c0.072,0.267-0.086,0.541-0.354,0.612C43.88,40.539,43.836,40.545,43.793,40.545z"/>
		<g>
			<path d="M4.025,21.375c-0.586,0-1.14-0.231-1.56-0.65l-1.816-1.815c-0.851-0.851-0.867-2.221-0.036-3.054l1.135-1.136
				c0.808-0.807,2.23-0.789,3.056,0.035l1.815,1.816c0.409,0.409,0.64,0.949,0.65,1.521c0.01,0.582-0.208,1.126-0.615,1.533
				l-1.133,1.134C5.124,21.156,4.592,21.375,4.025,21.375z M3.245,15.604c-0.167,0-0.321,0.062-0.435,0.176l-1.135,1.135
				c-0.247,0.248-0.231,0.667,0.035,0.934l1.816,1.815c0.259,0.258,0.693,0.276,0.934,0.034l1.135-1.134
				c0.116-0.117,0.179-0.275,0.176-0.446c-0.003-0.182-0.078-0.354-0.211-0.487l-1.815-1.816
				C3.608,15.679,3.431,15.604,3.245,15.604z"/>
			<path d="M6.996,17.875c-0.192,0-0.384-0.073-0.53-0.22c-0.293-0.293-0.293-0.768,0-1.061c1.941-1.941,3.646-2.785,5.067-2.502
				c0.558,0.11,0.993,0.383,1.312,0.687l3.728-3.726c-0.774-0.808-1.069-1.665-0.877-2.553c0.487-2.26,4.339-3.886,6.874-4.724
				c-5.689-1.636-10.043,1.851-10.245,2.017c-2.059,1.893-4.471,4.302-4.724,4.845c-0.131,0.281-0.232,0.579-0.333,0.872
				c-0.2,0.579-0.406,1.178-0.799,1.667c-0.511,0.641-1.715,1.725-1.766,1.771c-0.308,0.278-0.783,0.25-1.059-0.056
				c-0.277-0.308-0.252-0.782,0.056-1.059c0.322-0.29,1.236-1.14,1.597-1.592c0.231-0.288,0.387-0.741,0.553-1.22
				c0.118-0.342,0.239-0.69,0.392-1.017c0.497-1.065,4.028-4.358,5.099-5.342c0.285-0.237,6.362-5.142,13.89-1.458
				c0.284,0.139,0.45,0.44,0.416,0.754c-0.034,0.313-0.261,0.573-0.566,0.648c-3.074,0.759-7.563,2.567-7.917,4.211
				c-0.105,0.49,0.218,1.035,0.962,1.619c0.168,0.133,0.272,0.331,0.285,0.545c0.013,0.214-0.066,0.423-0.218,0.575l-4.898,4.896
				c-0.177,0.177-0.431,0.251-0.676,0.206c-0.245-0.049-0.45-0.216-0.547-0.447c-0.006-0.013-0.251-0.542-0.846-0.65
				c-0.507-0.092-1.661,0.058-3.699,2.094C7.379,17.801,7.188,17.875,6.996,17.875z"/>
			<path d="M24.209,26.856c-0.192,0-0.384-0.072-0.53-0.22L13.134,16.091c-0.293-0.293-0.293-0.768,0-1.061s0.768-0.293,1.061,0
				l10.544,10.547c0.293,0.293,0.293,0.768,0,1.061C24.592,26.784,24.4,26.856,24.209,26.856z"/>
			<path d="M27.754,23.311c-0.191,0-0.384-0.073-0.529-0.22L16.499,12.367c-0.293-0.293-0.293-0.768,0-1.062
				c0.293-0.293,0.768-0.293,1.061,0l10.726,10.724c0.293,0.293,0.293,0.768,0,1.061C28.139,23.237,27.946,23.311,27.754,23.311z"/>
			<path d="M25.424,30.173c-0.609,0-1.181-0.238-1.611-0.669c-0.43-0.43-0.667-1.001-0.667-1.61c0-0.608,0.237-1.181,0.668-1.612
				l4.326-4.325c0.862-0.862,2.362-0.861,3.223,0c0.43,0.43,0.667,1.002,0.667,1.611c0,0.609-0.237,1.182-0.668,1.612l-4.325,4.325
				C26.606,29.936,26.033,30.173,25.424,30.173z M29.751,22.789c-0.208,0-0.403,0.082-0.551,0.229l-4.325,4.325
				c-0.147,0.146-0.229,0.343-0.229,0.551s0.081,0.403,0.229,0.55c0.295,0.297,0.808,0.296,1.103,0l4.324-4.324
				c0.147-0.147,0.229-0.344,0.229-0.552s-0.081-0.404-0.229-0.551C30.154,22.87,29.959,22.789,29.751,22.789z"/>
			<g>
				<path d="M40.438,45.996c-1.854,0-2.846-1.884-3.809-3.711c-0.912-1.73-1.944-3.691-3.778-4.697
					c-4.388-2.404-7.641-7.438-7.776-7.649c-0.223-0.349-0.121-0.812,0.228-1.036c0.348-0.222,0.812-0.122,1.036,0.228
					c0.032,0.049,3.188,4.925,7.234,7.143c2.229,1.225,3.424,3.491,4.384,5.313c1.146,2.174,1.762,3.097,2.819,2.871
					c0.052-0.012,0.104-0.018,0.157-0.018c-0.032-0.002,0.832-0.179,2.735-2.083c0.293-0.293,0.769-0.293,1.062,0
					s0.293,0.769,0,1.062c-2.115,2.116-3.264,2.467-3.685,2.516C40.832,45.975,40.63,45.996,40.438,45.996z"/>
				<path d="M44.333,43.502c-0.191,0-0.384-0.073-0.53-0.221c-0.293-0.293-0.293-0.768,0-1.061c2.098-2.097,2.382-3.164,2.384-3.175
					c0.01-0.038,0.026-0.098,0.042-0.133c0.348-0.821-0.338-1.342-2.718-2.592c-1.91-1.003-4.287-2.251-5.51-4.479
					c-2.217-4.046-7.094-7.202-7.143-7.233c-0.35-0.224-0.451-0.688-0.228-1.036c0.225-0.348,0.687-0.451,1.036-0.228
					c0.213,0.136,5.246,3.389,7.65,7.777c1.004,1.831,3.068,2.915,4.892,3.872c2.115,1.11,4.302,2.259,3.426,4.441
					c-0.104,0.396-0.588,1.662-2.771,3.845C44.716,43.428,44.524,43.502,44.333,43.502z"/>
			</g>
			<path d="M11.758,15.425c-0.192,0-0.384-0.073-0.53-0.22l-4.642-4.641c-0.293-0.293-0.293-0.768,0-1.061s0.768-0.293,1.061,0
				l4.642,4.642c0.293,0.293,0.293,0.768,0,1.061C12.142,15.353,11.95,15.425,11.758,15.425z"/>
			<path d="M16.367,10.726c-0.192,0-0.384-0.073-0.53-0.22l-4.596-4.595c-0.293-0.293-0.293-0.768,0-1.061
				c0.293-0.293,0.768-0.293,1.061,0l4.596,4.596c0.293,0.293,0.293,0.768,0,1.061C16.751,10.652,16.559,10.726,16.367,10.726z"/>
		</g>
	</g>
	<g>
	</g>
	<g>
	</g>
	<g>
	</g>
	<g>
	</g>
	<g>
	</g>
	<g>
	</g>
	<g>
	</g>
	<g>
	</g>
	<g>
	</g>
	<g>
	</g>
	<g>
	</g>
	<g>
	</g>
	<g>
	</g>
	<g>
	</g>
	<g>
	</g>
</g>
<g>
</g>
<g>
</g>
<g>
</g>
<g>
</g>
<g>
</g>
<g>
</g>
<g>
</g>
<g>
</g>
<g>
</g>
<g>
</g>
<g>
</g>
<g>
</g>
<g>
</g>
<g>
</g>
<g>
</g>
</svg>
