<?xml version="1.0" encoding="iso-8859-1"?>
<!-- Generator: Adobe Illustrator 16.0.0, SVG Export Plug-In . SVG Version: 6.00 Build 0)  -->
<!DOCTYPE svg PUBLIC "-//W3C//DTD SVG 1.1//EN" "http://www.w3.org/Graphics/SVG/1.1/DTD/svg11.dtd">
<svg version="1.1" id="Capa_1" xmlns="http://www.w3.org/2000/svg" xmlns:xlink="http://www.w3.org/1999/xlink" x="0px" y="0px"
	 width="47.408px" height="47.408px" viewBox="0 0 47.408 47.408" style="enable-background:new 0 0 47.408 47.408;"
	 xml:space="preserve">
<g>
	<g id="Headphones">
		<path d="M42.298,21.991c-0.553,0-1-0.448-1-1C41.298,10.342,33.538,2,23.629,2C13.722,2,5.961,10.342,5.961,20.991
			c0,0.552-0.448,1-1,1c-0.552,0-1-0.448-1-1C3.961,9.22,12.601,0,23.629,0c11.03,0,19.668,9.22,19.668,20.991
			C43.298,21.543,42.85,21.991,42.298,21.991z"/>
		<g>
			<path d="M8.04,33.584c-0.552,0-1-0.448-1-1V20.772c0-0.552,0.448-1,1-1c0.552,0,1,0.448,1,1v11.812
				C9.04,33.136,8.593,33.584,8.04,33.584z"/>
			<path d="M12.98,33.584c-0.552,0-1-0.448-1-1V20.768c0-0.552,0.448-1,1-1c0.552,0,1,0.448,1,1v11.816
				C13.98,33.136,13.533,33.584,12.98,33.584z"/>
			<path d="M10.518,35.585c-1.909,0-3.462-1.346-3.462-3.001c0-0.552,0.448-1,1-1c0.552,0,1,0.448,1,1
				c0,0.542,0.669,1.001,1.462,1.001s1.463-0.458,1.463-1.001c0-0.552,0.448-1,1-1c0.552,0,1,0.448,1,1
				C13.98,34.239,12.428,35.585,10.518,35.585z"/>
			<path d="M12.98,21.69c-0.552,0-1-0.448-1-1c0-0.543-0.67-1.001-1.463-1.001c-0.792,0-1.462,0.458-1.462,1.001
				c0,0.552-0.448,1-1,1c-0.552,0-1-0.448-1-1c0-1.655,1.553-3.001,3.462-3.001c1.91,0,3.463,1.347,3.463,3.001
				C13.98,21.242,13.533,21.69,12.98,21.69z"/>
		</g>
		<path d="M8.243,34.361c-0.034,0-0.068,0-0.102-0.004c-3.701-0.377-5.999-3.348-5.999-7.754s2.298-7.376,5.999-7.752
			c0.55-0.057,1.04,0.345,1.096,0.894c0.056,0.549-0.345,1.04-0.894,1.096c-3.898,0.395-4.201,4.511-4.201,5.763
			s0.303,5.367,4.201,5.765c0.55,0.056,0.95,0.546,0.894,1.096C9.184,33.979,8.749,34.361,8.243,34.361z"/>
		<g>
			<path d="M39.368,33.584c-0.552,0-1-0.448-1-1V20.772c0-0.552,0.448-1,1-1c0.553,0,1,0.448,1,1v11.812
				C40.368,33.136,39.921,33.584,39.368,33.584z"/>
			<path d="M34.428,33.584c-0.552,0-1-0.448-1-1V20.768c0-0.552,0.448-1,1-1s1,0.448,1,1v11.816
				C35.428,33.136,34.979,33.584,34.428,33.584z"/>
			<path d="M36.891,35.585c-1.91,0-3.463-1.346-3.463-3.001c0-0.552,0.448-1,1-1s1,0.448,1,1c0,0.542,0.67,1.001,1.463,1.001
				c0.792,0,1.462-0.458,1.462-1.001c0-0.552,0.448-1,1-1c0.553,0,1,0.448,1,1C40.353,34.239,38.8,35.585,36.891,35.585z"/>
			<path d="M39.353,21.69c-0.552,0-1-0.448-1-1c0-0.543-0.669-1.001-1.462-1.001s-1.463,0.458-1.463,1.001c0,0.552-0.448,1-1,1
				s-1-0.448-1-1c0-1.655,1.553-3.001,3.463-3.001c1.909,0,3.462,1.347,3.462,3.001C40.353,21.242,39.905,21.69,39.353,21.69z"/>
		</g>
		<path d="M39.165,34.361c-0.506,0-0.94-0.383-0.994-0.898c-0.055-0.549,0.345-1.04,0.895-1.096
			c3.898-0.397,4.201-4.512,4.201-5.764s-0.303-5.369-4.201-5.765c-0.549-0.056-0.949-0.547-0.895-1.096
			c0.057-0.549,0.544-0.957,1.097-0.894c3.7,0.376,5.999,3.347,5.999,7.752c0,4.406-2.298,7.377-5.999,7.754
			C39.233,34.361,39.2,34.361,39.165,34.361z"/>
		<path d="M38.493,20.099c-0.383,0-0.709-0.292-0.746-0.681c-0.715-7.797-6.782-13.677-14.11-13.677
			c-7.413,0-13.345,5.719-14.106,13.599c-0.041,0.412-0.404,0.711-0.819,0.674c-0.412-0.04-0.714-0.406-0.674-0.819
			c0.824-8.525,7.53-14.954,15.599-14.954c8.108,0,14.817,6.465,15.604,15.039c0.039,0.413-0.266,0.778-0.678,0.816
			C38.54,20.098,38.517,20.099,38.493,20.099z"/>
		<path d="M8.769,47.408c-0.414,0-0.75-0.336-0.75-0.75V33.97c0-0.413,0.336-0.75,0.75-0.75s0.75,0.337,0.75,0.75v12.688
			C9.519,47.072,9.183,47.408,8.769,47.408z"/>
	</g>
	<g>
	</g>
	<g>
	</g>
	<g>
	</g>
	<g>
	</g>
	<g>
	</g>
	<g>
	</g>
	<g>
	</g>
	<g>
	</g>
	<g>
	</g>
	<g>
	</g>
	<g>
	</g>
	<g>
	</g>
	<g>
	</g>
	<g>
	</g>
	<g>
	</g>
</g>
<g>
</g>
<g>
</g>
<g>
</g>
<g>
</g>
<g>
</g>
<g>
</g>
<g>
</g>
<g>
</g>
<g>
</g>
<g>
</g>
<g>
</g>
<g>
</g>
<g>
</g>
<g>
</g>
<g>
</g>
</svg>
