<?xml version="1.0" encoding="iso-8859-1"?>
<!-- Generator: Adobe Illustrator 16.0.0, SVG Export Plug-In . SVG Version: 6.00 Build 0)  -->
<!DOCTYPE svg PUBLIC "-//W3C//DTD SVG 1.1//EN" "http://www.w3.org/Graphics/SVG/1.1/DTD/svg11.dtd">
<svg version="1.1" id="Capa_1" xmlns="http://www.w3.org/2000/svg" xmlns:xlink="http://www.w3.org/1999/xlink" x="0px" y="0px"
	 width="47.751px" height="47.75px" viewBox="0 0 47.751 47.75" style="enable-background:new 0 0 47.751 47.75;"
	 xml:space="preserve">
<g>
	<g id="Increase_Volume">
		<path d="M38.779,27.594c-0.264,0-0.521-0.141-0.656-0.386c-0.201-0.362-0.068-0.819,0.293-1.021
			c1.25-0.694,2.029-2.015,2.031-3.444c-0.002-1.424-0.775-2.74-2.021-3.437c-0.36-0.202-0.489-0.659-0.288-1.021
			c0.201-0.359,0.66-0.49,1.021-0.287c1.717,0.96,2.782,2.777,2.784,4.744c-0.002,1.977-1.075,3.799-2.803,4.758
			C39.027,27.565,38.902,27.594,38.779,27.594z"/>
		<path d="M39.537,31.049c-0.264,0-0.52-0.141-0.656-0.389c-0.199-0.36-0.068-0.816,0.293-1.02c2.504-1.389,4.061-4.025,4.061-6.884
			c0-2.849-1.545-5.48-4.029-6.871c-0.361-0.202-0.492-0.659-0.289-1.021c0.203-0.359,0.659-0.49,1.021-0.288
			c2.961,1.655,4.799,4.789,4.799,8.181c0,3.401-1.854,6.543-4.832,8.194C39.785,31.02,39.66,31.049,39.537,31.049z"/>
		<path d="M40.832,33.924c-0.266,0-0.521-0.141-0.658-0.389c-0.199-0.36-0.068-0.816,0.293-1.02
			c3.566-1.975,5.781-5.729,5.783-9.802c-0.002-4.054-2.203-7.802-5.746-9.784c-0.359-0.202-0.49-0.659-0.287-1.021
			c0.201-0.361,0.66-0.491,1.021-0.287c4.015,2.246,6.511,6.496,6.513,11.093c-0.002,4.617-2.515,8.875-6.556,11.112
			C41.078,33.895,40.955,33.924,40.832,33.924z"/>
		<path d="M31.007,35.795c-3.896,0-5.995-6.967-5.995-13.521s2.102-13.518,5.995-13.518c3.896,0,5.998,6.966,5.998,13.52
			C37.005,28.831,34.902,35.795,31.007,35.795z M31.007,10.756c-1.668,0-3.995,4.383-3.995,11.52c0,7.136,2.327,11.521,3.995,11.521
			s3.998-4.385,3.998-11.521C35.005,15.14,32.675,10.756,31.007,10.756z"/>
		<path d="M31.014,35.795c-1.675,0.001-28.385-7.956-28.634-8.037C1.044,27.319,0,24.893,0,22.234c0-2.464,0.844-5.159,2.456-5.544
			c0.186-0.046,1.739-0.505,3.705-1.087C26.33,9.639,30.423,8.625,31.195,8.774c0.543,0.104,0.896,0.629,0.793,1.171
			c-0.096,0.509-0.566,0.857-1.068,0.809c-1.664,0.105-18.016,4.94-24.191,6.768c-2.564,0.757-3.612,1.066-3.811,1.114
			C2.692,18.788,2,20.076,2,22.234c0,2.059,0.766,3.448,1.071,3.655c1.419,0.45,26.326,7.771,27.962,7.907
			c0.531,0.044,0.963,0.499,0.945,1.03c-0.02,0.533-0.424,0.959-0.957,0.969C31.02,35.795,31.018,35.795,31.014,35.795z"/>
		<path d="M12.681,38.995c-0.788,0-1.582-0.121-2.361-0.371c-4.186-1.342-6.659-5.965-5.512-10.305
			c0.141-0.535,0.689-0.854,1.222-0.711c0.534,0.142,0.853,0.688,0.711,1.221c-0.879,3.328,1,6.867,4.189,7.891
			c1.49,0.477,3.054,0.333,4.402-0.406c1.404-0.771,2.412-2.088,2.838-3.709c0.141-0.533,0.686-0.853,1.222-0.713
			c0.534,0.142,0.853,0.688,0.713,1.221c-0.568,2.158-1.921,3.919-3.81,4.955C15.169,38.684,13.934,38.995,12.681,38.995z"/>
		<path d="M12.708,35.649c-0.489,0-0.982-0.076-1.467-0.23c-2.604-0.834-4.142-3.71-3.427-6.41c0.071-0.268,0.345-0.428,0.611-0.355
			C8.692,28.723,8.851,29,8.78,29.264c-0.58,2.193,0.66,4.526,2.766,5.2c0.99,0.317,2.026,0.224,2.918-0.271
			c0.93-0.51,1.598-1.381,1.88-2.453c0.071-0.27,0.345-0.43,0.611-0.355c0.267,0.068,0.426,0.344,0.356,0.609
			c-0.353,1.343-1.193,2.436-2.366,3.076C14.248,35.454,13.483,35.649,12.708,35.649z"/>
		<path d="M8.62,29.557c-0.104,0-0.209-0.017-0.313-0.05c-1.675-0.546-3.037-3.807-3.037-7.271c0-3.738,1.34-6.874,3.118-7.292
			c0.538-0.123,1.075,0.208,1.202,0.746c0.126,0.536-0.206,1.073-0.742,1.201c-0.436,0.149-1.578,2.013-1.578,5.345
			c0,3.146,1.214,5.146,1.676,5.375c0.525,0.172,0.802,0.73,0.631,1.258C9.439,29.292,9.042,29.557,8.62,29.557z"/>
		<g>
			<path d="M31.382,25.8c-1.043,0-1.59-1.522-1.59-3.028c0-1.504,0.547-3.024,1.59-3.024c1.045,0,1.593,1.521,1.593,3.024
				C32.975,24.278,32.427,25.8,31.382,25.8z M31.378,20.747c-0.17,0.04-0.586,0.777-0.586,2.025c0,1.24,0.41,1.979,0.59,2.027
				c0.146-0.039,0.591-0.708,0.591-2.027C31.975,21.442,31.521,20.776,31.378,20.747z"/>
			<path d="M31.414,20.711c-0.068,0-0.139-0.015-0.205-0.044l-5.062-2.269c-0.252-0.112-0.364-0.408-0.252-0.66
				c0.111-0.251,0.41-0.366,0.66-0.252l5.064,2.269c0.252,0.111,0.363,0.407,0.252,0.66C31.787,20.602,31.604,20.711,31.414,20.711z
				"/>
			<path d="M26.35,28.104c-0.19,0-0.375-0.11-0.457-0.297c-0.113-0.252,0-0.548,0.252-0.66l5.063-2.268
				c0.252-0.115,0.547,0.001,0.66,0.252c0.112,0.252,0,0.549-0.252,0.66l-5.063,2.268C26.486,28.089,26.417,28.104,26.35,28.104z"/>
		</g>
	</g>
</g>
<g>
</g>
<g>
</g>
<g>
</g>
<g>
</g>
<g>
</g>
<g>
</g>
<g>
</g>
<g>
</g>
<g>
</g>
<g>
</g>
<g>
</g>
<g>
</g>
<g>
</g>
<g>
</g>
<g>
</g>
</svg>
