<?xml version="1.0" encoding="iso-8859-1"?>
<!-- Generator: Adobe Illustrator 16.0.0, SVG Export Plug-In . SVG Version: 6.00 Build 0)  -->
<!DOCTYPE svg PUBLIC "-//W3C//DTD SVG 1.1//EN" "http://www.w3.org/Graphics/SVG/1.1/DTD/svg11.dtd">
<svg version="1.1" id="Capa_1" xmlns="http://www.w3.org/2000/svg" xmlns:xlink="http://www.w3.org/1999/xlink" x="0px" y="0px"
	 width="48.499px" height="48.5px" viewBox="0 0 48.499 48.5" style="enable-background:new 0 0 48.499 48.5;" xml:space="preserve"
	>
<g>
	<g id="MacBook_Pro">
		<g>
			<path d="M24.097,34.406H6.693c-2.863,0-4.573-2.035-4.573-5.445V9.371c0-2.732,2.133-4.641,5.186-4.641h16.791
				c0.553,0,1,0.448,1,1c0,0.552-0.448,1-1,1H7.306C5.37,6.729,4.12,7.767,4.12,9.371v19.587c0,3.445,1.937,3.445,2.573,3.445
				h17.403c0.553,0,1,0.448,1,1C25.096,33.957,24.649,34.406,24.097,34.406z"/>
			<path d="M41.5,34.406H24.097c-0.553,0-1-0.447-1-1s0.447-1,1-1H41.5c0.64,0,2.572,0,2.572-3.445V9.371
				c0-1.604-1.25-2.641-3.186-2.641H24.096c-0.553,0-1-0.448-1-1c0-0.552,0.447-1,1-1h16.792c3.053,0,5.186,1.909,5.186,4.641
				v19.587C46.072,32.371,44.363,34.406,41.5,34.406z"/>
		</g>
		<g>
			<path d="M24.059,31.083H7.496c-2.248,0-2.248-1.395-2.248-2.742V10.1c0-0.926,0.371-2.03,2.139-2.03h16.824
				c0.276,0,0.5,0.224,0.5,0.5c0,0.276-0.224,0.5-0.5,0.5H7.387c-0.852,0-1.139,0.26-1.139,1.03v18.243c0,1.408,0,1.744,1.248,1.744
				h16.562c0.276,0,0.5,0.224,0.5,0.5C24.558,30.863,24.335,31.083,24.059,31.083z"/>
			<path d="M40.734,31.083H24.211c-0.276,0-0.5-0.224-0.5-0.5c0-0.274,0.224-0.5,0.5-0.5h16.523c1.248,0,1.248-0.334,1.248-1.742
				V10.1c0-0.77-0.287-1.03-1.141-1.03H24.211c-0.276,0-0.5-0.224-0.5-0.5c0-0.276,0.224-0.5,0.5-0.5h16.634
				c1.77,0,2.141,1.104,2.141,2.03v18.243C42.982,29.691,42.982,31.083,40.734,31.083z"/>
		</g>
		<g>
			<g>
				<path d="M9.885,35.975H7.844c-0.207,0-0.375-0.168-0.375-0.375s0.168-0.375,0.375-0.375h2.041c0.207,0,0.375,0.168,0.375,0.375
					S10.092,35.975,9.885,35.975z"/>
				<path d="M13.711,35.975H11.67c-0.207,0-0.375-0.168-0.375-0.375s0.168-0.375,0.375-0.375h2.041c0.207,0,0.375,0.168,0.375,0.375
					S13.918,35.975,13.711,35.975z"/>
				<path d="M17.539,35.975h-2.041c-0.207,0-0.375-0.168-0.375-0.375s0.168-0.375,0.375-0.375h2.041
					c0.207,0,0.375,0.168,0.375,0.375S17.746,35.975,17.539,35.975z"/>
				<path d="M21.366,35.975h-2.041c-0.207,0-0.375-0.168-0.375-0.375s0.168-0.375,0.375-0.375h2.041
					c0.207,0,0.375,0.168,0.375,0.375S21.573,35.975,21.366,35.975z"/>
				<path d="M25.191,35.975H23.15c-0.207,0-0.375-0.168-0.375-0.375s0.168-0.375,0.375-0.375h2.041c0.207,0,0.375,0.168,0.375,0.375
					S25.398,35.975,25.191,35.975z"/>
				<path d="M29.021,35.975h-2.041c-0.207,0-0.375-0.168-0.375-0.375s0.168-0.375,0.375-0.375h2.041
					c0.207,0,0.375,0.168,0.375,0.375S29.228,35.975,29.021,35.975z"/>
				<path d="M32.849,35.975h-2.041c-0.207,0-0.375-0.168-0.375-0.375s0.168-0.375,0.375-0.375h2.041
					c0.207,0,0.375,0.168,0.375,0.375S33.056,35.975,32.849,35.975z"/>
				<path d="M36.675,35.975h-2.043c-0.207,0-0.375-0.168-0.375-0.375s0.168-0.375,0.375-0.375h2.043
					c0.207,0,0.375,0.168,0.375,0.375S36.882,35.975,36.675,35.975z"/>
				<path d="M40.501,35.975H38.46c-0.207,0-0.375-0.168-0.375-0.375s0.168-0.375,0.375-0.375h2.041c0.207,0,0.375,0.168,0.375,0.375
					S40.708,35.975,40.501,35.975z"/>
			</g>
			<g>
				<path d="M9.617,36.972H7.535c-0.207,0-0.375-0.168-0.375-0.375s0.168-0.375,0.375-0.375h2.082c0.207,0,0.375,0.168,0.375,0.375
					S9.824,36.972,9.617,36.972z"/>
				<path d="M13.516,36.972h-2.08c-0.207,0-0.375-0.168-0.375-0.375s0.168-0.375,0.375-0.375h2.08c0.207,0,0.375,0.168,0.375,0.375
					S13.723,36.972,13.516,36.972z"/>
				<path d="M17.415,36.972h-2.081c-0.207,0-0.375-0.168-0.375-0.375s0.168-0.375,0.375-0.375h2.081
					c0.207,0,0.375,0.168,0.375,0.375S17.622,36.972,17.415,36.972z"/>
				<path d="M21.313,36.972h-2.08c-0.207,0-0.375-0.168-0.375-0.375s0.168-0.375,0.375-0.375h2.08c0.207,0,0.375,0.168,0.375,0.375
					S21.521,36.972,21.313,36.972z"/>
				<path d="M25.21,36.972h-2.078c-0.207,0-0.375-0.168-0.375-0.375s0.168-0.375,0.375-0.375h2.078c0.207,0,0.375,0.168,0.375,0.375
					S25.417,36.972,25.21,36.972z"/>
				<path d="M29.111,36.972h-2.08c-0.207,0-0.375-0.168-0.375-0.375s0.168-0.375,0.375-0.375h2.08c0.207,0,0.375,0.168,0.375,0.375
					S29.318,36.972,29.111,36.972z"/>
				<path d="M33.009,36.972h-2.076c-0.207,0-0.375-0.168-0.375-0.375s0.168-0.375,0.375-0.375h2.076
					c0.207,0,0.375,0.168,0.375,0.375S33.216,36.972,33.009,36.972z"/>
				<path d="M36.91,36.972h-2.082c-0.207,0-0.375-0.168-0.375-0.375s0.168-0.375,0.375-0.375h2.082c0.207,0,0.375,0.168,0.375,0.375
					S37.117,36.972,36.91,36.972z"/>
				<path d="M40.81,36.972h-2.08c-0.207,0-0.375-0.168-0.375-0.375s0.168-0.375,0.375-0.375h2.08c0.207,0,0.375,0.168,0.375,0.375
					S41.017,36.972,40.81,36.972z"/>
			</g>
			<g>
				<path d="M9.291,38.044H7.164c-0.207,0-0.375-0.168-0.375-0.375s0.168-0.375,0.375-0.375h2.127c0.207,0,0.375,0.168,0.375,0.375
					S9.498,38.044,9.291,38.044z"/>
				<path d="M13.277,38.044H11.15c-0.207,0-0.375-0.168-0.375-0.375s0.168-0.375,0.375-0.375h2.127c0.207,0,0.375,0.168,0.375,0.375
					S13.484,38.044,13.277,38.044z"/>
				<path d="M17.264,38.044h-2.127c-0.207,0-0.375-0.168-0.375-0.375s0.168-0.375,0.375-0.375h2.127
					c0.207,0,0.375,0.168,0.375,0.375S17.471,38.044,17.264,38.044z"/>
				<path d="M21.25,38.044h-2.127c-0.207,0-0.375-0.168-0.375-0.375s0.168-0.375,0.375-0.375h2.127c0.207,0,0.375,0.168,0.375,0.375
					S21.457,38.044,21.25,38.044z"/>
				<path d="M25.234,38.044h-2.125c-0.207,0-0.375-0.168-0.375-0.375s0.168-0.375,0.375-0.375h2.125
					c0.207,0,0.375,0.168,0.375,0.375S25.441,38.044,25.234,38.044z"/>
				<path d="M29.224,38.044h-2.127c-0.207,0-0.375-0.168-0.375-0.375s0.168-0.375,0.375-0.375h2.127
					c0.207,0,0.375,0.168,0.375,0.375S29.431,38.044,29.224,38.044z"/>
				<path d="M33.207,38.044h-2.125c-0.207,0-0.375-0.168-0.375-0.375s0.168-0.375,0.375-0.375h2.125
					c0.207,0,0.375,0.168,0.375,0.375S33.414,38.044,33.207,38.044z"/>
				<path d="M37.195,38.044h-2.129c-0.207,0-0.375-0.168-0.375-0.375s0.168-0.375,0.375-0.375h2.129
					c0.207,0,0.375,0.168,0.375,0.375S37.402,38.044,37.195,38.044z"/>
				<path d="M41.183,38.044h-2.127c-0.207,0-0.375-0.168-0.375-0.375s0.168-0.375,0.375-0.375h2.127
					c0.207,0,0.375,0.168,0.375,0.375S41.39,38.044,41.183,38.044z"/>
			</g>
		</g>
		<g>
			<path style="stroke:#000000;stroke-width:1.84;stroke-linecap:round;stroke-linejoin:round;stroke-miterlimit:10;" d="
				M24.14,33.373"/>
		</g>
		<g>
			<path d="M24.173,40.867H1.928c-0.647,0-1.22-0.314-1.568-0.863c-0.41-0.646-0.446-1.514-0.094-2.271l1.92-3.668
				c0.556-1.196,1.898-1.642,2.963-1.642h19.024c0.553,0,1,0.449,1,1c0,0.554-0.447,1-1,1H5.148c-0.446,0-1.003,0.166-1.171,0.525
				l-1.92,3.67c-0.041,0.09-0.041,0.185-0.03,0.246h22.146c0.553,0,1,0.446,1,1C25.173,40.417,24.726,40.867,24.173,40.867z"/>
			<path d="M24.23,43.769H2.035c-2.011,0-2.022-2.551-2.029-4.238L0,38.964c-0.011-0.551,0.429-1.008,0.98-1.021
				c0.007,0,0.014,0,0.02,0c0.544,0,0.989,0.438,1,0.979l0.006,0.597c0.002,0.604,0.008,1.815,0.188,2.248H24.23
				c0.553,0,1,0.446,1,1C25.23,43.318,24.783,43.769,24.23,43.769z"/>
			<path d="M46.572,40.867H24.326c-0.553,0-1-0.449-1-1c0-0.554,0.447-1,1-1h22.146c0.008-0.066,0.004-0.168-0.053-0.287
				l-1.879-3.586c-0.188-0.404-0.746-0.568-1.189-0.568H24.326c-0.553,0-1-0.446-1-1c0-0.551,0.447-1,1-1h19.025
				c1.062,0,2.404,0.443,2.98,1.684l1.879,3.586c0.373,0.795,0.338,1.665-0.072,2.312C47.791,40.55,47.222,40.867,46.572,40.867z"/>
			<path d="M46.464,43.769H24.27c-0.553,0-1-0.447-1-1s0.447-1,1-1h22.038c0.18-0.432,0.186-1.643,0.188-2.251l0.004-0.591
				c0.014-0.553,0.448-0.992,1.021-0.98c0.553,0.01,0.992,0.467,0.979,1.018l-0.004,0.562
				C48.486,41.216,48.478,43.769,46.464,43.769z"/>
		</g>
	</g>
</g>
<g>
</g>
<g>
</g>
<g>
</g>
<g>
</g>
<g>
</g>
<g>
</g>
<g>
</g>
<g>
</g>
<g>
</g>
<g>
</g>
<g>
</g>
<g>
</g>
<g>
</g>
<g>
</g>
<g>
</g>
</svg>
