<?xml version="1.0" encoding="iso-8859-1"?>
<!-- Generator: Adobe Illustrator 16.0.0, SVG Export Plug-In . SVG Version: 6.00 Build 0)  -->
<!DOCTYPE svg PUBLIC "-//W3C//DTD SVG 1.1//EN" "http://www.w3.org/Graphics/SVG/1.1/DTD/svg11.dtd">
<svg version="1.1" id="Capa_1" xmlns="http://www.w3.org/2000/svg" xmlns:xlink="http://www.w3.org/1999/xlink" x="0px" y="0px"
	 width="48.007px" height="48.007px" viewBox="0 0 48.007 48.007" style="enable-background:new 0 0 48.007 48.007;"
	 xml:space="preserve">
<g>
	<g id="Sharpie">
		<g>
			<g>
				<path d="M14.082,40.463c-0.255,0-0.51-0.097-0.705-0.291c-0.392-0.389-0.394-1.022-0.005-1.414l4.307-4.335
					c0.39-0.392,1.023-0.394,1.414-0.005c0.392,0.389,0.394,1.021,0.005,1.414l-4.306,4.335
					C14.596,40.365,14.338,40.463,14.082,40.463z"/>
				<path d="M8.695,35.081c-0.254,0-0.509-0.098-0.704-0.29c-0.392-0.389-0.395-1.022-0.006-1.414l4.324-4.362
					c0.388-0.393,1.022-0.395,1.414-0.006c0.392,0.389,0.395,1.022,0.006,1.414l-4.324,4.362C9.21,34.982,8.954,35.081,8.695,35.081
					z"/>
				<path style="stroke:#000000;stroke-width:2;stroke-linecap:round;stroke-linejoin:round;stroke-miterlimit:10;" d="
					M16.305,31.167"/>
				<path d="M9.071,43.099c-1.116,0-2.109-0.395-2.868-1.152c-0.988-0.986-1.334-2.414-0.975-4.021
					c0.338-1.513,1.276-3.07,2.71-4.505c0.391-0.391,1.023-0.391,1.414,0c0.391,0.39,0.391,1.023,0,1.414
					c-1.148,1.149-1.919,2.402-2.171,3.527c-0.145,0.646-0.186,1.546,0.437,2.169c0.643,0.642,1.506,0.625,2.12,0.493
					c0.778-0.164,2.029-0.685,3.575-2.229c0.391-0.391,1.023-0.391,1.414,0c0.391,0.39,0.391,1.023,0,1.414
					c-1.498,1.498-3.08,2.457-4.575,2.772C9.782,43.06,9.42,43.099,9.071,43.099z"/>
			</g>
			<path d="M18.566,36.728c-0.265,0-0.52-0.104-0.707-0.293l-6.113-6.112c-0.39-0.391-0.391-1.022-0.001-1.413l15.511-15.546
				c0.188-0.188,0.442-0.294,0.708-0.294l0,0c0.266,0,0.521,0.105,0.707,0.293l6.112,6.113c0.39,0.39,0.391,1.022,0.001,1.413
				l-15.51,15.545C19.087,36.623,18.833,36.728,18.566,36.728L18.566,36.728z M13.868,29.615l4.699,4.698l14.097-14.129
				l-4.698-4.699L13.868,29.615z"/>
			<g>
				<path d="M34.438,21.823c-0.256,0-0.513-0.098-0.707-0.293c-0.392-0.39-0.392-1.023,0-1.414c0.396-0.397,0.818-0.814,1.255-1.245
					c2.817-2.786,6.326-6.252,7.403-8.653c0.226-0.504,0.818-0.729,1.321-0.503c0.504,0.226,0.729,0.818,0.503,1.322
					c-1.229,2.742-4.731,6.203-7.821,9.257c-0.434,0.428-0.853,0.842-1.247,1.237C34.95,21.726,34.693,21.823,34.438,21.823z"/>
				<path d="M27.322,14.708c-0.256,0-0.512-0.098-0.707-0.292c-0.391-0.391-0.391-1.023-0.001-1.414
					c0.59-0.59,1.221-1.246,1.877-1.927c2.772-2.877,5.915-6.138,8.501-7.255c0.505-0.219,1.096,0.014,1.314,0.521
					c0.219,0.507-0.015,1.095-0.521,1.314c-2.218,0.958-5.343,4.202-7.854,6.807c-0.665,0.69-1.306,1.354-1.902,1.952
					C27.834,14.612,27.578,14.708,27.322,14.708z"/>
				<path d="M43.276,11.65c-0.164,0-0.329-0.04-0.482-0.125c-0.482-0.267-0.659-0.875-0.392-1.359
					c0.345-0.625,0.68-0.906,1.143-1.296c0.309-0.259,0.692-0.582,1.267-1.156c1.153-1.154,1.705-3.201,0.581-4.498l-0.385-0.421
					c-1.521-1.387-3.497-0.771-4.752,0.485c-0.568,0.569-0.84,0.899-1.058,1.164c-0.356,0.434-0.592,0.7-1.284,1.144
					c-0.466,0.299-1.084,0.163-1.382-0.301c-0.298-0.465-0.163-1.083,0.302-1.381c0.46-0.295,0.543-0.396,0.818-0.731
					c0.232-0.283,0.551-0.67,1.188-1.308c2.244-2.245,5.433-2.448,7.581-0.482l0.464,0.504c1.918,2.214,1.165,5.415-0.661,7.241
					c-0.636,0.635-1.073,1.003-1.394,1.272c-0.394,0.332-0.513,0.432-0.679,0.732C43.971,11.463,43.628,11.65,43.276,11.65z"/>
			</g>
		</g>
		<g>
			<g>
				<path d="M36.018,14.417c-0.192,0-0.385-0.073-0.53-0.22c-0.293-0.293-0.293-0.768,0-1.061l7.023-7.024
					c0.294-0.293,0.769-0.293,1.062,0s0.293,0.768,0,1.061l-7.024,7.024C36.401,14.345,36.209,14.417,36.018,14.417z"/>
				<path d="M34.326,12.731c-0.192,0-0.384-0.073-0.53-0.22c-0.293-0.293-0.293-0.768,0-1.061l7.026-7.026
					c0.293-0.293,0.768-0.293,1.061,0c0.293,0.293,0.293,0.768,0,1.061l-7.025,7.026C34.709,12.659,34.518,12.731,34.326,12.731z"/>
				<path d="M43.036,7.388c-0.192,0-0.384-0.073-0.531-0.22c-0.292-0.293-0.292-0.768,0.001-1.061s0.397-0.604,0.397-0.797
					c0-0.046-0.006-0.129-0.048-0.171c-0.043-0.043-0.127-0.049-0.174-0.049l0,0c-0.194,0-0.507,0.104-0.799,0.396
					c-0.293,0.293-0.768,0.293-1.061,0s-0.293-0.768,0-1.061c0.531-0.531,1.209-0.836,1.859-0.836c0,0,0.001,0,0.002,0
					c0.48,0,0.92,0.174,1.233,0.489c0.313,0.312,0.487,0.75,0.487,1.231c0,0.649-0.305,1.327-0.838,1.859
					C43.418,7.314,43.228,7.388,43.036,7.388z"/>
				<path d="M34.635,15.08c-0.467,0-0.903-0.16-1.232-0.488c-0.397-0.397-0.563-0.98-0.457-1.602
					c0.092-0.536,0.377-1.066,0.805-1.494c0.293-0.293,0.769-0.293,1.062,0s0.293,0.768,0,1.061
					c-0.207,0.207-0.349,0.457-0.388,0.686c-0.021,0.131-0.008,0.242,0.039,0.288c0.108,0.108,0.569,0.054,0.972-0.35
					c0.293-0.294,0.768-0.293,1.061-0.001s0.293,0.768,0.001,1.061C35.943,14.793,35.261,15.08,34.635,15.08z"/>
			</g>
			<path d="M18.638,30.751c-0.046,0-0.092-0.004-0.139-0.013c-0.407-0.077-0.675-0.469-0.599-0.875
				c0.351-1.872,1.513-3.065,3.361-3.451c1.516-0.316,2.241-1.291,2.287-2.115c0.069-1.247,0.499-2.972,3.428-3.557
				c0.408-0.084,0.801,0.183,0.882,0.588c0.081,0.406-0.183,0.801-0.588,0.882c-1.966,0.393-2.173,1.25-2.224,2.169
				c-0.078,1.397-1.184,3.021-3.479,3.501c-1.257,0.262-1.954,0.98-2.193,2.259C19.306,30.5,18.99,30.751,18.638,30.751z"/>
			<path d="M10.322,39.829c-0.192,0-0.384-0.073-0.53-0.221c-0.293-0.293-0.293-0.768,0-1.061l3.262-3.262
				c0.293-0.293,0.768-0.293,1.061,0c0.293,0.293,0.293,0.768,0,1.061l-3.262,3.262C10.707,39.754,10.515,39.829,10.322,39.829z"/>
		</g>
		<g>
			<path d="M31.237,47.97h-19.86c-0.552,0-1-0.448-1-1s0.448-1,1-1h19.86c0.552,0,1,0.448,1,1S31.79,47.97,31.237,47.97z"/>
			<path d="M31.237,41.162H18.708c-0.552,0-1-0.448-1-1s0.448-1,1-1h12.529c0.552,0,1,0.448,1,1S31.79,41.162,31.237,41.162z"/>
			<path d="M38.997,44.452H15.155c-0.552,0-1-0.448-1-1c0-0.553,0.448-1,1-1h23.841c0.552,0,1,0.447,1,1
				C39.997,44.003,39.548,44.452,38.997,44.452z"/>
		</g>
		<g>
			<g>
				<polygon points="3.026,43.206 0.501,45.74 2.711,47.147 5.145,45.321 				"/>
				<path d="M2.711,47.647c-0.093,0-0.187-0.025-0.269-0.078l-2.21-1.409c-0.128-0.081-0.212-0.216-0.229-0.367
					s0.036-0.3,0.143-0.408l2.525-2.533c0.094-0.094,0.221-0.146,0.354-0.146l0,0c0.132,0,0.26,0.053,0.354,0.146l2.117,2.114
					c0.103,0.104,0.155,0.245,0.145,0.389c-0.01,0.146-0.083,0.278-0.198,0.365l-2.432,1.829
					C2.922,47.615,2.817,47.647,2.711,47.647z M1.294,45.652l1.394,0.888l1.695-1.273l-1.355-1.354L1.294,45.652z"/>
			</g>
			<path d="M5.354,46.243c-0.014,0-0.028,0-0.042-0.001C5.1,46.229,4.901,46.127,4.769,45.96c-0.006-0.008-0.654-0.818-1.187-1.354
				c-0.535-0.532-1.34-1.177-1.348-1.184c-0.167-0.133-0.269-0.331-0.281-0.544c-0.012-0.213,0.068-0.421,0.219-0.572l2.058-2.058
				c0.009-0.009,0.018-0.02,0.027-0.028l0.662-0.661c0.293-0.292,0.768-0.292,1.061,0.001c0.292,0.293,0.292,0.769,0,1.061
				l-2.165,2.165c0.266,0.229,0.572,0.502,0.831,0.76c0.258,0.26,0.533,0.568,0.762,0.835l2.139-2.143
				c0.292-0.293,0.768-0.295,1.061-0.002c0.293,0.292,0.294,0.768,0.002,1.061l-2.725,2.727C5.744,46.164,5.552,46.243,5.354,46.243
				z"/>
		</g>
	</g>
	<g>
	</g>
	<g>
	</g>
	<g>
	</g>
	<g>
	</g>
	<g>
	</g>
	<g>
	</g>
	<g>
	</g>
	<g>
	</g>
	<g>
	</g>
	<g>
	</g>
	<g>
	</g>
	<g>
	</g>
	<g>
	</g>
	<g>
	</g>
	<g>
	</g>
</g>
<g>
</g>
<g>
</g>
<g>
</g>
<g>
</g>
<g>
</g>
<g>
</g>
<g>
</g>
<g>
</g>
<g>
</g>
<g>
</g>
<g>
</g>
<g>
</g>
<g>
</g>
<g>
</g>
<g>
</g>
</svg>
