<?xml version="1.0" encoding="iso-8859-1"?>
<!-- Generator: Adobe Illustrator 16.0.0, SVG Export Plug-In . SVG Version: 6.00 Build 0)  -->
<!DOCTYPE svg PUBLIC "-//W3C//DTD SVG 1.1//EN" "http://www.w3.org/Graphics/SVG/1.1/DTD/svg11.dtd">
<svg version="1.1" id="Capa_1" xmlns="http://www.w3.org/2000/svg" xmlns:xlink="http://www.w3.org/1999/xlink" x="0px" y="0px"
	 width="47.797px" height="47.796px" viewBox="0 0 47.797 47.796" style="enable-background:new 0 0 47.797 47.796;"
	 xml:space="preserve">
<g>
	<g id="Mute">
		<path d="M31.007,35.819c-3.896,0-5.995-6.966-5.995-13.521c0-6.554,2.102-13.519,5.995-13.519c3.896,0,5.998,6.965,5.998,13.521
			C37.005,28.853,34.902,35.819,31.007,35.819z M31.007,10.78c-1.668,0-3.995,4.382-3.995,11.521c0,7.138,2.327,11.521,3.995,11.521
			c1.669,0,3.998-4.383,3.998-11.521C35.005,15.162,32.676,10.78,31.007,10.78z"/>
		<path d="M31.014,35.819c-1.723,0-28.387-7.959-28.635-8.039C1.044,27.343,0,24.919,0,22.257c0-2.466,0.844-5.162,2.458-5.544
			c0.184-0.045,1.734-0.503,3.697-1.084c20.169-5.968,24.261-6.979,25.042-6.83c0.544,0.104,0.896,0.63,0.794,1.172
			c-0.099,0.508-0.567,0.855-1.07,0.806C29.253,10.882,12.9,15.72,6.724,17.548c-2.559,0.755-3.606,1.063-3.805,1.111
			C2.691,18.811,2,20.099,2,22.257c0,2.057,0.766,3.444,1.07,3.651c1.412,0.451,26.28,7.771,27.963,7.91
			c0.529,0.044,0.963,0.499,0.943,1.032c-0.02,0.532-0.424,0.959-0.957,0.967C31.02,35.819,31.018,35.819,31.014,35.819z"/>
		<path d="M12.683,39.018c-0.788,0-1.583-0.124-2.363-0.374c-4.187-1.342-6.66-5.962-5.512-10.303
			c0.141-0.533,0.686-0.854,1.223-0.711c0.534,0.143,0.852,0.688,0.711,1.224c-0.88,3.327,0.999,6.864,4.189,7.886
			c1.49,0.479,3.053,0.335,4.401-0.402c1.404-0.771,2.413-2.088,2.839-3.711c0.14-0.533,0.685-0.854,1.222-0.713
			c0.534,0.143,0.853,0.688,0.713,1.223c-0.568,2.158-1.922,3.918-3.812,4.955C15.167,38.708,13.934,39.018,12.683,39.018z"/>
		<path d="M12.705,35.662c-0.487,0-0.979-0.074-1.461-0.229c-2.6-0.833-4.134-3.704-3.421-6.398
			c0.069-0.262,0.339-0.416,0.599-0.349c0.262,0.068,0.417,0.338,0.348,0.599c-0.582,2.199,0.662,4.538,2.772,5.218
			c0.992,0.314,2.031,0.22,2.927-0.271c0.932-0.512,1.602-1.385,1.885-2.461c0.068-0.262,0.341-0.422,0.598-0.35
			c0.262,0.066,0.418,0.338,0.349,0.6c-0.352,1.338-1.19,2.428-2.36,3.07C14.245,35.468,13.48,35.662,12.705,35.662z"/>
		<path d="M8.62,29.58c-0.104,0-0.209-0.017-0.313-0.05c-1.675-0.545-3.037-3.807-3.037-7.271c0-3.738,1.34-6.873,3.117-7.293
			c0.537-0.124,1.076,0.207,1.203,0.744c0.127,0.534-0.205,1.072-0.741,1.2c-0.436,0.15-1.579,2.016-1.579,5.349
			c0,3.146,1.214,5.146,1.675,5.375c0.525,0.172,0.803,0.729,0.632,1.258C9.439,29.313,9.042,29.58,8.62,29.58z"/>
		<g>
			<path d="M31.382,25.823c-1.043,0-1.589-1.521-1.589-3.025c0-1.504,0.546-3.025,1.589-3.025c1.044,0,1.593,1.521,1.593,3.025
				C32.975,24.302,32.426,25.823,31.382,25.823z M31.379,20.77c-0.171,0.039-0.586,0.776-0.586,2.025
				c0,1.238,0.41,1.978,0.589,2.024c0.146-0.039,0.591-0.707,0.591-2.024C31.975,21.466,31.521,20.8,31.379,20.77z"/>
			<path d="M31.413,20.734c-0.067,0-0.138-0.014-0.204-0.044l-5.064-2.267c-0.252-0.112-0.365-0.408-0.252-0.66
				c0.112-0.251,0.406-0.367,0.662-0.252l5.063,2.267c0.252,0.112,0.364,0.408,0.252,0.66
				C31.786,20.625,31.604,20.734,31.413,20.734z"/>
			<path d="M26.35,28.126c-0.19,0-0.375-0.109-0.457-0.297c-0.113-0.253,0-0.549,0.252-0.658l5.063-2.271
				c0.252-0.116,0.547,0.001,0.661,0.252c0.111,0.252,0,0.548-0.252,0.66l-5.065,2.271C26.484,28.112,26.416,28.126,26.35,28.126z"
				/>
		</g>
		<g>
			<path d="M43.646,21.301c-0.127,0-0.256-0.049-0.354-0.146c-0.194-0.193-0.194-0.512,0-0.707l1.631-1.63
				c0.195-0.193,0.513-0.193,0.707,0c0.195,0.195,0.195,0.512,0,0.707L44,21.154C43.9,21.253,43.773,21.301,43.646,21.301z"/>
			<path d="M40.312,24.634c-0.127,0-0.256-0.049-0.354-0.146c-0.194-0.192-0.194-0.512,0-0.707l1.673-1.674
				c0.195-0.195,0.514-0.195,0.707,0c0.195,0.195,0.195,0.512,0,0.707l-1.673,1.674C40.566,24.587,40.438,24.634,40.312,24.634z"/>
			<path d="M45.309,22.962c-0.127,0-0.257-0.051-0.354-0.146c-0.195-0.195-0.195-0.512,0-0.707l1.63-1.631
				c0.193-0.195,0.514-0.195,0.707,0c0.193,0.195,0.193,0.512,0,0.707l-1.63,1.631C45.562,22.913,45.438,22.962,45.309,22.962z"/>
			<path d="M41.973,26.296c-0.127,0-0.257-0.051-0.354-0.146c-0.195-0.195-0.195-0.512,0-0.707l1.676-1.675
				c0.194-0.195,0.513-0.195,0.707,0c0.194,0.194,0.194,0.512,0,0.707l-1.676,1.675C42.229,26.248,42.102,26.296,41.973,26.296z"/>
			<path d="M41.982,22.962c-0.127,0-0.256-0.051-0.354-0.146l-1.648-1.652c-0.195-0.193-0.195-0.512,0-0.705
				c0.192-0.195,0.512-0.195,0.707,0l1.648,1.65c0.193,0.195,0.193,0.512,0,0.707C42.24,22.913,42.111,22.962,41.982,22.962z"/>
			<path d="M45.299,26.274c-0.128,0-0.256-0.049-0.354-0.146l-1.65-1.651c-0.193-0.195-0.193-0.513,0-0.707
				c0.193-0.195,0.514-0.195,0.707,0l1.65,1.651c0.195,0.192,0.195,0.512,0,0.707C45.557,26.225,45.427,26.274,45.299,26.274z"/>
			<path d="M43.646,21.301c-0.127,0-0.256-0.049-0.354-0.146l-1.651-1.65c-0.195-0.195-0.195-0.514,0-0.707
				c0.193-0.195,0.512-0.195,0.707,0L44,20.448c0.193,0.195,0.193,0.514,0,0.707C43.9,21.253,43.773,21.301,43.646,21.301z"/>
			<path d="M46.959,24.613c-0.128,0-0.256-0.049-0.354-0.146l-1.65-1.65c-0.195-0.195-0.195-0.512,0-0.707
				c0.193-0.195,0.512-0.195,0.707,0l1.65,1.651c0.194,0.193,0.194,0.512,0,0.707C47.215,24.564,47.087,24.613,46.959,24.613z"/>
			<path d="M46.129,26.61c-0.443,0-0.863-0.173-1.179-0.487c-0.195-0.195-0.195-0.514,0.001-0.705c0.193-0.195,0.512-0.195,0.707,0
				c0.251,0.252,0.691,0.252,0.943-0.004c0.262-0.262,0.264-0.687,0.002-0.945c-0.194-0.195-0.194-0.514,0-0.707
				c0.194-0.195,0.514-0.195,0.707,0c0.648,0.65,0.648,1.71,0,2.359C46.996,26.436,46.576,26.61,46.129,26.61z"/>
			<path d="M40.339,21.303c-0.128,0-0.256-0.049-0.354-0.146c-0.649-0.648-0.649-1.71,0.002-2.359
				c0.313-0.315,0.734-0.489,1.181-0.49h0.001c0.445,0,0.865,0.174,1.182,0.489c0.193,0.193,0.193,0.512,0,0.707
				c-0.195,0.193-0.514,0.193-0.707,0c-0.127-0.126-0.295-0.196-0.475-0.196l0,0c-0.178,0.001-0.348,0.07-0.475,0.197
				c-0.262,0.262-0.262,0.687-0.002,0.945c0.195,0.195,0.195,0.514,0,0.707C40.596,21.255,40.467,21.303,40.339,21.303z"/>
			<path d="M41.146,26.639c-0.444,0-0.865-0.175-1.183-0.49c-0.647-0.647-0.649-1.709-0.001-2.36
				c0.195-0.194,0.514-0.192,0.708-0.002c0.195,0.195,0.196,0.514,0.001,0.707c-0.261,0.264-0.261,0.688,0,0.948
				c0.127,0.127,0.295,0.197,0.477,0.197l0,0c0.18-0.001,0.347-0.07,0.472-0.196c0.194-0.195,0.512-0.193,0.708-0.002
				c0.193,0.195,0.195,0.512,0.001,0.707c-0.313,0.316-0.731,0.49-1.179,0.491C41.146,26.639,41.146,26.639,41.146,26.639z"/>
			<path d="M46.887,21.383c-0.129,0-0.256-0.049-0.354-0.146c-0.196-0.192-0.196-0.511-0.001-0.707c0.261-0.262,0.262-0.688,0-0.946
				c-0.263-0.262-0.687-0.263-0.947,0.001c-0.194,0.193-0.512,0.193-0.707,0c-0.194-0.195-0.194-0.514,0-0.707
				c0.649-0.65,1.709-0.652,2.36-0.001c0.65,0.648,0.65,1.71,0.002,2.36C47.143,21.335,47.016,21.383,46.887,21.383z"/>
		</g>
	</g>
</g>
<g>
</g>
<g>
</g>
<g>
</g>
<g>
</g>
<g>
</g>
<g>
</g>
<g>
</g>
<g>
</g>
<g>
</g>
<g>
</g>
<g>
</g>
<g>
</g>
<g>
</g>
<g>
</g>
<g>
</g>
</svg>
