<?xml version="1.0" encoding="iso-8859-1"?>
<!-- Generator: Adobe Illustrator 16.0.0, SVG Export Plug-In . SVG Version: 6.00 Build 0)  -->
<!DOCTYPE svg PUBLIC "-//W3C//DTD SVG 1.1//EN" "http://www.w3.org/Graphics/SVG/1.1/DTD/svg11.dtd">
<svg version="1.1" id="Capa_1" xmlns="http://www.w3.org/2000/svg" xmlns:xlink="http://www.w3.org/1999/xlink" x="0px" y="0px"
	 width="47.855px" height="47.855px" viewBox="0 0 47.855 47.855" style="enable-background:new 0 0 47.855 47.855;"
	 xml:space="preserve">
<g>
	<g id="Next_Chapter">
		<path d="M23.929,47.854h-0.015c-6.391,0-12.397-2.49-16.914-7.011c-4.518-4.52-7.003-10.528-7-16.918
			c-0.002-6.39,2.485-12.397,7.005-16.917c4.518-4.519,10.527-7.008,16.92-7.008c13.19,0,23.927,10.735,23.931,23.931
			C47.852,37.123,37.117,47.854,23.929,47.854z M23.925,2.001c-5.859,0-11.365,2.281-15.506,6.422
			C4.277,12.564,1.998,18.07,2,23.926c-0.003,5.856,2.275,11.362,6.414,15.505c4.14,4.143,9.645,6.424,15.5,6.424v1l0.014-1
			c12.087,0,21.923-9.834,21.927-21.922C45.852,11.839,36.014,2.001,23.925,2.001z"/>
		<path d="M23.942,43.286h-0.004c-5.169,0-10.03-2.016-13.687-5.672c-3.657-3.657-5.671-8.52-5.67-13.688
			c-0.001-5.169,2.013-10.03,5.669-13.687c3.657-3.657,8.519-5.672,13.689-5.672c5.176,0.001,10.038,2.016,13.694,5.673
			c3.656,3.656,5.669,8.517,5.668,13.686C43.305,34.599,34.62,43.284,23.942,43.286z M23.944,6.567
			c-4.641,0-8.999,1.806-12.278,5.086c-3.279,3.278-5.084,7.638-5.084,12.272c0,4.637,1.805,8.995,5.084,12.274
			c3.278,3.278,7.638,5.086,12.272,5.086v1l0.004-1c9.574-0.002,17.363-7.79,17.36-17.36c0.001-4.635-1.804-8.993-5.081-12.271
			C32.941,8.375,28.582,6.568,23.944,6.567z"/>
		<path d="M16.224,32.733c-0.162,0-0.324-0.039-0.472-0.118c-0.325-0.175-0.528-0.513-0.528-0.882v-15.82
			c0-0.369,0.203-0.707,0.528-0.882c0.323-0.174,0.718-0.155,1.025,0.05l11.88,7.908c0.278,0.185,0.446,0.497,0.446,0.832
			c0,0.334-0.168,0.646-0.445,0.833l-11.88,7.912C16.61,32.677,16.417,32.733,16.224,32.733z M17.224,17.78v12.086l9.075-6.045
			L17.224,17.78z"/>
		<path d="M31.363,32.84c-0.553,0-1-0.446-1-1V16.019c0-0.553,0.447-1,1-1s1,0.447,1,1V31.84
			C32.363,32.394,31.916,32.84,31.363,32.84z"/>
	</g>
	<g>
	</g>
	<g>
	</g>
	<g>
	</g>
	<g>
	</g>
	<g>
	</g>
	<g>
	</g>
	<g>
	</g>
	<g>
	</g>
	<g>
	</g>
	<g>
	</g>
	<g>
	</g>
	<g>
	</g>
	<g>
	</g>
	<g>
	</g>
	<g>
	</g>
</g>
<g>
</g>
<g>
</g>
<g>
</g>
<g>
</g>
<g>
</g>
<g>
</g>
<g>
</g>
<g>
</g>
<g>
</g>
<g>
</g>
<g>
</g>
<g>
</g>
<g>
</g>
<g>
</g>
<g>
</g>
</svg>
