<?xml version="1.0" encoding="iso-8859-1"?>
<!-- Generator: Adobe Illustrator 16.0.0, SVG Export Plug-In . SVG Version: 6.00 Build 0)  -->
<!DOCTYPE svg PUBLIC "-//W3C//DTD SVG 1.1//EN" "http://www.w3.org/Graphics/SVG/1.1/DTD/svg11.dtd">
<svg version="1.1" id="Capa_1" xmlns="http://www.w3.org/2000/svg" xmlns:xlink="http://www.w3.org/1999/xlink" x="0px" y="0px"
	 width="47.769px" height="47.77px" viewBox="0 0 47.769 47.77" style="enable-background:new 0 0 47.769 47.77;"
	 xml:space="preserve">
<g>
	<g id="Notebook">
		<g>
			<g>
				<path d="M6.861,15.184c-0.551,0-0.998-0.445-1-0.996l-0.016-4.25C5.844,9.385,6.289,8.936,6.842,8.934c0.001,0,0.003,0,0.004,0
					c0.551,0,0.998,0.445,1,0.996l0.016,4.25c0.002,0.553-0.444,1.002-0.996,1.004C6.864,15.184,6.862,15.184,6.861,15.184z"/>
				<path d="M6.845,23.082c-0.552,0-1-0.448-1-1v-4.4c0-0.552,0.448-1,1-1c0.552,0,1,0.448,1,1v4.4
					C7.845,22.634,7.398,23.082,6.845,23.082z"/>
				<path d="M6.845,31.134c-0.552,0-1-0.448-1-1v-4.196c0-0.553,0.448-1,1-1c0.552,0,1,0.447,1,1v4.196
					C7.845,30.686,7.398,31.134,6.845,31.134z"/>
				<path d="M6.845,39.062c-0.552,0-1-0.447-1-1v-4.166c0-0.553,0.448-1,1-1c0.552,0,1,0.447,1,1v4.166
					C7.845,38.616,7.398,39.062,6.845,39.062z"/>
				<path d="M38.038,47.77H13.463c-3.431,0-6.455-2.309-7.353-5.615c-0.145-0.533,0.17-1.084,0.703-1.228
					c0.535-0.143,1.083,0.171,1.227,0.703c0.663,2.438,2.892,4.14,5.423,4.14h24.575c3.097,0,5.617-2.52,5.617-5.615V7.616
					C43.655,4.52,41.134,2,38.038,2H13.463c-2.829,0-5.109,1.846-5.544,4.49C7.829,7.034,7.318,7.399,6.77,7.314
					C6.225,7.224,5.856,6.71,5.946,6.165C6.543,2.535,9.634,0,13.463,0h24.575c4.2,0,7.617,3.417,7.617,7.616v32.538
					C45.655,44.354,42.238,47.77,38.038,47.77z"/>
			</g>
			<g>
				<path d="M9.333,10.373H4.357c-1.236,0-2.242-1.006-2.242-2.243c0-1.236,1.006-2.242,2.242-2.242h4.976
					c1.236,0,2.242,1.006,2.242,2.242C11.575,9.367,10.569,10.373,9.333,10.373z M4.357,7.388c-0.409,0-0.742,0.333-0.742,0.742
					c0,0.41,0.333,0.743,0.742,0.743h4.976c0.409,0,0.742-0.333,0.742-0.743c0-0.409-0.333-0.742-0.742-0.742H4.357z"/>
				<path d="M9.333,18.167H4.357c-1.236,0-2.242-1.005-2.242-2.242c0-1.236,1.006-2.242,2.242-2.242h4.976
					c1.236,0,2.242,1.006,2.242,2.242C11.575,17.162,10.569,18.167,9.333,18.167z M4.357,15.183c-0.409,0-0.742,0.333-0.742,0.742
					c0,0.41,0.333,0.743,0.742,0.743h4.976c0.409,0,0.742-0.333,0.742-0.743c0-0.409-0.333-0.742-0.742-0.742H4.357z"/>
				<path d="M9.333,26.292H4.357c-1.236,0-2.242-1.005-2.242-2.241c0-1.237,1.006-2.243,2.242-2.243h4.976
					c1.236,0,2.242,1.006,2.242,2.243C11.575,25.287,10.569,26.292,9.333,26.292z M4.357,23.308c-0.409,0-0.742,0.333-0.742,0.743
					c0,0.409,0.333,0.742,0.742,0.742h4.976c0.409,0,0.742-0.333,0.742-0.742c0-0.41-0.333-0.743-0.742-0.743H4.357z"/>
				<path d="M9.333,34.252H4.357c-1.236,0-2.242-1.005-2.242-2.242c0-1.236,1.006-2.242,2.242-2.242h4.976
					c1.236,0,2.242,1.006,2.242,2.242C11.575,33.247,10.569,34.252,9.333,34.252z M4.357,31.268c-0.409,0-0.742,0.334-0.742,0.743
					s0.333,0.742,0.742,0.742h4.976c0.409,0,0.742-0.333,0.742-0.742s-0.333-0.743-0.742-0.743H4.357z"/>
				<path d="M9.333,42.212H4.357c-1.236,0-2.242-1.005-2.242-2.242s1.006-2.243,2.242-2.243h4.976c1.236,0,2.242,1.006,2.242,2.243
					S10.569,42.212,9.333,42.212z M4.357,39.229c-0.409,0-0.742,0.332-0.742,0.742c0,0.409,0.333,0.742,0.742,0.742h4.976
					c0.409,0,0.742-0.333,0.742-0.742c0-0.41-0.333-0.742-0.742-0.742H4.357z"/>
			</g>
		</g>
		<g>
			<g>
				<g>
					<path style="stroke:#000000;stroke-width:1.5;stroke-linecap:round;stroke-linejoin:round;stroke-miterlimit:10;" d="
						M32.999,7.307"/>
					<path style="stroke:#000000;stroke-width:1.5;stroke-linecap:round;stroke-linejoin:round;stroke-miterlimit:10;" d="
						M36.351,7.799"/>
					<path d="M34.302,12.164c-0.262,0-0.517-0.138-0.653-0.382c-1.245-2.215-1.595-3.377-1.388-4.607
						c0.19-1.128,1.381-2.239,2.774-2.029c0.642,0.093,1.212,0.433,1.603,0.956c0.389,0.522,0.55,1.164,0.455,1.807
						c-0.061,0.41-0.446,0.688-0.851,0.633C35.832,8.48,35.548,8.1,35.609,7.69c0.037-0.247-0.026-0.493-0.176-0.693
						c-0.149-0.201-0.368-0.332-0.617-0.368c-0.494-0.078-1.008,0.384-1.077,0.795c-0.123,0.728,0.035,1.52,1.216,3.622
						c0.203,0.361,0.075,0.818-0.285,1.021C34.554,12.133,34.427,12.164,34.302,12.164z"/>
				</g>
				<g>
					<path d="M34.698,12.5c-0.093,0-0.188-0.018-0.28-0.054c-0.496-0.198-0.695-0.516-0.869-0.853
						c-0.191-0.368-0.049-0.82,0.319-1.011c0.367-0.191,0.821-0.048,1.011,0.32c0.062,0.117,0.084,0.15,0.092,0.158
						c0.386,0.153,0.574,0.585,0.42,0.97C35.275,12.324,34.994,12.5,34.698,12.5z"/>
				</g>
				<g>
					<path style="stroke:#000000;stroke-width:1.5;stroke-linecap:round;stroke-linejoin:round;stroke-miterlimit:10;" d="
						M39.05,9.837"/>
					<path style="stroke:#000000;stroke-width:1.5;stroke-linecap:round;stroke-linejoin:round;stroke-miterlimit:10;" d="
						M36.345,7.797"/>
					<path d="M35.21,12.542c-0.33,0-0.633-0.219-0.724-0.553c-0.108-0.399,0.126-0.812,0.526-0.921c2.324-0.634,3-1.079,3.433-1.679
						c0.248-0.344,0.208-1.022-0.19-1.323c-0.201-0.151-0.447-0.215-0.695-0.181c-0.247,0.034-0.467,0.163-0.616,0.362
						c-0.249,0.332-0.72,0.397-1.05,0.147c-0.331-0.249-0.396-0.719-0.147-1.05c0.392-0.519,0.962-0.854,1.606-0.944
						c0.645-0.09,1.285,0.076,1.805,0.469c1.128,0.849,1.171,2.472,0.504,3.398c-0.74,1.025-1.773,1.571-4.255,2.248
						C35.341,12.534,35.276,12.542,35.21,12.542z"/>
				</g>
				<g>
					<path d="M34.993,12.566c-0.181,0-0.377-0.034-0.594-0.128c-0.382-0.164-0.556-0.605-0.394-0.986
						c0.164-0.38,0.604-0.557,0.985-0.392c0.009,0.007,0.05,0,0.177-0.04c0.396-0.121,0.816,0.1,0.938,0.496
						s-0.101,0.816-0.496,0.938C35.419,12.514,35.218,12.566,34.993,12.566z"/>
				</g>
			</g>
			<g>
				<g>
					<g>
						<g>
							<path d="M24.966,37.93c-0.414,0-0.75-0.337-0.75-0.75v-2.801c0-0.414,0.336-0.75,0.75-0.75s0.75,0.336,0.75,0.75v2.801
								C25.716,37.593,25.38,37.93,24.966,37.93z"/>
							<path d="M28.425,37.93c-0.414,0-0.75-0.337-0.75-0.75v-2.801c0-0.414,0.336-0.75,0.75-0.75s0.75,0.336,0.75,0.75v2.801
								C29.175,37.593,28.839,37.93,28.425,37.93z"/>
						</g>
						<path d="M26.685,39.667c-1.363,0-2.473-1.108-2.473-2.472c0-0.414,0.336-0.75,0.75-0.75s0.75,0.336,0.75,0.75
							c0,0.535,0.437,0.972,0.973,0.972c0.537,0,0.974-0.437,0.974-0.972c0-0.414,0.336-0.75,0.75-0.75s0.75,0.336,0.75,0.75
							C29.159,38.559,28.048,39.667,26.685,39.667z"/>
					</g>
					<g>
						<g>
							<path d="M19.061,37.99c-0.414,0-0.75-0.336-0.75-0.75v-2.775c0-0.414,0.336-0.75,0.75-0.75c0.414,0,0.75,0.336,0.75,0.75
								v2.775C19.811,37.654,19.475,37.99,19.061,37.99z"/>
							<path d="M22.518,37.99c-0.414,0-0.75-0.336-0.75-0.75v-2.83c0-0.414,0.336-0.75,0.75-0.75s0.75,0.336,0.75,0.75v2.83
								C23.268,37.654,22.932,37.99,22.518,37.99z"/>
							<path d="M19.073,35.143c-0.414,0-0.75-0.336-0.75-0.75c0-0.945,0.526-1.793,1.373-2.215c0.371-0.183,0.821-0.031,1.005,0.338
								c0.184,0.371,0.033,0.821-0.338,1.006c-0.333,0.164-0.54,0.498-0.54,0.871C19.823,34.807,19.487,35.143,19.073,35.143z"/>
						</g>
						<path d="M20.779,39.727c-1.363,0-2.472-1.108-2.472-2.472c0-0.414,0.336-0.75,0.75-0.75s0.75,0.336,0.75,0.75
							c0,0.536,0.436,0.972,0.972,0.972c0.537,0,0.974-0.436,0.974-0.972c0-0.414,0.336-0.75,0.75-0.75
							c0.414,0,0.75,0.336,0.75,0.75C23.253,38.618,22.143,39.727,20.779,39.727z"/>
					</g>
					<g>
						<g>
							<path d="M30.753,37.93c-0.414,0-0.75-0.337-0.75-0.75v-2.77c0-0.414,0.336-0.75,0.75-0.75c0.413,0,0.75,0.336,0.75,0.75v2.77
								C31.503,37.593,31.167,37.93,30.753,37.93z"/>
							<path d="M34.208,37.93c-0.413,0-0.75-0.337-0.75-0.75v-2.781c0-0.414,0.337-0.75,0.75-0.75c0.414,0,0.75,0.336,0.75,0.75
								v2.781C34.958,37.593,34.622,37.93,34.208,37.93z"/>
							<path d="M34.208,35.083c-0.413,0-0.75-0.336-0.75-0.75c0-0.374-0.206-0.708-0.54-0.872c-0.371-0.184-0.523-0.633-0.341-1.004
								c0.183-0.372,0.634-0.523,1.004-0.341c0.849,0.419,1.376,1.269,1.376,2.218C34.958,34.747,34.622,35.083,34.208,35.083z"/>
						</g>
						<path d="M32.47,39.667c-1.363,0-2.473-1.108-2.473-2.472c0-0.414,0.336-0.75,0.75-0.75s0.75,0.336,0.75,0.75
							c0,0.535,0.436,0.972,0.973,0.972c0.535,0,0.972-0.437,0.972-0.972c0-0.414,0.336-0.75,0.75-0.75s0.75,0.336,0.75,0.75
							C34.942,38.559,33.833,39.667,32.47,39.667z"/>
					</g>
					<path d="M19.142,33.443c-0.195,0-0.39-0.075-0.537-0.226c-1.943-1.991-4.034-5.557-4.034-8.685
						c0-5.982,5.64-11.23,12.069-11.23c6.43,0,12.068,5.248,12.068,11.23c0,3.115-2.082,6.675-4.016,8.664
						c-0.288,0.297-0.764,0.305-1.061,0.015c-0.297-0.289-0.305-0.764-0.016-1.062c1.785-1.834,3.591-5.041,3.591-7.617
						c0-5.184-4.938-9.73-10.567-9.73c-5.631,0-10.57,4.547-10.57,9.73c0,2.587,1.814,5.8,3.607,7.637
						c0.29,0.296,0.284,0.771-0.013,1.061C19.52,33.374,19.331,33.443,19.142,33.443z"/>
				</g>
				<g>
					<path d="M22.407,28.775c-1.742,0-3.177-1.418-3.2-3.164c-0.015-1.767,1.407-3.217,3.171-3.236c1.777,0,3.209,1.42,3.23,3.166
						c0.009,0.859-0.317,1.667-0.916,2.277c-0.599,0.609-1.398,0.949-2.253,0.957H22.407z M22.413,23.875
						c-0.958,0.01-1.715,0.783-1.707,1.721c0.012,0.926,0.775,1.68,1.7,1.68v0.75l0.018-0.75c0.455-0.004,0.879-0.184,1.196-0.506
						c0.318-0.326,0.492-0.756,0.487-1.211C24.097,24.63,23.337,23.875,22.413,23.875z"/>
					<path d="M30.949,28.775c-1.742,0-3.178-1.418-3.201-3.164c-0.015-1.767,1.407-3.217,3.172-3.236
						c1.776,0,3.209,1.42,3.229,3.166c0.009,0.859-0.317,1.668-0.916,2.279c-0.599,0.609-1.397,0.949-2.252,0.955H30.949z
						 M30.954,23.875c-0.958,0.01-1.715,0.783-1.707,1.721c0.013,0.926,0.775,1.68,1.701,1.68v0.75l0.019-0.75
						c0.455-0.004,0.879-0.184,1.195-0.506c0.318-0.326,0.492-0.756,0.487-1.213C32.638,24.63,31.878,23.875,30.954,23.875z"/>
					<path d="M20.38,23.784c-0.257,0-0.507-0.132-0.646-0.369l-0.654-1.11c-0.21-0.357-0.092-0.817,0.265-1.027
						c0.357-0.211,0.817-0.091,1.027,0.265l0.654,1.11c0.21,0.357,0.092,0.817-0.265,1.027C20.641,23.751,20.51,23.784,20.38,23.784
						z"/>
					<path d="M22.388,23.229c-0.411,0-0.746-0.331-0.75-0.742l-0.014-1.282c-0.004-0.414,0.328-0.753,0.742-0.758
						c0.386,0.031,0.753,0.328,0.758,0.742l0.014,1.282c0.004,0.414-0.328,0.753-0.742,0.758
						C22.394,23.229,22.391,23.229,22.388,23.229z"/>
					<path d="M24.438,23.776c-0.125,0-0.251-0.031-0.368-0.097c-0.361-0.204-0.488-0.661-0.285-1.022l0.632-1.12
						c0.204-0.36,0.662-0.486,1.022-0.285c0.361,0.204,0.488,0.661,0.285,1.022l-0.633,1.12
						C24.954,23.639,24.699,23.776,24.438,23.776z"/>
					<path d="M28.974,23.784c-0.256,0-0.506-0.132-0.646-0.369l-0.655-1.11c-0.209-0.357-0.092-0.817,0.266-1.027
						c0.355-0.208,0.816-0.092,1.027,0.265l0.654,1.11c0.21,0.357,0.092,0.817-0.265,1.027
						C29.236,23.75,29.105,23.784,28.974,23.784z"/>
					<path d="M30.981,23.229c-0.411,0-0.746-0.331-0.75-0.743l-0.013-1.282c-0.004-0.414,0.328-0.753,0.742-0.757
						c0.449,0.015,0.754,0.329,0.758,0.743l0.013,1.282c0.004,0.414-0.329,0.753-0.743,0.757
						C30.986,23.229,30.984,23.229,30.981,23.229z"/>
					<path d="M33.032,23.776c-0.125,0-0.251-0.031-0.368-0.097c-0.361-0.204-0.488-0.661-0.285-1.022l0.633-1.12
						c0.203-0.36,0.662-0.486,1.021-0.285c0.361,0.204,0.488,0.661,0.285,1.022l-0.633,1.12
						C33.548,23.639,33.292,23.776,33.032,23.776z"/>
				</g>
				<circle cx="25.454" cy="30.753" r="0.839"/>
				<circle cx="28.073" cy="30.753" r="0.838"/>
			</g>
		</g>
	</g>
	<g>
	</g>
	<g>
	</g>
	<g>
	</g>
	<g>
	</g>
	<g>
	</g>
	<g>
	</g>
	<g>
	</g>
	<g>
	</g>
	<g>
	</g>
	<g>
	</g>
	<g>
	</g>
	<g>
	</g>
	<g>
	</g>
	<g>
	</g>
	<g>
	</g>
</g>
<g>
</g>
<g>
</g>
<g>
</g>
<g>
</g>
<g>
</g>
<g>
</g>
<g>
</g>
<g>
</g>
<g>
</g>
<g>
</g>
<g>
</g>
<g>
</g>
<g>
</g>
<g>
</g>
<g>
</g>
</svg>
