<?xml version="1.0" encoding="iso-8859-1"?>
<!-- Generator: Adobe Illustrator 16.0.0, SVG Export Plug-In . SVG Version: 6.00 Build 0)  -->
<!DOCTYPE svg PUBLIC "-//W3C//DTD SVG 1.1//EN" "http://www.w3.org/Graphics/SVG/1.1/DTD/svg11.dtd">
<svg version="1.1" id="Capa_1" xmlns="http://www.w3.org/2000/svg" xmlns:xlink="http://www.w3.org/1999/xlink" x="0px" y="0px"
	 width="48.004px" height="48.004px" viewBox="0 0 48.004 48.004" style="enable-background:new 0 0 48.004 48.004;"
	 xml:space="preserve">
<g>
	<g id="Camera">
		<path d="M40.258,43.002H7.748c-5.136,0-7.744-1.134-7.744-7.332V16.002c0-0.552,0.447-1,1-1c0.553,0,1,0.448,1,1V35.67
			c0,4.668,1.224,5.332,5.744,5.332h32.51c5.251,0,5.746-0.941,5.746-5.332V16.002c0-0.552,0.447-1,1-1s1,0.448,1,1V35.67
			C48.004,40.84,46.928,43.002,40.258,43.002z"/>
		<g>
			<path d="M3.13,11.502c-0.089,0-0.179-0.012-0.269-0.037c-0.532-0.147-0.843-0.698-0.696-1.231l1.25-4.5
				c0.12-0.433,0.515-0.732,0.964-0.732h6.791c0.413,0,0.784,0.254,0.933,0.64l0.771,2c0.199,0.515-0.058,1.094-0.572,1.293
				c-0.517,0.198-1.096-0.057-1.293-0.573l-0.526-1.36H5.139L4.093,10.77C3.97,11.212,3.567,11.502,3.13,11.502z"/>
			<path d="M4.973,10.794c-0.02,0-0.04-0.002-0.061-0.007c-0.134-0.035-0.216-0.17-0.182-0.304l1.125-4.5
				C5.888,5.85,6.021,5.769,6.158,5.801C6.292,5.835,6.374,5.97,6.34,6.104l-1.125,4.5C5.187,10.718,5.085,10.794,4.973,10.794z"/>
			<path d="M10.785,10.794c-0.112,0-0.214-0.076-0.242-0.189l-1.125-4.5C9.384,5.97,9.466,5.835,9.6,5.801
				c0.138-0.035,0.27,0.048,0.303,0.182l1.125,4.5c0.034,0.134-0.048,0.27-0.182,0.303C10.825,10.791,10.805,10.794,10.785,10.794z"
				/>
			<path d="M6.379,10.794c-0.011,0-0.021,0-0.032-0.002c-0.138-0.019-0.234-0.144-0.216-0.281l0.594-4.5
				c0.018-0.137,0.146-0.237,0.28-0.215C7.143,5.814,7.238,5.94,7.221,6.077l-0.594,4.5C6.61,10.702,6.503,10.794,6.379,10.794z"/>
			<path d="M9.316,10.794c-0.124,0-0.231-0.091-0.248-0.217l-0.594-4.5C8.457,5.94,8.553,5.814,8.69,5.795
				C8.825,5.773,8.952,5.873,8.97,6.01l0.594,4.5c0.018,0.138-0.078,0.263-0.215,0.282C9.338,10.793,9.327,10.794,9.316,10.794z"/>
			<path d="M7.879,10.835c-0.138,0-0.25-0.112-0.25-0.25V6.044c0-0.138,0.112-0.25,0.25-0.25c0.138,0,0.25,0.112,0.25,0.25v4.542
				C8.129,10.724,8.017,10.835,7.879,10.835z"/>
		</g>
		<path d="M47.004,16.377h-17.5c-0.553,0-1-0.448-1-1s0.447-1,1-1h17.5c0.553,0,1,0.448,1,1S47.557,16.377,47.004,16.377z"/>
		<path d="M1.014,16.319c-0.265,0-0.518-0.104-0.705-0.291c-0.188-0.187-0.294-0.441-0.295-0.706L0,10.593
			c-0.002-0.552,0.444-1.001,0.997-1.003l10-0.029L10.992,8.03c-0.002-0.55,0.441-0.999,0.992-1.003l6.188-0.049l0.016,2
			L12.996,9.02L13,10.555c0.001,0.265-0.104,0.521-0.291,0.708c-0.187,0.188-0.44,0.294-0.706,0.295l-10,0.029l0.008,2.729
			l16.25-0.048l0.006,2l-17.25,0.051C1.016,16.319,1.015,16.319,1.014,16.319z"/>
		<path d="M29.254,17.085h-10.5c-0.414,0-0.75-0.336-0.75-0.75v-10.5c0-0.414,0.336-0.75,0.75-0.75h10.5
			c0.414,0,0.75,0.336,0.75,0.75v10.5C30.004,16.75,29.668,17.085,29.254,17.085z M19.504,15.585h9v-9h-9V15.585z"/>
		<path d="M47.004,15.877c-0.553,0-1-0.448-1-1c0-4.463-0.248-5.875-5.453-5.875H29.504c-0.553,0-1-0.448-1-1s0.447-1,1-1h11.047
			c6.951,0,7.453,2.975,7.453,7.875C48.004,15.429,47.557,15.877,47.004,15.877z"/>
		<g>
			<path d="M21.275,8.419v5.4h5.458v-5.4H21.275z M24.013,12.83c-0.872,0-1.579-0.708-1.579-1.581c0-0.872,0.707-1.578,1.579-1.578
				c0.872,0,1.579,0.707,1.579,1.578C25.592,12.122,24.885,12.83,24.013,12.83z"/>
			<path d="M26.732,14.068h-5.458c-0.138,0-0.25-0.112-0.25-0.25v-5.4c0-0.138,0.112-0.25,0.25-0.25h5.458
				c0.138,0,0.25,0.112,0.25,0.25v5.4C26.982,13.957,26.87,14.068,26.732,14.068z M21.525,13.568h4.958v-4.9h-4.958V13.568z
				 M24.013,13.08c-1.009,0-1.829-0.821-1.829-1.831c0-1.008,0.82-1.828,1.829-1.828c1.008,0,1.829,0.82,1.829,1.828
				C25.842,12.259,25.021,13.08,24.013,13.08z M24.013,9.921c-0.732,0-1.329,0.596-1.329,1.328c0,0.734,0.597,1.331,1.329,1.331
				c0.732,0,1.329-0.597,1.329-1.331C25.342,10.517,24.745,9.921,24.013,9.921z"/>
		</g>
		<circle cx="14.17" cy="20.043" r="1.255"/>
		<path d="M23.877,22.404c-3.602,0-6.521,2.92-6.521,6.523c0,3.604,2.92,6.522,6.521,6.522c3.604,0,6.523-2.92,6.523-6.522
			C30.4,25.325,27.48,22.404,23.877,22.404z M23.877,32.188c-1.801,0-3.262-1.457-3.262-3.261c0-1.801,1.461-3.262,3.262-3.262
			c1.803,0,3.262,1.461,3.262,3.262C27.139,30.73,25.68,32.188,23.877,32.188z"/>
		<path d="M23.877,39.427c-5.79,0-10.5-4.71-10.5-10.5s4.71-10.501,10.5-10.501c5.791,0,10.502,4.711,10.502,10.501
			C34.379,34.716,29.668,39.427,23.877,39.427z M23.877,20.426c-4.687,0-8.5,3.812-8.5,8.501c0,4.687,3.813,8.5,8.5,8.5
			c4.688,0,8.502-3.813,8.502-8.5C32.379,24.238,28.564,20.426,23.877,20.426z"/>
	</g>
</g>
<g>
</g>
<g>
</g>
<g>
</g>
<g>
</g>
<g>
</g>
<g>
</g>
<g>
</g>
<g>
</g>
<g>
</g>
<g>
</g>
<g>
</g>
<g>
</g>
<g>
</g>
<g>
</g>
<g>
</g>
</svg>
