<?xml version="1.0" encoding="iso-8859-1"?>
<!-- Generator: Adobe Illustrator 16.0.0, SVG Export Plug-In . SVG Version: 6.00 Build 0)  -->
<!DOCTYPE svg PUBLIC "-//W3C//DTD SVG 1.1//EN" "http://www.w3.org/Graphics/SVG/1.1/DTD/svg11.dtd">
<svg version="1.1" id="Capa_1" xmlns="http://www.w3.org/2000/svg" xmlns:xlink="http://www.w3.org/1999/xlink" x="0px" y="0px"
	 width="47.855px" height="47.855px" viewBox="0 0 47.855 47.855" style="enable-background:new 0 0 47.855 47.855;"
	 xml:space="preserve">
<g>
	<g id="Previous_Chapter">
		<path d="M23.938,47.854h-0.014C10.737,47.854,0.004,37.122,0,23.931c0.004-13.196,10.739-23.93,23.93-23.93
			c6.393,0,12.401,2.489,16.919,7.008c4.521,4.52,7.008,10.526,7.006,16.916c0.002,6.391-2.483,12.399-7,16.919
			C36.337,45.365,30.329,47.854,23.938,47.854z M23.93,2.001c-12.088,0-21.926,9.838-21.93,21.93
			c0.004,12.089,9.84,21.923,21.926,21.923h0.013c5.856,0,11.361-2.28,15.5-6.424c4.141-4.143,6.418-9.648,6.416-15.506
			c0.002-5.855-2.277-11.36-6.42-15.502C35.295,4.282,29.788,2.001,23.93,2.001z"/>
		<path d="M23.916,43.285h-0.004c-10.678-0.002-19.362-8.688-19.36-19.36c-0.001-5.169,2.012-10.029,5.668-13.686
			c3.656-3.657,8.519-5.672,13.69-5.673c5.175,0,10.035,2.015,13.691,5.672c3.657,3.656,5.67,8.518,5.67,13.687
			c0,5.17-2.013,10.031-5.67,13.688C33.945,41.271,29.086,43.285,23.916,43.285z M23.914,6.566
			c-4.642,0.001-9.001,1.808-12.28,5.087c-3.278,3.278-5.083,7.637-5.082,12.271c-0.002,9.57,7.786,17.358,17.36,17.36l0.004,1v-1
			c4.635,0,8.994-1.807,12.271-5.086c3.278-3.279,5.084-7.639,5.084-12.274c0-4.635-1.806-8.994-5.084-12.272
			C32.909,8.372,28.551,6.566,23.914,6.566z"/>
		<path d="M31.631,32.733c-0.193,0-0.387-0.058-0.555-0.168l-11.881-7.912c-0.278-0.187-0.445-0.497-0.445-0.833
			c0-0.335,0.167-0.647,0.446-0.832l11.881-7.909c0.308-0.205,0.702-0.224,1.024-0.05c0.325,0.175,0.528,0.513,0.528,0.882v15.821
			c0,0.369-0.203,0.707-0.528,0.882C31.955,32.694,31.793,32.733,31.631,32.733z M21.555,23.821l9.076,6.045V17.779L21.555,23.821z"
			/>
		<path d="M16.491,32.84c-0.553,0-1-0.446-1-1V16.019c0-0.553,0.447-1,1-1c0.553,0,1,0.447,1,1V31.84
			C17.491,32.394,17.044,32.84,16.491,32.84z"/>
	</g>
	<g>
	</g>
	<g>
	</g>
	<g>
	</g>
	<g>
	</g>
	<g>
	</g>
	<g>
	</g>
	<g>
	</g>
	<g>
	</g>
	<g>
	</g>
	<g>
	</g>
	<g>
	</g>
	<g>
	</g>
	<g>
	</g>
	<g>
	</g>
	<g>
	</g>
</g>
<g>
</g>
<g>
</g>
<g>
</g>
<g>
</g>
<g>
</g>
<g>
</g>
<g>
</g>
<g>
</g>
<g>
</g>
<g>
</g>
<g>
</g>
<g>
</g>
<g>
</g>
<g>
</g>
<g>
</g>
</svg>
