<?xml version="1.0" encoding="iso-8859-1"?>
<!-- Generator: Adobe Illustrator 16.0.0, SVG Export Plug-In . SVG Version: 6.00 Build 0)  -->
<!DOCTYPE svg PUBLIC "-//W3C//DTD SVG 1.1//EN" "http://www.w3.org/Graphics/SVG/1.1/DTD/svg11.dtd">
<svg version="1.1" id="Capa_1" xmlns="http://www.w3.org/2000/svg" xmlns:xlink="http://www.w3.org/1999/xlink" x="0px" y="0px"
	 width="47.854px" height="47.854px" viewBox="0 0 47.854 47.854" style="enable-background:new 0 0 47.854 47.854;"
	 xml:space="preserve">
<g>
	<g id="Record">
		<path d="M23.939,47.854h-0.015C10.737,47.854,0.004,37.122,0,23.931C0.004,10.735,10.738,0,23.929,0
			c6.393,0,12.402,2.489,16.92,7.009c4.52,4.519,7.006,10.526,7.004,16.916c0.004,6.39-2.482,12.398-7,16.919
			C36.337,45.364,30.33,47.854,23.939,47.854z M23.929,2C11.841,2,2.004,11.838,2,23.931c0.004,12.088,9.839,21.922,21.925,21.922
			h0.015c5.856,0,11.361-2.28,15.5-6.424c4.14-4.142,6.418-9.647,6.416-15.505c0.002-5.855-2.278-11.361-6.42-15.502
			C35.294,4.281,29.787,2,23.929,2z"/>
		<path d="M23.915,43.285h-0.003c-10.678-0.002-19.362-8.688-19.36-19.36c-0.001-5.169,2.012-10.029,5.668-13.686
			c3.657-3.657,8.518-5.672,13.689-5.673c5.174,0,10.036,2.014,13.694,5.672c3.656,3.656,5.67,8.518,5.668,13.687
			c0.002,5.169-2.013,10.031-5.668,13.688C33.945,41.271,29.084,43.285,23.915,43.285z M23.913,6.566
			c-4.64,0.001-9,1.808-12.278,5.087c-3.278,3.279-5.083,7.637-5.083,12.271c-0.002,9.57,7.786,17.358,17.359,17.36l0.003,1v-1
			c4.636,0,8.995-1.808,12.273-5.086c3.279-3.28,5.086-7.64,5.084-12.274c0.002-4.635-1.805-8.993-5.084-12.272
			C32.909,8.372,28.549,6.566,23.913,6.566z"/>
		<path d="M23.917,33.102c-4.986,0-9.043-4.058-9.043-9.045c0-4.987,4.057-9.043,9.043-9.043c4.987,0,9.045,4.057,9.045,9.043
			C32.962,29.044,28.904,33.102,23.917,33.102z M23.917,17.013c-3.883,0-7.043,3.16-7.043,7.043c0,3.885,3.16,7.045,7.043,7.045
			c3.885,0,7.045-3.16,7.045-7.045C30.962,20.173,27.802,17.013,23.917,17.013z"/>
	</g>
	<g>
	</g>
	<g>
	</g>
	<g>
	</g>
	<g>
	</g>
	<g>
	</g>
	<g>
	</g>
	<g>
	</g>
	<g>
	</g>
	<g>
	</g>
	<g>
	</g>
	<g>
	</g>
	<g>
	</g>
	<g>
	</g>
	<g>
	</g>
	<g>
	</g>
</g>
<g>
</g>
<g>
</g>
<g>
</g>
<g>
</g>
<g>
</g>
<g>
</g>
<g>
</g>
<g>
</g>
<g>
</g>
<g>
</g>
<g>
</g>
<g>
</g>
<g>
</g>
<g>
</g>
<g>
</g>
</svg>
