<?xml version="1.0" encoding="iso-8859-1"?>
<!-- Generator: Adobe Illustrator 16.0.0, SVG Export Plug-In . SVG Version: 6.00 Build 0)  -->
<!DOCTYPE svg PUBLIC "-//W3C//DTD SVG 1.1//EN" "http://www.w3.org/Graphics/SVG/1.1/DTD/svg11.dtd">
<svg version="1.1" id="Capa_1" xmlns="http://www.w3.org/2000/svg" xmlns:xlink="http://www.w3.org/1999/xlink" x="0px" y="0px"
	 width="47.85px" height="47.85px" viewBox="0 0 47.85 47.85" style="enable-background:new 0 0 47.85 47.85;" xml:space="preserve"
	>
<g>
	<g id="Safety_Pin">
		<path d="M29.748,44.234c-1.35,0-2.446-1.098-2.446-2.445c0-1.35,1.097-2.446,2.446-2.446c1.349,0,2.445,1.097,2.445,2.446
			C32.193,43.137,31.097,44.234,29.748,44.234z M29.748,40.343c-0.798,0-1.446,0.648-1.446,1.446c0,0.797,0.648,1.445,1.446,1.445
			c0.797,0,1.445-0.648,1.445-1.445S30.545,40.343,29.748,40.343z"/>
		<g>
			<path d="M37.615,18.737h-6.362c-0.553,0-1-0.448-1-1v-6.743c0-0.552,0.447-1,1-1c0.552,0,1,0.448,1,1v5.743h4.362V6.999
				C36.272,3.868,33.703,2,29.732,2c-3.97,0-6.538,1.868-6.88,4.999v9.663h4.326v-5.668c0-0.552,0.448-1,1-1s1,0.448,1,1v6.668
				c0,0.552-0.448,1-1,1h-6.326c-0.552,0-1-0.448-1-1V6.946c0-0.034,0.002-0.067,0.005-0.101C21.287,2.623,24.688,0,29.732,0
				c5.046,0,8.448,2.623,8.877,6.845c0.003,0.034,0.005,0.067,0.005,0.101v10.791C38.615,18.29,38.168,18.737,37.615,18.737z"/>
			<path d="M31.267,12.019c-0.288,0-0.573-0.124-0.771-0.362c-0.353-0.425-0.293-1.056,0.133-1.408c0.317-0.263,0.5-0.65,0.5-1.062
				c0-0.76-0.619-1.379-1.38-1.379s-1.38,0.619-1.38,1.379c0,0.397,0.173,0.776,0.472,1.039c0.415,0.365,0.455,0.997,0.09,1.412
				c-0.365,0.415-0.997,0.455-1.412,0.09c-0.731-0.643-1.15-1.569-1.15-2.541c0-1.863,1.517-3.379,3.38-3.379s3.38,1.516,3.38,3.379
				c0,1.009-0.446,1.958-1.226,2.602C31.717,11.943,31.49,12.019,31.267,12.019z"/>
			<path d="M29.739,47.85c-3.361,0-6.096-2.735-6.096-6.098c0-3.361,2.735-6.098,6.096-6.098c3.363,0,6.1,2.734,6.1,6.098
				C35.839,45.113,33.103,47.85,29.739,47.85z M29.739,37.654c-2.259,0-4.097,1.838-4.097,4.098s1.838,4.098,4.097,4.098
				c2.261,0,4.1-1.839,4.1-4.098S32,37.654,29.739,37.654z"/>
			<path d="M32.24,38.167c-0.227,0-0.455-0.077-0.642-0.233c-0.423-0.355-0.479-0.986-0.124-1.41
				c0.841-1.137,1.177-10.529,1.004-18.579c-0.012-0.552,0.426-1.009,0.979-1.021c0.578,0.027,1.01,0.426,1.021,0.979
				c0.089,4.153,0.246,17.861-1.472,19.908C32.81,38.045,32.526,38.167,32.24,38.167z"/>
			<path d="M35.089,42.746c-0.296,0-0.59-0.131-0.788-0.383c-0.341-0.436-0.266-1.063,0.17-1.404
				c1.166-1.219,1.806-13.002,1.721-23.212c-0.004-0.552,0.439-1.003,0.992-1.008c0.003,0,0.006,0,0.008,0
				c0.548,0,0.996,0.442,1,0.992c0.058,6.828-0.071,22.91-2.485,24.803C35.522,42.676,35.305,42.746,35.089,42.746z"/>
			<path d="M24.66,43.566c-0.309,0-0.612-0.143-0.808-0.41C11.986,26.93,9.358,12.973,9.252,12.387
				c-0.099-0.543,0.262-1.063,0.805-1.162c0.548-0.098,1.063,0.262,1.163,0.805c0.025,0.14,2.67,14.116,14.246,29.946
				c0.326,0.445,0.229,1.071-0.217,1.396C25.071,43.504,24.864,43.566,24.66,43.566z"/>
			<path d="M25.745,39.632c-0.38,0-0.742-0.218-0.91-0.587C16.4,20.481,9.609,12.982,9.541,12.909
				C9.167,12.503,9.194,11.87,9.6,11.496c0.407-0.374,1.039-0.348,1.412,0.058c0.284,0.308,7.054,7.76,15.644,26.665
				c0.229,0.504,0.006,1.096-0.497,1.324C26.024,39.604,25.885,39.632,25.745,39.632z"/>
		</g>
	</g>
	<g>
	</g>
	<g>
	</g>
	<g>
	</g>
	<g>
	</g>
	<g>
	</g>
	<g>
	</g>
	<g>
	</g>
	<g>
	</g>
	<g>
	</g>
	<g>
	</g>
	<g>
	</g>
	<g>
	</g>
	<g>
	</g>
	<g>
	</g>
	<g>
	</g>
</g>
<g>
</g>
<g>
</g>
<g>
</g>
<g>
</g>
<g>
</g>
<g>
</g>
<g>
</g>
<g>
</g>
<g>
</g>
<g>
</g>
<g>
</g>
<g>
</g>
<g>
</g>
<g>
</g>
<g>
</g>
</svg>
