<?xml version="1.0" encoding="iso-8859-1"?>
<!-- Generator: Adobe Illustrator 16.0.0, SVG Export Plug-In . SVG Version: 6.00 Build 0)  -->
<!DOCTYPE svg PUBLIC "-//W3C//DTD SVG 1.1//EN" "http://www.w3.org/Graphics/SVG/1.1/DTD/svg11.dtd">
<svg version="1.1" id="Capa_1" xmlns="http://www.w3.org/2000/svg" xmlns:xlink="http://www.w3.org/1999/xlink" x="0px" y="0px"
	 width="47.583px" height="47.583px" viewBox="0 0 47.583 47.583" style="enable-background:new 0 0 47.583 47.583;"
	 xml:space="preserve">
<g>
	<g id="Scissors">
		<path d="M35.056,16.221c-0.552,0-1-0.448-1-1c0-0.552,0.448-1,1-1c3.369,0,6.11-2.741,6.11-6.109c0-3.37-2.741-6.111-6.11-6.111
			s-6.109,2.742-6.109,6.111c0,0.891,0.187,1.749,0.556,2.549c0.231,0.502,0.013,1.096-0.489,1.327
			c-0.503,0.232-1.097,0.013-1.328-0.49c-0.49-1.065-0.738-2.205-0.738-3.386c0-4.473,3.638-8.111,8.109-8.111
			c4.473,0,8.11,3.639,8.11,8.111C43.166,12.583,39.528,16.221,35.056,16.221z"/>
		<path d="M35.146,11.754c-2.017,0-3.656-1.641-3.656-3.658c0-2.017,1.641-3.657,3.656-3.657c2.017,0,3.658,1.641,3.658,3.657
			C38.804,10.113,37.162,11.754,35.146,11.754z M35.146,5.939c-1.188,0-2.156,0.968-2.156,2.157c0,1.19,0.968,2.158,2.156,2.158
			c1.189,0,2.158-0.968,2.158-2.158C37.304,6.907,36.335,5.939,35.146,5.939z"/>
		<path d="M11.832,16.188c-0.032,0-0.065-0.001-0.098-0.005c-4.171-0.405-7.317-3.875-7.317-8.072C4.417,3.639,8.055,0,12.526,0
			c4.473,0,8.111,3.639,8.111,8.111c0,0.673-0.083,1.342-0.245,1.988c-0.161,0.637-0.4,1.254-0.712,1.834
			c-0.261,0.486-0.869,0.669-1.354,0.408c-0.486-0.261-0.669-0.867-0.408-1.354c0.234-0.436,0.414-0.899,0.534-1.377
			c0.123-0.486,0.185-0.991,0.185-1.5C18.638,4.742,15.896,2,12.526,2C9.158,2,6.417,4.742,6.417,8.111
			c0,3.162,2.369,5.776,5.511,6.081c0.55,0.053,0.952,0.542,0.898,1.092C12.776,15.801,12.341,16.188,11.832,16.188z"/>
		<path d="M12.597,11.754c-2.017,0-3.657-1.641-3.657-3.658c0-2.017,1.641-3.657,3.657-3.657c2.017,0,3.658,1.641,3.658,3.657
			C16.255,10.113,14.614,11.754,12.597,11.754z M12.597,5.939c-1.189,0-2.157,0.968-2.157,2.157c0,1.19,0.968,2.158,2.157,2.158
			c1.19,0,2.158-0.968,2.158-2.158C14.755,6.907,13.787,5.939,12.597,5.939z"/>
		<path d="M23.793,20.596c-0.33,0-0.652-0.163-0.843-0.46c-0.298-0.465-0.163-1.083,0.302-1.381
			c1.858-1.191,4.022-2.772,4.498-3.369v-3.967c0-0.552,0.448-1,1-1s1,0.448,1,1v4.167c0,0.482,0,1.38-5.418,4.853
			C24.165,20.544,23.978,20.596,23.793,20.596z"/>
		<path d="M23.748,20.596c-0.185,0-0.372-0.051-0.539-0.158c-5.418-3.473-5.418-4.37-5.418-4.853v-4.167c0-0.552,0.448-1,1-1
			c0.552,0,1,0.448,1,1v3.967c0.475,0.597,2.64,2.178,4.498,3.369c0.465,0.298,0.601,0.917,0.302,1.381
			C24.4,20.433,24.078,20.596,23.748,20.596z"/>
		<path d="M34.503,47.427c-0.023,0-0.047-0.001-0.07-0.002c-0.291-0.021-0.562-0.168-0.734-0.405
			c-0.165-0.224-16.502-22.43-18.637-25.438c-2.545-3.587-3.759-5.752-3.809-5.843c-0.269-0.482-0.096-1.091,0.386-1.36
			c0.484-0.269,1.092-0.095,1.361,0.386c0.012,0.021,1.218,2.172,3.693,5.66c1.836,2.588,14.271,19.502,17.728,24.203
			c0.604-1.537,1.022-4.732-2.043-9.938l-4.978-8.453c-0.207-0.353-0.178-0.797,0.072-1.12c0.047-0.06,4.684-6.055,6.486-10.201
			c0.221-0.506,0.811-0.739,1.316-0.518c0.506,0.22,0.738,0.809,0.518,1.316c-1.596,3.67-5.116,8.48-6.328,10.088l4.637,7.874
			c5.305,9.009,1.291,13.275,1.116,13.453C35.028,47.32,34.771,47.427,34.503,47.427z"/>
		<path d="M13.646,47.583c-0.17,0-0.343-0.043-0.5-0.135c-0.216-0.125-2.111-1.343-2-5.396c0.108-3.955,6.385-15.628,7.1-16.945
			c0.263-0.485,0.869-0.666,1.356-0.402c0.485,0.264,0.665,0.871,0.402,1.355c-1.88,3.465-6.778,13.103-6.859,16.047
			c-0.035,1.293,0.176,2.162,0.417,2.724l8.757-14.026c0.292-0.469,0.908-0.613,1.378-0.318c0.468,0.291,0.611,0.908,0.318,1.378
			l-9.52,15.249C14.307,47.416,13.98,47.583,13.646,47.583z"/>
		<path d="M23.749,25.751c-1.148,0-2.083-0.935-2.083-2.084c0-1.149,0.935-2.084,2.083-2.084c1.148,0,2.084,0.935,2.084,2.084
			C25.833,24.816,24.897,25.751,23.749,25.751z M23.749,22.583c-0.597,0-1.083,0.486-1.083,1.084c0,0.599,0.486,1.084,1.083,1.084
			c0.598,0,1.084-0.485,1.084-1.084C24.833,23.069,24.347,22.583,23.749,22.583z"/>
	</g>
	<g>
	</g>
	<g>
	</g>
	<g>
	</g>
	<g>
	</g>
	<g>
	</g>
	<g>
	</g>
	<g>
	</g>
	<g>
	</g>
	<g>
	</g>
	<g>
	</g>
	<g>
	</g>
	<g>
	</g>
	<g>
	</g>
	<g>
	</g>
	<g>
	</g>
</g>
<g>
</g>
<g>
</g>
<g>
</g>
<g>
</g>
<g>
</g>
<g>
</g>
<g>
</g>
<g>
</g>
<g>
</g>
<g>
</g>
<g>
</g>
<g>
</g>
<g>
</g>
<g>
</g>
<g>
</g>
</svg>
