<?xml version="1.0" encoding="iso-8859-1"?>
<!-- Generator: Adobe Illustrator 16.0.0, SVG Export Plug-In . SVG Version: 6.00 Build 0)  -->
<!DOCTYPE svg PUBLIC "-//W3C//DTD SVG 1.1//EN" "http://www.w3.org/Graphics/SVG/1.1/DTD/svg11.dtd">
<svg version="1.1" id="Capa_1" xmlns="http://www.w3.org/2000/svg" xmlns:xlink="http://www.w3.org/1999/xlink" x="0px" y="0px"
	 width="47.936px" height="47.936px" viewBox="0 0 47.936 47.936" style="enable-background:new 0 0 47.936 47.936;"
	 xml:space="preserve">
<g>
	<g id="Shopping_Bag">
		<path d="M38.114,47.936H9.823c-1.949,0-3.535-1.742-3.535-3.884L7.27,13.237C7.269,11.194,8.789,9.63,10.805,9.63h4.496
			c0.553,0,1,0.448,1,1c0,0.552-0.447,1-1,1h-4.496c-0.918,0-1.535,0.658-1.535,1.638L8.287,44.083
			c0.001,1.007,0.689,1.853,1.536,1.853h28.291c0.847,0,1.535-0.846,1.535-1.884L38.669,13.3c-0.001-1.012-0.617-1.67-1.535-1.67
			h-4.457c-0.553,0-1-0.448-1-1c0-0.552,0.447-1,1-1h4.457c2.016,0,3.534,1.564,3.534,3.638l0.979,30.751
			C41.649,46.193,40.063,47.936,38.114,47.936z"/>
		<path d="M28.956,11.611H18.674c-0.542,0-0.981-0.439-0.981-0.981s0.439-0.981,0.981-0.981h10.282c0.542,0,0.98,0.439,0.98,0.981
			S29.498,11.611,28.956,11.611z"/>
		<g>
			<g>
				<path style="stroke:#000000;stroke-width:1.5;stroke-linecap:round;stroke-linejoin:round;stroke-miterlimit:10;" d="
					M29.493,38.126"/>
				<path style="stroke:#000000;stroke-width:1.5;stroke-linecap:round;stroke-linejoin:round;stroke-miterlimit:10;" d="
					M33.011,38.096"/>
				<path d="M31.486,42.88c-0.224,0-0.442-0.098-0.591-0.286c-1.625-2.064-2.17-3.195-2.152-4.484
					c0.016-1.172,1.043-2.486,2.495-2.498c0.672-0.018,1.294,0.248,1.771,0.715c0.479,0.468,0.744,1.094,0.75,1.762
					c0.004,0.414-0.328,0.753-0.742,0.757c-0.398-0.021-0.754-0.329-0.758-0.743c-0.002-0.267-0.109-0.517-0.3-0.703
					c-0.188-0.186-0.438-0.287-0.7-0.287c-0.004,0-0.007,0-0.01,0c-0.536,0.005-1.001,0.562-1.007,1.018
					c-0.011,0.773,0.278,1.564,1.831,3.537c0.257,0.325,0.199,0.797-0.125,1.053C31.812,42.828,31.647,42.88,31.486,42.88z"/>
			</g>
			<g>
				<path d="M31.94,43.161c-0.057,0-0.113-0.006-0.172-0.021c-0.527-0.123-0.785-0.425-1.006-0.723
					c-0.244-0.333-0.174-0.803,0.16-1.048c0.334-0.246,0.803-0.175,1.049,0.16c0.084,0.114,0.113,0.144,0.123,0.151
					c0.403,0.094,0.661,0.498,0.567,0.9C32.582,42.928,32.279,43.161,31.94,43.161z"/>
			</g>
			<g>
				<path style="stroke:#000000;stroke-width:1.5;stroke-linecap:round;stroke-linejoin:round;stroke-miterlimit:10;" d="
					M36.101,39.754"/>
				<path style="stroke:#000000;stroke-width:1.5;stroke-linecap:round;stroke-linejoin:round;stroke-miterlimit:10;" d="
					M33.002,38.096"/>
				<path d="M32.478,43.122c-0.285,0-0.561-0.165-0.685-0.444c-0.169-0.378,0-0.822,0.379-0.99c2.287-1.023,2.911-1.592,3.265-2.282
					c0.205-0.404,0.053-1.112-0.42-1.364c-0.235-0.127-0.508-0.154-0.763-0.077c-0.256,0.077-0.466,0.25-0.592,0.485
					c-0.194,0.363-0.649,0.504-1.015,0.307c-0.365-0.195-0.504-0.648-0.309-1.015c0.314-0.589,0.842-1.021,1.48-1.212
					c0.637-0.193,1.312-0.127,1.902,0.188c1.281,0.683,1.582,2.323,1.049,3.368c-0.586,1.148-1.592,1.898-3.988,2.971
					C32.685,43.102,32.581,43.122,32.478,43.122z"/>
			</g>
			<g>
				<path d="M32.157,43.191c-0.124,0-0.258-0.017-0.405-0.055c-0.399-0.104-0.642-0.513-0.537-0.914
					c0.104-0.402,0.513-0.641,0.914-0.537c0.022,0.004,0.062-0.006,0.193-0.071c0.374-0.185,0.821-0.027,1.003,0.345
					c0.182,0.373,0.027,0.821-0.346,1.003C32.729,43.084,32.476,43.191,32.157,43.191z"/>
			</g>
		</g>
		<g>
			<path d="M15.728,15.366c-0.414,0-0.75-0.336-0.75-0.75C14.978,1.26,16.564,0,23.957,0c0.414,0,0.75,0.336,0.75,0.75
				s-0.336,0.75-0.75,0.75c-6.85,0-7.479,1.103-7.479,13.116C16.478,15.03,16.142,15.366,15.728,15.366z"/>
			<path d="M32.046,15.795c-0.414,0-0.75-0.336-0.75-0.75c0-12.153-0.77-13.545-7.479-13.545c-0.414,0-0.75-0.336-0.75-0.75
				S23.402,0,23.816,0c8.152,0,8.979,2.851,8.979,15.045C32.796,15.459,32.46,15.795,32.046,15.795z"/>
		</g>
		<g>
			<path d="M18.082,15.396c-0.002,0-0.004,0-0.006,0c-0.414-0.003-0.747-0.342-0.744-0.756c0.05-6.259,0.075-9.4,1.674-10.941
				C20.08,2.664,21.711,2.5,23.99,2.562c0.414,0.012,0.739,0.357,0.729,0.771c-0.013,0.407-0.347,0.729-0.75,0.729
				c-0.007,0-0.014,0-0.021,0C21.711,4,20.657,4.193,20.048,4.78c-1.145,1.104-1.17,4.218-1.215,9.873
				C18.829,15.064,18.493,15.396,18.082,15.396z"/>
		</g>
		<g>
			<path d="M29.61,15.581c-0.411,0-0.747-0.332-0.75-0.744c-0.045-5.547-0.072-8.895-1.254-10.033
				C26.988,4.208,25.899,4,23.744,4.061c-0.008,0-0.015,0-0.021,0c-0.404,0-0.738-0.322-0.75-0.729
				c-0.012-0.414,0.314-0.759,0.729-0.771c2.245-0.066,3.854,0.107,4.947,1.162c1.635,1.576,1.66,4.759,1.712,11.101
				c0.003,0.414-0.33,0.752-0.744,0.756C29.614,15.581,29.612,15.581,29.61,15.581z"/>
		</g>
		<path d="M16.834,18.351c-1.281,0-2.323-1.042-2.323-2.324c0-1.282,1.042-2.324,2.323-2.324c1.281,0,2.324,1.042,2.324,2.324
			C19.158,17.308,18.115,18.351,16.834,18.351z M16.834,15.203c-0.454,0-0.823,0.37-0.823,0.824c0,0.454,0.369,0.824,0.823,0.824
			s0.824-0.37,0.824-0.824C17.658,15.572,17.288,15.203,16.834,15.203z"/>
		<path d="M30.776,18.351c-1.281,0-2.324-1.042-2.324-2.324c0-1.282,1.043-2.324,2.324-2.324s2.322,1.042,2.322,2.324
			C33.101,17.308,32.058,18.351,30.776,18.351z M30.776,15.203c-0.454,0-0.824,0.37-0.824,0.824c0,0.454,0.37,0.824,0.824,0.824
			c0.453,0,0.822-0.37,0.822-0.824C31.601,15.572,31.229,15.203,30.776,15.203z"/>
	</g>
	<g>
	</g>
	<g>
	</g>
	<g>
	</g>
	<g>
	</g>
	<g>
	</g>
	<g>
	</g>
	<g>
	</g>
	<g>
	</g>
	<g>
	</g>
	<g>
	</g>
	<g>
	</g>
	<g>
	</g>
	<g>
	</g>
	<g>
	</g>
	<g>
	</g>
</g>
<g>
</g>
<g>
</g>
<g>
</g>
<g>
</g>
<g>
</g>
<g>
</g>
<g>
</g>
<g>
</g>
<g>
</g>
<g>
</g>
<g>
</g>
<g>
</g>
<g>
</g>
<g>
</g>
<g>
</g>
</svg>
