<?xml version="1.0" encoding="iso-8859-1"?>
<!-- Generator: Adobe Illustrator 16.0.0, SVG Export Plug-In . SVG Version: 6.00 Build 0)  -->
<!DOCTYPE svg PUBLIC "-//W3C//DTD SVG 1.1//EN" "http://www.w3.org/Graphics/SVG/1.1/DTD/svg11.dtd">
<svg version="1.1" id="Capa_1" xmlns="http://www.w3.org/2000/svg" xmlns:xlink="http://www.w3.org/1999/xlink" x="0px" y="0px"
	 width="47.048px" height="47.049px" viewBox="0 0 47.048 47.049" style="enable-background:new 0 0 47.048 47.049;"
	 xml:space="preserve">
<g>
	<g id="Skull">
		<g>
			<g>
				<path d="M20.499,43.8c-0.552,0-1-0.448-1-1v-5.062c0-0.553,0.448-1,1-1c0.552,0,1,0.447,1,1V42.8
					C21.499,43.352,21.051,43.8,20.499,43.8z"/>
				<path d="M26.75,43.8c-0.553,0-1-0.448-1-1v-5.062c0-0.553,0.447-1,1-1c0.551,0,1,0.447,1,1V42.8
					C27.75,43.352,27.3,43.8,26.75,43.8z"/>
			</g>
			<path d="M23.604,46.939c-2.268,0-4.112-1.845-4.112-4.112c0-0.552,0.448-1,1-1c0.552,0,1,0.448,1,1
				c0,1.165,0.948,2.112,2.112,2.112c1.167,0,2.114-0.947,2.114-2.112c0-0.552,0.449-1,1-1c0.553,0,1,0.448,1,1
				C27.718,45.095,25.873,46.939,23.604,46.939z"/>
		</g>
		<g>
			<g>
				<path d="M9.824,43.908c-0.552,0-1-0.448-1-1v-5.016c0-0.553,0.448-1,1-1c0.552,0,1,0.447,1,1v5.016
					C10.824,43.46,10.376,43.908,9.824,43.908z"/>
				<path d="M16.072,43.908c-0.552,0-1-0.448-1-1v-5.114c0-0.552,0.448-1,1-1c0.552,0,1,0.448,1,1v5.114
					C17.072,43.46,16.624,43.908,16.072,43.908z"/>
				<path d="M9.843,38.764c-0.552,0-1-0.449-1-1c0-1.574,0.876-2.986,2.286-3.686c0.498-0.246,1.095-0.042,1.34,0.452
					c0.245,0.495,0.043,1.095-0.452,1.34c-0.725,0.358-1.175,1.084-1.175,1.894C10.843,38.314,10.396,38.764,9.843,38.764z"/>
			</g>
			<path d="M12.929,47.049c-2.267,0-4.111-1.844-4.111-4.111c0-0.552,0.448-1,1-1c0.552,0,1,0.448,1,1
				c0,1.164,0.947,2.111,2.111,2.111c1.167,0,2.115-0.947,2.115-2.111c0-0.552,0.448-1,1-1c0.552,0,1,0.448,1,1
				C17.045,45.205,15.198,47.049,12.929,47.049z"/>
		</g>
		<g>
			<g>
				<path d="M30.955,43.8c-0.552,0-1-0.448-1-1v-5.006c0-0.552,0.448-1,1-1c0.553,0,1,0.448,1,1V42.8
					C31.955,43.352,31.507,43.8,30.955,43.8z"/>
				<path d="M37.201,43.8c-0.552,0-1-0.448-1-1v-5.026c0-0.551,0.448-1,1-1c0.553,0,1,0.449,1,1V42.8
					C38.201,43.352,37.753,43.8,37.201,43.8z"/>
				<path d="M37.201,38.654c-0.552,0-1-0.448-1-1c0-0.812-0.449-1.539-1.175-1.896c-0.495-0.244-0.698-0.843-0.455-1.339
					c0.244-0.495,0.843-0.701,1.339-0.455c1.414,0.696,2.293,2.11,2.293,3.69C38.201,38.207,37.753,38.654,37.201,38.654z"/>
			</g>
			<path d="M34.059,46.939c-2.269,0-4.112-1.845-4.112-4.112c0-0.552,0.448-1,1-1c0.553,0,1,0.448,1,1
				c0,1.165,0.948,2.112,2.112,2.112c1.166,0,2.114-0.947,2.114-2.112c0-0.552,0.447-1,1-1c0.552,0,1,0.448,1,1
				C38.173,45.095,36.328,46.939,34.059,46.939z"/>
		</g>
		<path d="M9.97,35.691c-0.26,0-0.52-0.101-0.715-0.301c-3.573-3.658-7.189-10.14-7.189-15.449C2.066,9.319,12.093,0,23.525,0
			c11.432,0,21.458,9.319,21.458,19.942c0,5.287-3.601,11.753-7.158,15.412c-0.385,0.396-1.019,0.404-1.413,0.021
			c-0.396-0.385-0.406-1.019-0.021-1.414c3.276-3.368,6.592-9.265,6.592-14.018C42.983,10.384,33.891,2,23.525,2
			S4.066,10.384,4.066,19.942c0,4.774,3.33,10.683,6.62,14.051c0.386,0.396,0.378,1.028-0.017,1.414
			C10.475,35.598,10.222,35.691,9.97,35.691z"/>
		<path d="M15.871,27.505c-3.092,0-5.639-2.519-5.679-5.614c-0.026-3.135,2.499-5.708,5.627-5.744c3.153,0,5.696,2.521,5.731,5.619
			c0.015,1.524-0.562,2.958-1.626,4.042c-1.061,1.082-2.48,1.684-3.996,1.696H15.871z M15.881,18.647
			c-1.789,0.02-3.204,1.463-3.189,3.218c0.022,1.729,1.448,3.14,3.179,3.14v1.25l0.034-1.25c0.85-0.007,1.643-0.343,2.235-0.946
			c0.596-0.606,0.919-1.412,0.911-2.266C19.031,20.059,17.609,18.647,15.881,18.647z"/>
		<path d="M31.308,27.505c-3.092,0-5.639-2.519-5.68-5.614c-0.026-3.134,2.498-5.708,5.629-5.744c3.15,0,5.693,2.52,5.729,5.618
			c0.017,1.524-0.562,2.959-1.625,4.043c-1.062,1.08-2.481,1.684-3.998,1.695L31.308,27.505L31.308,27.505z M31.32,18.647
			c-1.79,0.02-3.206,1.463-3.189,3.217c0.021,1.729,1.447,3.141,3.179,3.141v1.25l0.034-1.25c0.851-0.007,1.644-0.344,2.236-0.948
			c0.596-0.605,0.918-1.41,0.909-2.264C34.468,20.059,33.046,18.647,31.32,18.647z"/>
		<path d="M12.208,18.232c-0.343,0-0.676-0.176-0.863-0.493l-1.182-2.008c-0.28-0.476-0.122-1.089,0.354-1.369
			c0.477-0.279,1.089-0.121,1.369,0.354l1.182,2.008c0.28,0.476,0.122,1.089-0.354,1.369C12.555,18.188,12.38,18.232,12.208,18.232z
			"/>
		<path d="M15.837,17.229c-0.547,0-0.994-0.441-1-0.989l-0.024-2.317c-0.006-0.552,0.437-1.005,0.989-1.011c0.004,0,0.007,0,0.011,0
			c0.547,0,0.994,0.441,1,0.989l0.024,2.317c0.006,0.552-0.437,1.005-0.989,1.011C15.844,17.229,15.841,17.229,15.837,17.229z"/>
		<path d="M19.542,18.218c-0.167,0-0.335-0.042-0.49-0.129c-0.481-0.271-0.651-0.881-0.38-1.362l1.143-2.025
			c0.272-0.48,0.883-0.65,1.362-0.38c0.481,0.271,0.651,0.881,0.38,1.362l-1.143,2.025C20.23,18.035,19.891,18.218,19.542,18.218z"
			/>
		<path d="M27.741,18.232c-0.343,0-0.676-0.176-0.862-0.493l-1.184-2.008c-0.279-0.476-0.122-1.089,0.354-1.369
			c0.478-0.279,1.09-0.121,1.369,0.354l1.184,2.008c0.279,0.476,0.122,1.089-0.354,1.369C28.087,18.188,27.914,18.232,27.741,18.232
			z"/>
		<path d="M31.371,17.229c-0.549,0-0.996-0.441-1-0.99l-0.023-2.317c-0.006-0.552,0.438-1.004,0.99-1.01c0.002,0,0.006,0,0.01,0
			c0.548,0,0.994,0.441,1,0.99l0.023,2.317c0.004,0.552-0.438,1.004-0.99,1.01C31.376,17.229,31.373,17.229,31.371,17.229z"/>
		<path d="M35.073,18.218c-0.167,0-0.335-0.042-0.491-0.129c-0.48-0.271-0.649-0.881-0.379-1.362l1.145-2.025
			c0.271-0.481,0.882-0.65,1.361-0.379c0.481,0.271,0.65,0.881,0.379,1.362l-1.144,2.025C35.761,18.035,35.421,18.218,35.073,18.218
			z"/>
		<path d="M22.892,31.184c0,0.836-0.68,1.515-1.516,1.515s-1.514-0.679-1.514-1.515c0-0.839,0.678-1.518,1.514-1.518
			S22.892,30.345,22.892,31.184z"/>
		<path d="M27.628,31.184c0,0.836-0.679,1.515-1.515,1.515c-0.838,0-1.516-0.679-1.516-1.515c0-0.839,0.678-1.518,1.516-1.518
			C26.95,29.666,27.628,30.345,27.628,31.184z"/>
	</g>
	<g>
	</g>
	<g>
	</g>
	<g>
	</g>
	<g>
	</g>
	<g>
	</g>
	<g>
	</g>
	<g>
	</g>
	<g>
	</g>
	<g>
	</g>
	<g>
	</g>
	<g>
	</g>
	<g>
	</g>
	<g>
	</g>
	<g>
	</g>
	<g>
	</g>
</g>
<g>
</g>
<g>
</g>
<g>
</g>
<g>
</g>
<g>
</g>
<g>
</g>
<g>
</g>
<g>
</g>
<g>
</g>
<g>
</g>
<g>
</g>
<g>
</g>
<g>
</g>
<g>
</g>
<g>
</g>
</svg>
