<?xml version="1.0" encoding="iso-8859-1"?>
<!-- Generator: Adobe Illustrator 16.0.0, SVG Export Plug-In . SVG Version: 6.00 Build 0)  -->
<!DOCTYPE svg PUBLIC "-//W3C//DTD SVG 1.1//EN" "http://www.w3.org/Graphics/SVG/1.1/DTD/svg11.dtd">
<svg version="1.1" id="Capa_1" xmlns="http://www.w3.org/2000/svg" xmlns:xlink="http://www.w3.org/1999/xlink" x="0px" y="0px"
	 width="47.955px" height="47.955px" viewBox="0 0 47.955 47.955" style="enable-background:new 0 0 47.955 47.955;"
	 xml:space="preserve">
<g>
	<g id="Speech_Bubble">
		<g>
			<path d="M5.524,47.955c-0.214,0-0.425-0.068-0.601-0.2c-0.268-0.201-0.417-0.522-0.397-0.856l0.7-12.328
				c0.031-0.552,0.507-0.968,1.055-0.94c0.552,0.031,0.973,0.504,0.941,1.055L6.607,45.513l10.224-3.607
				c0.522-0.181,1.092,0.09,1.276,0.609c0.184,0.521-0.09,1.092-0.61,1.276l-11.64,4.106C5.748,47.937,5.636,47.955,5.524,47.955z"
				/>
			<path d="M23.923,44.927c-2.392,0-4.753-0.385-7.051-1.152l0.633-1.896c3.038,1.014,6.195,1.291,9.39,0.834
				c5.412-0.781,10.195-3.621,13.469-7.996c3.273-4.376,4.646-9.764,3.865-15.174C42.621,8.38,32.229,0.604,21.062,2.211
				C15.653,2.989,10.87,5.829,7.595,10.207c-3.274,4.377-4.648,9.765-3.868,15.172c0.448,3.115,1.565,6.002,3.321,8.582
				l-1.652,1.125c-1.93-2.834-3.157-6.004-3.648-9.422C0.891,19.729,2.399,13.813,5.993,9.009c3.596-4.806,8.846-7.923,14.783-8.778
				c12.261-1.763,23.668,6.771,25.431,19.026c0.857,5.938-0.648,11.854-4.242,16.657c-3.594,4.803-8.845,7.92-14.785,8.776
				C26.09,44.849,25.003,44.927,23.923,44.927z"/>
		</g>
		<g>
			<g>
				<path d="M23.964,32.41c-8.17,0-14.571-9.118-14.84-9.506c-0.293-0.424-0.217-1,0.177-1.333c0.248-0.21,6.146-5.165,10.393-5.679
					c2.634-0.316,3.699,0.283,4.461,0.98c0.015,0.014,0.028,0.026,0.042,0.039c0.44,0.104,0.768,0.5,0.768,0.973
					c0,0.553-0.447,1-1,1c-0.573,0-0.926-0.322-1.159-0.535c-0.314-0.288-0.791-0.724-2.871-0.471
					c-2.867,0.347-6.953,3.334-8.605,4.628c1.654,2.094,6.772,7.903,12.636,7.903c0.553,0,1,0.446,1,1
					C24.966,31.962,24.517,32.41,23.964,32.41z"/>
				<path d="M23.855,32.41c-0.553,0-1-0.447-1-1c0-0.554,0.447-1,1-1c5.876,0,10.985-5.81,12.637-7.903
					c-1.651-1.293-5.738-4.281-8.605-4.628c-2.08-0.251-2.558,0.183-2.87,0.47c-0.233,0.214-0.587,0.536-1.16,0.536
					c-0.553,0-1-0.447-1-1c0-0.473,0.328-0.868,0.769-0.973c0.014-0.013,0.027-0.026,0.042-0.039c0.762-0.697,1.825-1.298,4.46-0.98
					c4.246,0.514,10.145,5.469,10.393,5.679c0.394,0.333,0.47,0.909,0.177,1.333C38.427,23.292,32.025,32.41,23.855,32.41z"/>
			</g>
			<path d="M23.842,26.463c-1.939,0-8.269-0.167-8.269-2.32c0-2.15,6.329-2.317,8.269-2.317c1.939,0,8.27,0.167,8.27,2.317
				C32.111,26.296,25.781,26.463,23.842,26.463z M17.369,24.144c0.854,0.357,3.077,0.819,6.473,0.819
				c3.396,0,5.619-0.462,6.473-0.819c-0.854-0.356-3.078-0.818-6.473-0.818C20.449,23.324,18.225,23.786,17.369,24.144z"/>
		</g>
	</g>
	<g>
	</g>
	<g>
	</g>
	<g>
	</g>
	<g>
	</g>
	<g>
	</g>
	<g>
	</g>
	<g>
	</g>
	<g>
	</g>
	<g>
	</g>
	<g>
	</g>
	<g>
	</g>
	<g>
	</g>
	<g>
	</g>
	<g>
	</g>
	<g>
	</g>
</g>
<g>
</g>
<g>
</g>
<g>
</g>
<g>
</g>
<g>
</g>
<g>
</g>
<g>
</g>
<g>
</g>
<g>
</g>
<g>
</g>
<g>
</g>
<g>
</g>
<g>
</g>
<g>
</g>
<g>
</g>
</svg>
