<?xml version="1.0" encoding="iso-8859-1"?>
<!-- Generator: Adobe Illustrator 16.0.0, SVG Export Plug-In . SVG Version: 6.00 Build 0)  -->
<!DOCTYPE svg PUBLIC "-//W3C//DTD SVG 1.1//EN" "http://www.w3.org/Graphics/SVG/1.1/DTD/svg11.dtd">
<svg version="1.1" id="Capa_1" xmlns="http://www.w3.org/2000/svg" xmlns:xlink="http://www.w3.org/1999/xlink" x="0px" y="0px"
	 width="47.812px" height="47.812px" viewBox="0 0 47.812 47.812" style="enable-background:new 0 0 47.812 47.812;"
	 xml:space="preserve">
<g>
	<g id="Toad_Mushroom">
		<path style="stroke:#000000;stroke-width:2;stroke-linecap:round;stroke-linejoin:round;stroke-miterlimit:10;" d="M37.894,38.08"
			/>
		<path d="M9.732,39.221c-0.114,0-0.23-0.02-0.344-0.062c-0.129-0.047-12.83-4.899-8.481-21.126
			C5.68,0.236,23.074,0.031,23.813,0.031c0.553,0,1,0.448,1,1s-0.447,1-1,1c-0.676,0-16.594,0.188-20.974,16.52
			c-3.881,14.48,6.781,18.563,7.237,18.73c0.519,0.189,0.785,0.764,0.596,1.283C10.523,38.969,10.141,39.221,9.732,39.221z"/>
		<path d="M38.081,39.221c-0.408,0-0.791-0.25-0.939-0.656c-0.188-0.52,0.077-1.092,0.595-1.282
			c0.471-0.175,11.102-4.321,7.238-18.731C40.594,2.219,24.676,2.031,24,2.031c-0.553,0-1-0.448-1-1s0.447-1,1-1
			c0.738,0,18.133,0.205,22.905,18.002c4.351,16.227-8.353,21.08-8.48,21.126C38.312,39.201,38.194,39.221,38.081,39.221z"/>
		<path d="M23.887,47.781c-15.035,0-15.035-8.464-15.035-11.245c0-4.229,5.621-6.753,15.035-6.753c0.553,0,1,0.448,1,1
			c0,0.553-0.447,1-1,1c-6.014,0-13.035,1.245-13.035,4.753c0,2.767,0,9.245,13.035,9.245c0.553,0,1,0.448,1,1
			S24.439,47.781,23.887,47.781z"/>
		<path d="M23.887,47.781c-0.553,0-1-0.448-1-1s0.447-1,1-1c13.033,0,13.033-6.479,13.033-9.245c0-3.508-7.021-4.753-13.033-4.753
			c-0.553,0-1-0.447-1-1c0-0.552,0.447-1,1-1c9.413,0,15.033,2.523,15.033,6.753C38.92,39.317,38.92,47.781,23.887,47.781z"/>
		<circle cx="23.947" cy="14.281" r="9.875"/>
		<path d="M2.994,32.297c1.488,2.92,5.928-3.092,7.064-6.422c1.76-5.162-0.998-10.774-6.16-12.534
			C3.898,13.341-1.645,23.185,2.994,32.297z"/>
		<path d="M44.772,32.297c-1.485,2.92-5.927-3.092-7.062-6.422c-1.761-5.162,0.998-10.774,6.159-12.534
			C43.87,13.341,49.414,23.185,44.772,32.297z"/>
		<g>
			<path d="M18.706,42.174c-1.653,0-3.017-1.348-3.038-3.004c-0.013-1.679,1.339-3.056,3.013-3.074c1.688,0,3.048,1.349,3.067,3.006
				c0.008,0.816-0.301,1.585-0.87,2.164c-0.568,0.58-1.328,0.901-2.14,0.908H18.706z M18.715,37.594
				c-0.867,0.011-1.554,0.709-1.547,1.56c0.011,0.837,0.701,1.521,1.538,1.521v0.75l0.018-0.75c0.412-0.002,0.797-0.166,1.084-0.459
				c0.288-0.293,0.444-0.683,0.44-1.097C20.238,38.278,19.551,37.594,18.715,37.594z"/>
			<path d="M16.813,37.51c-0.258,0-0.508-0.133-0.647-0.371l-0.61-1.037c-0.21-0.357-0.091-0.817,0.267-1.027
				c0.356-0.211,0.816-0.09,1.026,0.266l0.61,1.039c0.21,0.356,0.091,0.816-0.267,1.026C17.073,37.475,16.942,37.51,16.813,37.51z"
				/>
			<path d="M18.689,36.99c-0.411,0-0.746-0.331-0.75-0.743l-0.012-1.196c-0.004-0.414,0.328-0.754,0.742-0.758
				c0.003,0,0.006,0,0.008,0c0.411,0,0.746,0.331,0.75,0.743l0.012,1.197c0.004,0.414-0.328,0.753-0.742,0.757
				C18.694,36.99,18.691,36.99,18.689,36.99z"/>
			<path d="M20.605,37.502c-0.125,0-0.251-0.031-0.367-0.097c-0.361-0.204-0.488-0.661-0.285-1.022l0.591-1.047
				c0.204-0.359,0.663-0.486,1.021-0.285c0.361,0.205,0.488,0.662,0.285,1.022l-0.591,1.047
				C21.121,37.364,20.866,37.502,20.605,37.502z"/>
		</g>
		<g>
			<path d="M29.145,42.174c-1.652,0-3.017-1.348-3.038-3.004c-0.015-1.678,1.337-3.056,3.013-3.074c1.688,0,3.049,1.349,3.067,3.006
				c0.008,0.816-0.301,1.585-0.87,2.164c-0.567,0.58-1.328,0.901-2.14,0.908H29.145z M29.151,37.594
				c-0.866,0.011-1.553,0.709-1.546,1.559c0.012,0.837,0.701,1.521,1.538,1.521v0.75l0.019-0.75
				c0.412-0.004,0.796-0.168,1.084-0.459c0.288-0.295,0.443-0.685,0.439-1.098C30.677,38.278,29.987,37.594,29.151,37.594z"/>
			<path d="M27.252,37.51c-0.258,0-0.508-0.133-0.647-0.371l-0.609-1.037c-0.21-0.357-0.092-0.817,0.267-1.027
				c0.356-0.211,0.816-0.09,1.026,0.266l0.609,1.039c0.21,0.356,0.091,0.816-0.267,1.026C27.512,37.475,27.381,37.51,27.252,37.51z"
				/>
			<path d="M29.128,36.99c-0.411,0-0.746-0.331-0.75-0.743l-0.012-1.196c-0.005-0.414,0.327-0.754,0.741-0.758
				c0.003,0,0.006,0,0.009,0c0.41,0,0.745,0.331,0.75,0.743l0.012,1.197c0.004,0.414-0.328,0.753-0.742,0.757
				C29.133,36.99,29.13,36.99,29.128,36.99z"/>
			<path d="M31.042,37.502c-0.125,0-0.252-0.031-0.368-0.097c-0.36-0.204-0.487-0.661-0.284-1.022l0.592-1.047
				c0.205-0.361,0.663-0.486,1.022-0.283s0.487,0.66,0.284,1.021l-0.593,1.047C31.558,37.365,31.304,37.502,31.042,37.502z"/>
		</g>
	</g>
	<g>
	</g>
	<g>
	</g>
	<g>
	</g>
	<g>
	</g>
	<g>
	</g>
	<g>
	</g>
	<g>
	</g>
	<g>
	</g>
	<g>
	</g>
	<g>
	</g>
	<g>
	</g>
	<g>
	</g>
	<g>
	</g>
	<g>
	</g>
	<g>
	</g>
</g>
<g>
</g>
<g>
</g>
<g>
</g>
<g>
</g>
<g>
</g>
<g>
</g>
<g>
</g>
<g>
</g>
<g>
</g>
<g>
</g>
<g>
</g>
<g>
</g>
<g>
</g>
<g>
</g>
<g>
</g>
</svg>
