<?xml version="1.0" encoding="iso-8859-1"?>
<!-- Generator: Adobe Illustrator 16.0.0, SVG Export Plug-In . SVG Version: 6.00 Build 0)  -->
<!DOCTYPE svg PUBLIC "-//W3C//DTD SVG 1.1//EN" "http://www.w3.org/Graphics/SVG/1.1/DTD/svg11.dtd">
<svg version="1.1" id="Capa_1" xmlns="http://www.w3.org/2000/svg" xmlns:xlink="http://www.w3.org/1999/xlink" x="0px" y="0px"
	 width="47.631px" height="47.63px" viewBox="0 0 47.631 47.63" style="enable-background:new 0 0 47.631 47.63;"
	 xml:space="preserve">
<g>
	<g id="Whisk">
		<g>
			<path d="M27.615,28.529c-0.257,0-0.513-0.099-0.707-0.293l-1.656-1.654c-0.392-0.391-0.392-1.023,0-1.415
				c0.391-0.392,1.023-0.39,1.415,0l1.656,1.655c0.391,0.391,0.391,1.022,0,1.414C28.127,28.431,27.871,28.529,27.615,28.529z"/>
			<path d="M44.937,47.543c-1.05,0-2.293-0.616-3.325-1.647L28.212,32.497c-1.032-1.032-1.647-2.275-1.647-3.327
				c0-0.585,0.193-1.086,0.557-1.448l0.688-0.688c1.017-1.014,3.168-0.514,4.774,1.093l13.399,13.399
				c0.729,0.729,1.265,1.584,1.505,2.402c0.287,0.977,0.142,1.819-0.412,2.373l-0.689,0.688
				C46.022,47.351,45.521,47.543,44.937,47.543z M29.257,27.978c-0.125,0-0.293,0.021-0.389,0.115l-0.688,0.689
				c-0.096,0.096-0.116,0.264-0.116,0.388c0,0.487,0.316,1.373,1.208,2.265l13.4,13.399c0.892,0.892,1.778,1.208,2.265,1.208
				c0.125,0,0.293-0.02,0.39-0.115l0.687-0.688c0.142-0.143,0.155-0.482,0.035-0.891c-0.169-0.574-0.58-1.218-1.126-1.765
				l-13.4-13.399C30.629,28.294,29.744,27.978,29.257,27.978z"/>
			<path d="M23.138,26.702c-5.711,0-17.155-6.312-20.138-9.293C-1.005,13.4-0.999,7.121,3.013,3.108
				c1.948-1.948,4.493-3.021,7.167-3.021c2.65,0,5.18,1.071,7.125,3.016c3.612,3.611,12.324,18.984,8.609,22.699
				C25.316,26.4,24.383,26.702,23.138,26.702z M10.18,1.087c-2.407,0-4.701,0.969-6.46,2.728C0.044,7.491,0.039,13.03,3.707,16.7
				c2.813,2.812,14.046,9,19.431,9c0.97,0,1.667-0.204,2.069-0.606c2.815-2.816-4.499-17.175-8.608-21.285
				C14.842,2.054,12.563,1.087,10.18,1.087z"/>
			<path d="M24.288,26.287c-4.769,0-16.546-7.901-19.365-10.582c-1.738-1.652-3.782-4.688-3.821-7.81
				c-0.023-1.82,0.629-3.407,1.939-4.716c0.195-0.195,0.512-0.195,0.707,0c0.195,0.195,0.195,0.512,0,0.707
				C2.636,4.998,2.083,6.341,2.102,7.882c0.035,2.81,1.913,5.58,3.51,7.098c4.064,3.865,17.64,11.975,19.521,10.093
				c0.195-0.194,0.512-0.194,0.707,0c0.195,0.195,0.195,0.513,0,0.707C25.491,26.13,24.958,26.287,24.288,26.287z"/>
			<path d="M25.227,26.058c-0.724,0-2.567-0.803-8.178-4.875c-4.181-3.035-8.328-6.381-10.084-8.138
				c-1.331-1.331-2.687-3.339-3.538-5.243C2.724,6.23,2.092,4.151,3.072,3.172c0.195-0.195,0.512-0.195,0.707,0
				c0.195,0.195,0.195,0.512,0,0.707C3.431,4.228,3.469,5.448,4.34,7.395c0.805,1.8,2.082,3.694,3.332,4.944
				c3.8,3.799,15.851,12.563,17.455,12.711c0.188-0.097,0.424-0.067,0.583,0.091c0.194,0.195,0.194,0.512,0,0.707
				C25.612,25.945,25.5,26.058,25.227,26.058z"/>
			<path d="M25.354,25.996c-0.128,0-0.256-0.049-0.354-0.147c-0.158-0.157-0.188-0.396-0.089-0.584
				C24.78,23.649,16.116,11.63,12.35,7.863c-1.249-1.249-3.172-2.535-5.02-3.357C5.333,3.618,4.088,3.57,3.74,3.918
				c-0.195,0.195-0.512,0.195-0.707,0c-0.195-0.195-0.195-0.512,0-0.707c0.98-0.979,3.098-0.334,4.704,0.38
				c1.953,0.869,3.991,2.234,5.32,3.564c1.745,1.745,5.061,5.882,8.063,10.061c5.527,7.693,4.938,8.281,4.587,8.632
				C25.61,25.947,25.482,25.996,25.354,25.996z"/>
			<path d="M25.287,26.127c-0.128,0-0.257-0.049-0.354-0.146c-0.195-0.195-0.195-0.513,0-0.707c0.212-0.213,0.256-0.621,0.256-0.924
				C25.18,20.364,17.927,8.812,14.851,5.762C12.597,3.527,7.375,0.257,3.748,3.885c-0.195,0.195-0.512,0.195-0.707,0
				c-0.195-0.195-0.195-0.512,0-0.707c4.183-4.184,10.015-0.604,12.514,1.874C18.528,8,26.179,19.748,26.188,24.348
				c0.001,0.718-0.183,1.267-0.549,1.634C25.543,26.079,25.415,26.127,25.287,26.127z"/>
			<path d="M25.136,25.775c-0.128,0-0.256-0.049-0.354-0.147L3.165,3.961C2.97,3.767,2.97,3.449,3.166,3.254
				C3.361,3.061,3.678,3.06,3.873,3.255L25.49,24.921c0.194,0.195,0.194,0.512-0.002,0.707
				C25.391,25.726,25.264,25.775,25.136,25.775z"/>
		</g>
		<circle cx="43.519" cy="43.416" r="0.926"/>
	</g>
	<g>
	</g>
	<g>
	</g>
	<g>
	</g>
	<g>
	</g>
	<g>
	</g>
	<g>
	</g>
	<g>
	</g>
	<g>
	</g>
	<g>
	</g>
	<g>
	</g>
	<g>
	</g>
	<g>
	</g>
	<g>
	</g>
	<g>
	</g>
	<g>
	</g>
</g>
<g>
</g>
<g>
</g>
<g>
</g>
<g>
</g>
<g>
</g>
<g>
</g>
<g>
</g>
<g>
</g>
<g>
</g>
<g>
</g>
<g>
</g>
<g>
</g>
<g>
</g>
<g>
</g>
<g>
</g>
</svg>
