<?xml version="1.0" encoding="iso-8859-1"?>
<!-- Generator: Adobe Illustrator 16.0.0, SVG Export Plug-In . SVG Version: 6.00 Build 0)  -->
<!DOCTYPE svg PUBLIC "-//W3C//DTD SVG 1.1//EN" "http://www.w3.org/Graphics/SVG/1.1/DTD/svg11.dtd">
<svg version="1.1" id="Capa_1" xmlns="http://www.w3.org/2000/svg" xmlns:xlink="http://www.w3.org/1999/xlink" x="0px" y="0px"
	 width="47.979px" height="47.979px" viewBox="0 0 47.979 47.979" style="enable-background:new 0 0 47.979 47.979;"
	 xml:space="preserve">
<g>
	<g id="Zoom_Out">
		<g>
			<g>
				<polyline points="43.095,46.461 31.368,34.766 34.694,31.438 46.426,43.132 				"/>
				<path d="M43.095,47.458c-0.255,0-0.509-0.097-0.704-0.291L30.664,35.473c-0.188-0.188-0.292-0.44-0.294-0.705
					c0-0.266,0.105-0.52,0.293-0.707l3.326-3.328c0.39-0.389,1.021-0.392,1.41-0.002l11.73,11.695
					c0.391,0.389,0.391,1.02,0.002,1.41s-1.02,0.393-1.41,0.002L34.696,32.846l-1.918,1.92l11.021,10.989
					c0.39,0.39,0.392,1.021,0.002,1.41C43.606,47.359,43.351,47.458,43.095,47.458z"/>
			</g>
			<g>
				<path d="M46.437,43.143c0.778,0.771,0.666,2.155-0.254,3.073c-0.918,0.916-2.294,1.031-3.074,0.259"/>
				<path d="M44.409,47.979c-0.745,0-1.463-0.263-2.004-0.795c-0.391-0.389-0.394-1.021-0.006-1.41
					c0.387-0.393,1.018-0.396,1.409-0.008c0.386,0.383,1.15,0.265,1.669-0.256c0.305-0.304,0.479-0.693,0.479-1.066
					c0-0.17-0.04-0.41-0.222-0.592c-0.392-0.388-0.395-1.02-0.008-1.41c0.387-0.392,1.018-0.396,1.41-0.008
					c0.521,0.519,0.811,1.229,0.812,2.006c0.002,0.9-0.387,1.807-1.064,2.482C46.187,47.621,45.278,47.979,44.409,47.979z"/>
			</g>
		</g>
		<path d="M19.861,39.682c-5.3,0-10.284-2.064-14.032-5.814c-7.734-7.733-7.734-20.319,0-28.057C9.577,2.063,14.56,0,19.861,0
			c5.3,0,10.283,2.063,14.027,5.81c3.749,3.748,5.812,8.73,5.812,14.03c0,5.301-2.063,10.281-5.812,14.026
			C30.144,37.616,25.161,39.682,19.861,39.682z M19.861,2c-4.766,0-9.248,1.855-12.618,5.224c-6.955,6.957-6.955,18.274,0,25.229
			c3.371,3.372,7.852,5.229,12.618,5.229s9.246-1.856,12.612-5.229c3.372-3.368,5.228-7.848,5.228-12.612s-1.855-9.246-5.227-12.616
			C29.106,3.855,24.627,2,19.861,2z"/>
		<path d="M19.86,35.046c-4.062,0-7.879-1.581-10.75-4.451c-2.873-2.872-4.455-6.692-4.455-10.754s1.582-7.879,4.455-10.75
			c2.87-2.871,6.687-4.453,10.749-4.453c4.061,0,7.878,1.582,10.751,4.453c2.873,2.87,4.453,6.688,4.453,10.751
			c0,4.063-1.582,7.883-4.453,10.754C27.739,33.465,23.921,35.046,19.86,35.046z M19.859,6.638c-3.527,0-6.843,1.374-9.334,3.867
			c-2.495,2.493-3.869,5.81-3.869,9.336c0,3.527,1.374,6.845,3.869,9.341c2.493,2.491,5.808,3.864,9.335,3.864
			s6.844-1.373,9.336-3.864c2.494-2.494,3.867-5.812,3.867-9.34c0-3.528-1.373-6.844-3.867-9.337
			C26.702,8.012,23.386,6.638,19.859,6.638z"/>
		<g>
			<path d="M26.671,18.507H12.952c-0.552,0-1-0.447-1-1c0-0.553,0.448-1,1-1h13.719c0.552,0,1,0.447,1,1
				C27.671,18.06,27.223,18.507,26.671,18.507z"/>
			<path d="M26.676,23.175H12.952c-0.552,0-1-0.447-1-1c0-0.553,0.448-1,1-1h13.725c0.553,0,1,0.447,1,1
				C27.677,22.728,27.229,23.175,26.676,23.175z"/>
			<path d="M12.952,23.175c-1.832,0-3.322-1.492-3.322-3.327c0-1.834,1.49-3.325,3.322-3.325c0.552,0,1,0.447,1,1s-0.448,1-1,1
				c-0.729,0-1.322,0.595-1.322,1.325c0,0.731,0.593,1.327,1.322,1.327c0.552,0,1,0.447,1,1
				C13.952,22.728,13.504,23.175,12.952,23.175z"/>
			<path d="M26.766,23.175c-0.552,0-1-0.447-1-1c0-0.553,0.448-1,1-1c0.731,0,1.325-0.596,1.325-1.327
				c0-0.73-0.594-1.325-1.325-1.325c-0.552,0-1-0.447-1-1s0.448-1,1-1c1.833,0,3.325,1.491,3.325,3.325
				C30.091,21.683,28.6,23.175,26.766,23.175z"/>
		</g>
	</g>
	<g>
	</g>
	<g>
	</g>
	<g>
	</g>
	<g>
	</g>
	<g>
	</g>
	<g>
	</g>
	<g>
	</g>
	<g>
	</g>
	<g>
	</g>
	<g>
	</g>
	<g>
	</g>
	<g>
	</g>
	<g>
	</g>
	<g>
	</g>
	<g>
	</g>
</g>
<g>
</g>
<g>
</g>
<g>
</g>
<g>
</g>
<g>
</g>
<g>
</g>
<g>
</g>
<g>
</g>
<g>
</g>
<g>
</g>
<g>
</g>
<g>
</g>
<g>
</g>
<g>
</g>
<g>
</g>
</svg>
